<svg id="Camada_1" data-name="Camada 1" xmlns="http://www.w3.org/2000/svg" viewBox="0 0 300 200"><defs><style>.cls-1{fill:#333;}.cls-2{font-size:11px;font-family:HelveticaNowText-Regular, Helvetica Now Text ;}.cls-3{letter-spacing:-0.01em;}.cls-4{letter-spacing:-0.03em;}.cls-5{letter-spacing:0em;}.cls-6{letter-spacing:-0.02em;}.cls-7{fill:#c5daea;}.cls-8{fill:#4c241d;}.cls-9{fill:#bf7e68;}.cls-10{fill:#ffce56;}.cls-11{fill:#bd53b5;}.cls-12{fill:#fff;}.cls-13{fill:#a9ba5a;}.cls-14{fill:#efefd2;}.cls-15{fill:#f53e28;}.cls-16{fill:#ffded5;}.cls-17{fill:#e66353;}.cls-18{fill:#d9be6f;}.cls-19{fill:#6b4f5b;}.cls-20{fill:#9dc1e4;}</style></defs><title>logo poketMon-r01</title><path class="cls-1" d="M21.32,12.7V13a4.86,4.86,0,0,1,1.49-1.29,3.56,3.56,0,0,1,1.74-.42,4,4,0,0,1,2.15.61,4.08,4.08,0,0,1,1.56,1.76,6.15,6.15,0,0,1,.57,2.74,6.69,6.69,0,0,1-.33,2.15,4.63,4.63,0,0,1-.91,1.64,3.67,3.67,0,0,1-1.36,1,4,4,0,0,1-1.68.36,3.53,3.53,0,0,1-1.82-.43,5.53,5.53,0,0,1-1.41-1.28v3.8c0,1.11-.4,1.67-1.21,1.67a1,1,0,0,1-.95-.43,2.8,2.8,0,0,1-.23-1.26V12.72a1.6,1.6,0,0,1,.31-1.08,1.1,1.1,0,0,1,.87-.36,1.13,1.13,0,0,1,.87.37A1.48,1.48,0,0,1,21.32,12.7Zm5,3.69A4.41,4.41,0,0,0,26,14.67a2.54,2.54,0,0,0-.85-1.11,2,2,0,0,0-1.2-.38,2.25,2.25,0,0,0-1.77.82,3.6,3.6,0,0,0-.72,2.43,3.49,3.49,0,0,0,.72,2.35,2.19,2.19,0,0,0,1.77.84,2.07,2.07,0,0,0,1.17-.36,2.56,2.56,0,0,0,.86-1.1A4.3,4.3,0,0,0,26.29,16.39Z"/><path class="cls-1" d="M40.34,16.43A6.11,6.11,0,0,1,40,18.52a4.74,4.74,0,0,1-1,1.64,4.62,4.62,0,0,1-1.6,1.06,5.73,5.73,0,0,1-2.09.36,5.4,5.4,0,0,1-2.06-.37,4.62,4.62,0,0,1-1.6-1.06,4.89,4.89,0,0,1-1-1.63,6.07,6.07,0,0,1-.34-2.09,5.9,5.9,0,0,1,.35-2.1,4.58,4.58,0,0,1,1-1.64,4.39,4.39,0,0,1,1.6-1,5.68,5.68,0,0,1,2.06-.37,5.76,5.76,0,0,1,2.09.37A4.45,4.45,0,0,1,40,14.35,5.79,5.79,0,0,1,40.34,16.43Zm-2.54,0A3.84,3.84,0,0,0,37.12,14a2.24,2.24,0,0,0-1.84-.86,2.28,2.28,0,0,0-1.3.38,2.51,2.51,0,0,0-.88,1.14,4.68,4.68,0,0,0-.3,1.75,4.63,4.63,0,0,0,.3,1.74A2.5,2.5,0,0,0,34,19.3a2.38,2.38,0,0,0,3.16-.47A3.83,3.83,0,0,0,37.8,16.43Z"/><path class="cls-1" d="M48.65,20.42l-2.24-3.67L45,18.05v2a1.54,1.54,0,0,1-.39,1.13,1.21,1.21,0,0,1-.89.39,1.14,1.14,0,0,1-.91-.39A1.68,1.68,0,0,1,42.51,20V9.24A2.1,2.1,0,0,1,42.84,8a1,1,0,0,1,.92-.44,1.16,1.16,0,0,1,.93.4A1.72,1.72,0,0,1,45,9.09v6.15l2.84-3a7.62,7.62,0,0,1,.81-.76,1.1,1.1,0,0,1,.68-.21,1.12,1.12,0,0,1,.79.31,1,1,0,0,1,.31.75c0,.37-.34.87-1,1.49L48.1,15.06l2.59,4.08c.2.3.33.54.42.69a1,1,0,0,1,.12.45,1.32,1.32,0,0,1-.33.95,1.1,1.1,0,0,1-.86.35,1,1,0,0,1-.72-.25A5.76,5.76,0,0,1,48.65,20.42Z"/><path class="cls-1" d="M59.57,17.05h-5A3.38,3.38,0,0,0,55,18.58a2.35,2.35,0,0,0,.9,1,2.37,2.37,0,0,0,1.24.33,3.1,3.1,0,0,0,.83-.1,3,3,0,0,0,.72-.34,4.09,4.09,0,0,0,.65-.49c.2-.17.46-.4.77-.7a.85.85,0,0,1,.56-.17.88.88,0,0,1,.63.22.75.75,0,0,1,.24.6,1.61,1.61,0,0,1-.27.8,3.14,3.14,0,0,1-.81.88,4.35,4.35,0,0,1-1.36.7,5.78,5.78,0,0,1-1.89.28,5,5,0,0,1-3.79-1.39A5.17,5.17,0,0,1,52,16.41a6.39,6.39,0,0,1,.33-2.08,4.7,4.7,0,0,1,1-1.65,4.38,4.38,0,0,1,1.58-1A5.69,5.69,0,0,1,57,11.27a4.92,4.92,0,0,1,2.55.62,4.12,4.12,0,0,1,1.59,1.62,4.29,4.29,0,0,1,.53,2c0,.64-.18,1-.55,1.24A3.39,3.39,0,0,1,59.57,17.05Zm-5-1.43h4.59a3.05,3.05,0,0,0-.7-1.95,2.09,2.09,0,0,0-1.6-.64,2,2,0,0,0-1.55.65A3.26,3.26,0,0,0,54.62,15.62Z"/><path class="cls-1" d="M63.93,11.51h.28V10q0-.6,0-1a1.47,1.47,0,0,1,.19-.59A1.08,1.08,0,0,1,64.85,8a1.3,1.3,0,0,1,.62-.16,1.28,1.28,0,0,1,.88.36,1,1,0,0,1,.32.59,5,5,0,0,1,.07,1v1.73h.93a1.18,1.18,0,0,1,.82.25.85.85,0,0,1,.29.66.73.73,0,0,1-.41.71,2.55,2.55,0,0,1-1.15.2h-.48V18a7,7,0,0,0,.05.92.91.91,0,0,0,.22.52.78.78,0,0,0,.59.19,3.15,3.15,0,0,0,.6-.07,2.6,2.6,0,0,1,.59-.08.79.79,0,0,1,.56.24.85.85,0,0,1,.24.61,1,1,0,0,1-.67.94,4.59,4.59,0,0,1-1.92.32,3.29,3.29,0,0,1-1.8-.4,1.87,1.87,0,0,1-.8-1.1,7.34,7.34,0,0,1-.19-1.88V13.33h-.33a1.18,1.18,0,0,1-.84-.26.88.88,0,0,1,0-1.31A1.31,1.31,0,0,1,63.93,11.51Z"/><path class="cls-1" d="M72.4,7.75H76A9.87,9.87,0,0,1,78.4,8a4.54,4.54,0,0,1,1.82,1,6.92,6.92,0,0,1,2.12,5.53,11.08,11.08,0,0,1-.21,2.24,6.77,6.77,0,0,1-.66,1.82A5.71,5.71,0,0,1,80.33,20a4.89,4.89,0,0,1-1.2.79,5.3,5.3,0,0,1-1.4.42,10.6,10.6,0,0,1-1.68.12H72.46a2.25,2.25,0,0,1-1.13-.23,1,1,0,0,1-.5-.64,4,4,0,0,1-.11-1.07v-10a1.78,1.78,0,0,1,.39-1.29A1.77,1.77,0,0,1,72.4,7.75Zm1.07,2.18v9.23h2.09a10,10,0,0,0,1.07,0,3.12,3.12,0,0,0,.81-.18,2.29,2.29,0,0,0,.73-.42c.92-.78,1.38-2.12,1.38-4a6,6,0,0,0-.61-3,2.77,2.77,0,0,0-1.5-1.28,7.46,7.46,0,0,0-2.15-.27Z"/><path class="cls-1" d="M91.65,17.05h-5a3.38,3.38,0,0,0,.35,1.53,2.35,2.35,0,0,0,.9,1,2.37,2.37,0,0,0,1.24.33,3.1,3.1,0,0,0,.83-.1,3.21,3.21,0,0,0,.73-.34,4.51,4.51,0,0,0,.64-.49c.2-.17.46-.4.77-.7a.85.85,0,0,1,.56-.17.88.88,0,0,1,.63.22.75.75,0,0,1,.24.6,1.61,1.61,0,0,1-.27.8,3,3,0,0,1-.81.88,4.24,4.24,0,0,1-1.36.7,5.78,5.78,0,0,1-1.89.28,5,5,0,0,1-3.79-1.39,5.17,5.17,0,0,1-1.36-3.78,6.13,6.13,0,0,1,.34-2.08,4.53,4.53,0,0,1,1-1.65,4.38,4.38,0,0,1,1.58-1,5.71,5.71,0,0,1,2.08-.36,4.91,4.91,0,0,1,2.54.62,4.12,4.12,0,0,1,1.59,1.62,4.18,4.18,0,0,1,.53,2c0,.64-.18,1-.55,1.24A3.36,3.36,0,0,1,91.65,17.05Zm-5-1.43h4.59a3.05,3.05,0,0,0-.7-1.95A2.09,2.09,0,0,0,89,13a2,2,0,0,0-1.55.65A3.26,3.26,0,0,0,86.7,15.62Z"/><path class="cls-1" d="M101.12,20.53l-1.84-2.7-1.88,2.7a5.53,5.53,0,0,1-.69.81,1.08,1.08,0,0,1-.72.24,1.18,1.18,0,0,1-.82-.3.89.89,0,0,1-.34-.69,2.25,2.25,0,0,1,.52-1.14l2.29-3.29-2-2.73a2,2,0,0,1-.53-1.18.89.89,0,0,1,.31-.68,1.2,1.2,0,0,1,.83-.29,1.14,1.14,0,0,1,.74.25,5,5,0,0,1,.68.79l1.64,2.25,1.6-2.25a3.88,3.88,0,0,1,.69-.79,1,1,0,0,1,.73-.25,1.23,1.23,0,0,1,.83.29.86.86,0,0,1,.33.68,1.21,1.21,0,0,1-.14.55,4.37,4.37,0,0,1-.41.63l-2,2.73,2.29,3.29a2.39,2.39,0,0,1,.54,1.16.89.89,0,0,1-.34.68,1.18,1.18,0,0,1-.82.29,1.11,1.11,0,0,1-.74-.25A4.3,4.3,0,0,1,101.12,20.53Z"/><text class="cls-2" transform="translate(18.21 154.93)">Accede a los principales datos de tus <tspan class="cls-3" x="195.8" y="0">P</tspan><tspan x="202.84" y="0">o</tspan><tspan class="cls-4" x="209.4" y="0">k</tspan><tspan x="215.21" y="0">emones </tspan><tspan x="0" y="13.2">de la Gene</tspan><tspan class="cls-5" x="56.11" y="13.2">r</tspan><tspan x="60.1" y="13.2">ación &quot;</tspan><tspan class="cls-3" x="96.18" y="13.2">K</tspan><tspan x="103.93" y="13.2">anto&quot; y o</tspan><tspan class="cls-6" x="150.5" y="13.2">b</tspan><tspan x="156.89" y="13.2">tén la mejor </tspan><tspan x="0" y="26.4">in</tspan><tspan class="cls-3" x="9.31" y="26.4">f</tspan><tspan x="13.13" y="26.4">ormación pa</tspan><tspan class="cls-5" x="77.39" y="26.4">r</tspan><tspan x="81.39" y="26.4">a cada batalla</tspan></text><path class="cls-7" d="M235.27,85.82a28,28,0,1,1-28-28A28,28,0,0,1,235.27,85.82Z"/><path class="cls-7" d="M197.86,104.54a22.45,22.45,0,1,1-22.45-22.45A22.45,22.45,0,0,1,197.86,104.54Z"/><path class="cls-7" d="M252.7,67.29a22.87,22.87,0,1,1-22.87-22.87A22.87,22.87,0,0,1,252.7,67.29Z"/><path class="cls-7" d="M140.36,83.81A29.85,29.85,0,1,1,110.52,54,29.84,29.84,0,0,1,140.36,83.81Z"/><path class="cls-7" d="M95.27,106.35A24.56,24.56,0,1,1,70.69,81.82,24.55,24.55,0,0,1,95.27,106.35Z"/><path class="cls-7" d="M102.29,66.3A25.63,25.63,0,1,1,76.67,40.67,25.62,25.62,0,0,1,102.29,66.3Z"/><path class="cls-7" d="M68.36,85.08A25.62,25.62,0,1,1,42.74,59.46,25.62,25.62,0,0,1,68.36,85.08Z"/><path class="cls-7" d="M281.91,85.08a25.62,25.62,0,1,1-25.62-25.62A25.62,25.62,0,0,1,281.91,85.08Z"/><path class="cls-7" d="M253.47,102.14A22.14,22.14,0,1,1,231.33,80,22.14,22.14,0,0,1,253.47,102.14Z"/><path class="cls-8" d="M198.63,108.58a.5.5,0,0,1-.5-.5V106.6a.5.5,0,1,1,1,0v1.48A.49.49,0,0,1,198.63,108.58Z"/><path class="cls-8" d="M198.63,105.1a.49.49,0,0,1-.5-.49v-1.49a.5.5,0,0,1,1,0v1.49A.49.49,0,0,1,198.63,105.1Z"/><path class="cls-8" d="M201.11,106.09h-1.49a.49.49,0,0,1,0-1h1.49a.49.49,0,1,1,0,1Z"/><path class="cls-8" d="M197.63,106.09h-1.49a.49.49,0,1,1,0-1h1.49a.49.49,0,0,1,0,1Z"/><path class="cls-8" d="M172.44,127.11a1.62,1.62,0,0,1-.71-.18,1.57,1.57,0,0,1-.74-.9,1.47,1.47,0,0,1,.12-1.16,1.51,1.51,0,0,1,2.79.28,1.49,1.49,0,0,1-.11,1.15,1.57,1.57,0,0,1-.9.74A1.76,1.76,0,0,1,172.44,127.11Zm0-2.06-.16,0a.55.55,0,0,0-.36.67.59.59,0,0,0,.26.32.58.58,0,0,0,.41,0,.55.55,0,0,0,.32-.26.58.58,0,0,0,0-.41A.54.54,0,0,0,172.45,125.05Z"/><path class="cls-8" d="M198.05,119.72a1.54,1.54,0,0,1-.72-.18,1.49,1.49,0,0,1-.73-.9,1.51,1.51,0,0,1,.11-1.16,1.49,1.49,0,0,1,.9-.73,1.52,1.52,0,0,1,1.78,2.17,1.49,1.49,0,0,1-.9.73A1.35,1.35,0,0,1,198.05,119.72Zm0-2a.47.47,0,0,0-.16,0,.53.53,0,0,0-.09,1,.51.51,0,0,0,.4,0,.52.52,0,0,0,.32-.26.51.51,0,0,0,0-.4A.52.52,0,0,0,198.05,117.67Z"/><path class="cls-8" d="M197.27,128.12a.46.46,0,0,1-.34-.15.47.47,0,0,1,0-.69l1.45-1.45a.49.49,0,0,1,.69,0,.47.47,0,0,1,0,.69L197.62,128A.47.47,0,0,1,197.27,128.12Z"/><path class="cls-8" d="M198.73,128.12a.47.47,0,0,1-.35-.15l-1.45-1.45a.47.47,0,0,1,0-.69.49.49,0,0,1,.69,0l1.45,1.45a.47.47,0,0,1,0,.69A.46.46,0,0,1,198.73,128.12Z"/><path class="cls-8" d="M172.91,106.69a.52.52,0,0,1-.35-.14.5.5,0,0,1,0-.7l1.93-1.93a.49.49,0,0,1,.7.7l-1.93,1.93A.52.52,0,0,1,172.91,106.69Z"/><path class="cls-8" d="M174.84,106.69a.52.52,0,0,1-.35-.14l-1.93-1.93a.49.49,0,0,1,.7-.7l1.93,1.93a.5.5,0,0,1,0,.7A.54.54,0,0,1,174.84,106.69Z"/><path class="cls-9" d="M190.32,110.46l9.93,1.57L193,119l1.57,9.93-8.84-4.79-9,4.56,1.83-9.89-7.11-7.11,10-1.32,4.57-9Z"/><path class="cls-8" d="M194.53,129.38a.46.46,0,0,1-.23-.06l-8.61-4.67L177,129.1a.49.49,0,0,1-.7-.53l1.78-9.63L171.1,112a.49.49,0,0,1,.29-.84l9.71-1.28,4.45-8.73a.48.48,0,0,1,.44-.27h0a.49.49,0,0,1,.44.28l4.22,8.84,9.68,1.54a.49.49,0,0,1,.26.84l-7.1,6.75,1.53,9.67a.49.49,0,0,1-.2.48A.52.52,0,0,1,194.53,129.38Zm-8.84-5.78a.53.53,0,0,1,.24.06l8,4.32-1.42-9a.49.49,0,0,1,.15-.43l6.57-6.24-8.95-1.42a.44.44,0,0,1-.36-.27L186,102.5l-4.11,8.07a.52.52,0,0,1-.38.26l-9,1.19,6.41,6.4a.51.51,0,0,1,.13.44l-1.64,8.91,8.07-4.11A.46.46,0,0,1,185.69,123.6Z"/><path class="cls-10" d="M193.21,115.44h-1.57a5.85,5.85,0,0,0-1.68-3.22l1.54-1.55a1,1,0,1,0-1.39-1.39l-1.8,1.8a5.93,5.93,0,0,0-2.49-.55,5.78,5.78,0,0,0-2.62.62l-1.39-1.91a1,1,0,0,0-1.59,1.16l1.38,1.9a6,6,0,0,0-1.6,3.14h-1.37a1,1,0,0,0-1,1h0a1,1,0,0,0,1,1H180a5.91,5.91,0,0,0,1.6,3.14l-1.38,1.91a1,1,0,0,0,1.59,1.15l1.39-1.9a5.44,5.44,0,0,0,1.64.53v2.06a1,1,0,1,0,2,0v-2.06a5.45,5.45,0,0,0,1.5-.46l1.8,1.8a1,1,0,1,0,1.39-1.39L190,120.65a5.85,5.85,0,0,0,1.68-3.23h1.57a1,1,0,0,0,1-1h0A1,1,0,0,0,193.21,115.44Z"/><path class="cls-8" d="M185.82,125.79a1.47,1.47,0,0,1-1.47-1.48v-1.65a6.73,6.73,0,0,1-1-.32l-1.15,1.57a1.48,1.48,0,0,1-2.39-1.73L181,120.6a6.34,6.34,0,0,1-1.37-2.68h-1a1.49,1.49,0,0,1,0-3h1a6.34,6.34,0,0,1,1.37-2.68l-1.15-1.58a1.48,1.48,0,0,1,.33-2.06,1.47,1.47,0,0,1,1.1-.27,1.52,1.52,0,0,1,1,.59l1.15,1.58a6.39,6.39,0,0,1,4.84,0l1.56-1.56a1.48,1.48,0,0,1,2.09,2.09l-1.21,1.21A6.16,6.16,0,0,1,192,115h1.17a1.49,1.49,0,0,1,0,3H192a6.16,6.16,0,0,1-1.4,2.72l1.21,1.21a1.48,1.48,0,1,1-2.09,2.09l-1.56-1.57a6.75,6.75,0,0,1-.9.29v1.65A1.48,1.48,0,0,1,185.82,125.79Zm-2.62-4.56a.59.59,0,0,1,.22,0,5.28,5.28,0,0,0,1.5.49.48.48,0,0,1,.41.48v2.06a.49.49,0,0,0,.49.49.5.5,0,0,0,.5-.49v-2.06a.48.48,0,0,1,.41-.48,5.08,5.08,0,0,0,1.37-.43.52.52,0,0,1,.56.1l1.8,1.8a.49.49,0,1,0,.69-.69L189.61,121a.51.51,0,0,1-.15-.35.56.56,0,0,1,.15-.35,5.33,5.33,0,0,0,1.55-3,.49.49,0,0,1,.48-.41h1.57a.5.5,0,0,0,0-1h-1.57a.49.49,0,0,1-.48-.41,5.33,5.33,0,0,0-1.55-3,.56.56,0,0,1-.15-.35.51.51,0,0,1,.15-.35l1.55-1.55a.48.48,0,0,0,.14-.35.48.48,0,0,0-.14-.34.48.48,0,0,0-.7,0l-1.8,1.8a.52.52,0,0,1-.56.1,5.37,5.37,0,0,0-4.68.06.51.51,0,0,1-.62-.15l-1.39-1.91a.48.48,0,0,0-.32-.19.49.49,0,0,0-.47.77L182,112a.5.5,0,0,1-.05.64,5.34,5.34,0,0,0-1.46,2.88.5.5,0,0,1-.49.41h-1.37a.5.5,0,0,0,0,1H180a.5.5,0,0,1,.49.41,5.34,5.34,0,0,0,1.46,2.88.49.49,0,0,1,.05.63l-1.38,1.91a.49.49,0,0,0,.47.77.48.48,0,0,0,.32-.19l1.39-1.91A.48.48,0,0,1,183.2,121.23Z"/><path class="cls-11" d="M188.66,116.43a2.84,2.84,0,1,1-2.84-2.83A2.84,2.84,0,0,1,188.66,116.43Z"/><path class="cls-8" d="M185.82,119.76a3.33,3.33,0,1,1,3.33-3.33A3.33,3.33,0,0,1,185.82,119.76Zm0-5.67a2.35,2.35,0,1,0,2.35,2.34A2.34,2.34,0,0,0,185.82,114.09Z"/><path class="cls-12" d="M188.29,114.46a1,1,0,1,1-2,0,1,1,0,0,1,2,0Z"/><path class="cls-8" d="M221.72,61.52a.61.61,0,0,1-.62-.61V59.14a.62.62,0,0,1,1.23,0v1.77A.61.61,0,0,1,221.72,61.52Z"/><path class="cls-8" d="M221.72,57.4a.62.62,0,0,1-.62-.61V55a.62.62,0,0,1,1.23,0v1.77A.62.62,0,0,1,221.72,57.4Z"/><path class="cls-8" d="M224.66,58.58h-1.77a.62.62,0,0,1,0-1.23h1.77a.62.62,0,0,1,0,1.23Z"/><path class="cls-8" d="M220.54,58.58h-1.77a.62.62,0,0,1,0-1.23h1.77a.62.62,0,0,1,0,1.23Z"/><path class="cls-8" d="M220.39,90.8a1.87,1.87,0,0,1-.89-.23,1.85,1.85,0,0,1-.92-1.11,1.89,1.89,0,0,1,1.26-2.36,1.9,1.9,0,0,1,1.44.15,1.83,1.83,0,0,1,.91,1.11h0a1.89,1.89,0,0,1-1.25,2.36A2.09,2.09,0,0,1,220.39,90.8Zm0-2.55a.58.58,0,0,0-.19,0,.65.65,0,0,0-.45.82.72.72,0,0,0,.33.4.62.62,0,0,0,.5,0,.65.65,0,0,0,.44-.82.62.62,0,0,0-.32-.39A.58.58,0,0,0,220.39,88.25Z"/><path class="cls-8" d="M189.79,61.13a1.89,1.89,0,1,1,1.89-1.89A1.89,1.89,0,0,1,189.79,61.13Zm0-2.55a.66.66,0,1,0,.66.66A.66.66,0,0,0,189.79,58.58Z"/><path class="cls-13" d="M200.92,65.92s1.83-9.79,12.23-6.12,4.9,20.19,10.4,24.47c0,0-10.09,5.81-15-16.82,0,0-1.22-9.79-6.73-1.23Z"/><path class="cls-8" d="M220.66,85.55a7.34,7.34,0,0,1-3-.66C213.28,83,210,77.14,208,67.58c-.2-1.54-.91-4-2-4.24-.5-.11-1.63.16-3.6,3.21a.6.6,0,0,1-.71.25l-.92-.3a.6.6,0,0,1-.4-.69,10.06,10.06,0,0,1,4.37-6.39c2.32-1.34,5.24-1.41,8.67-.2,6.44,2.28,7.11,9.09,7.71,15.11.4,4,.77,7.84,2.86,9.46a.58.58,0,0,1,.23.52.6.6,0,0,1-.3.49A7,7,0,0,1,220.66,85.55ZM205.75,62.1a2.42,2.42,0,0,1,.47,0c2.3.52,2.89,4.74,2.95,5.22,2.45,11.33,6.2,15.18,8.92,16.39a6.07,6.07,0,0,0,4.36.3c-1.86-2.11-2.22-5.77-2.6-9.61-.59-5.93-1.19-12.06-6.9-14.07-3.08-1.09-5.65-1.05-7.65.1a8.56,8.56,0,0,0-3.59,4.82C203.19,63.15,204.52,62.1,205.75,62.1Z"/><path class="cls-8" d="M198,58.41a.62.62,0,0,1-.44-.18.6.6,0,0,1,0-.86l1.81-1.8a.61.61,0,0,1,.86.86l-1.8,1.8A.61.61,0,0,1,198,58.41Z"/><path class="cls-8" d="M199.82,58.41a.6.6,0,0,1-.43-.18l-1.81-1.8a.6.6,0,0,1,0-.86.62.62,0,0,1,.87,0l1.8,1.8a.61.61,0,0,1-.43,1Z"/><path class="cls-14" d="M210,88.32a12.85,12.85,0,1,1,3.4-4"/><path class="cls-8" d="M202.14,91.61a13.45,13.45,0,1,1,11.79-7,.62.62,0,0,1-.83.24.6.6,0,0,1-.24-.83,12.22,12.22,0,1,0-3.24,3.78.61.61,0,0,1,.86.11.63.63,0,0,1-.11.86,13.46,13.46,0,0,1-5.32,2.48A13.23,13.23,0,0,1,202.14,91.61Z"/><path class="cls-8" d="M211.4,87.67a.61.61,0,0,1-.42-.17.6.6,0,0,1,0-.86,10.42,10.42,0,0,0,.81-1,.62.62,0,0,1,.86-.1.61.61,0,0,1,.11.86c-.28.35-.58.7-.9,1A.59.59,0,0,1,211.4,87.67Z"/><path class="cls-12" d="M196.35,75.18a9.7,9.7,0,0,0-.85-.85,1.76,1.76,0,0,0-2.63.43A8.63,8.63,0,0,0,192,79.1a1.63,1.63,0,0,0,1.29,1.56,7.89,7.89,0,0,0,1.28.18,4.51,4.51,0,0,1-.36-1.77A4.57,4.57,0,0,1,196.35,75.18Z"/><path class="cls-8" d="M194.55,81.45h0a8.52,8.52,0,0,1-1.38-.19,2.26,2.26,0,0,1-1.76-2.15,9.12,9.12,0,0,1,1-4.66,2.32,2.32,0,0,1,1.62-1.1,2.4,2.4,0,0,1,1.93.51,8,8,0,0,1,.92.92.6.6,0,0,1,.14.49.64.64,0,0,1-.28.43,4,4,0,0,0-1.87,3.37,3.84,3.84,0,0,0,.31,1.53.64.64,0,0,1-.06.6A.63.63,0,0,1,194.55,81.45Zm-.19-6.91h-.19a1.11,1.11,0,0,0-.78.53,8.17,8.17,0,0,0-.79,4,1,1,0,0,0,.8,1l.29.06a4.71,4.71,0,0,1-.11-1.06,5.19,5.19,0,0,1,1.85-4l-.33-.29A1.17,1.17,0,0,0,194.36,74.54Z"/><path class="cls-15" d="M198.16,78.72a9,9,0,0,0-1.81-3.54,4.57,4.57,0,0,0-2.16,3.89,4.51,4.51,0,0,0,.36,1.77,9.6,9.6,0,0,0,2.33-.13A1.61,1.61,0,0,0,198.16,78.72Z"/><path class="cls-8" d="M195.19,81.47c-.23,0-.46,0-.69,0a.6.6,0,0,1-.52-.37,5.22,5.22,0,0,1,2-6.42.61.61,0,0,1,.79.12,9.5,9.5,0,0,1,1.94,3.78,2.17,2.17,0,0,1-.26,1.74,2.3,2.3,0,0,1-1.5,1A9.88,9.88,0,0,1,195.19,81.47ZM195,80.25a9,9,0,0,0,1.79-.14,1.07,1.07,0,0,0,.69-.46,1,1,0,0,0,.11-.77A8.39,8.39,0,0,0,196.23,76,4,4,0,0,0,195,80.25Z"/><path class="cls-12" d="M195.41,77.23a.92.92,0,1,1-.92-.91A.92.92,0,0,1,195.41,77.23Z"/><path class="cls-12" d="M207.32,75.18a9.7,9.7,0,0,1,.85-.85,1.76,1.76,0,0,1,2.63.43,8.51,8.51,0,0,1,.88,4.34,1.61,1.61,0,0,1-1.28,1.56,7.89,7.89,0,0,1-1.28.18,4.51,4.51,0,0,0,.36-1.77A4.57,4.57,0,0,0,207.32,75.18Z"/><path class="cls-8" d="M209.12,81.45a.63.63,0,0,1-.5-.25.64.64,0,0,1-.06-.6,4,4,0,0,0,.31-1.53A4,4,0,0,0,207,75.7a.64.64,0,0,1-.28-.43.6.6,0,0,1,.14-.49,8,8,0,0,1,.92-.92,2.4,2.4,0,0,1,1.93-.51,2.32,2.32,0,0,1,1.62,1.1,9.12,9.12,0,0,1,1,4.66,2.26,2.26,0,0,1-1.76,2.15,8.52,8.52,0,0,1-1.38.19Zm-.88-6.36a5.19,5.19,0,0,1,1.85,4,4.71,4.71,0,0,1-.11,1.06l.29-.06a1,1,0,0,0,.8-1,8.17,8.17,0,0,0-.79-4,1.11,1.11,0,0,0-.78-.53,1.2,1.2,0,0,0-.93.25Z"/><path class="cls-15" d="M205.51,78.72a8.85,8.85,0,0,1,1.81-3.54,4.57,4.57,0,0,1,2.16,3.89,4.51,4.51,0,0,1-.36,1.77,9.58,9.58,0,0,1-2.33-.13A1.61,1.61,0,0,1,205.51,78.72Z"/><path class="cls-8" d="M208.48,81.47a9.88,9.88,0,0,1-1.8-.16,2.28,2.28,0,0,1-1.5-1,2.17,2.17,0,0,1-.26-1.74,9.5,9.5,0,0,1,1.94-3.78.61.61,0,0,1,.79-.12,5.22,5.22,0,0,1,2,6.42.6.6,0,0,1-.53.37C208.94,81.47,208.71,81.47,208.48,81.47Zm-2.38-2.59a1,1,0,0,0,.11.77,1.07,1.07,0,0,0,.69.46,9,9,0,0,0,1.79.14A4,4,0,0,0,207.44,76,8.39,8.39,0,0,0,206.1,78.88Z"/><path class="cls-12" d="M210.09,77.23a.92.92,0,1,1-.91-.91A.92.92,0,0,1,210.09,77.23Z"/><path class="cls-8" d="M207.45,84.25H205a.6.6,0,0,1-.34-.11,4.42,4.42,0,0,0-5.49,0,.66.66,0,0,1-.41.15h-2.49a.62.62,0,0,1,0-1.23h2.29a5.7,5.7,0,0,1,6.63,0h2.31a.62.62,0,0,1,0,1.23Z"/><path class="cls-16" d="M205,83.64a5.06,5.06,0,0,0-6.25,0h-1c2.09,5.36,6.92,4.3,8.46,0Z"/><path class="cls-8" d="M201.83,87.88c-2,0-3.73-1.46-4.73-4a.64.64,0,0,1,.07-.57.61.61,0,0,1,.5-.26h.84a5.67,5.67,0,0,1,6.63,0h1a.59.59,0,0,1,.5.26.58.58,0,0,1,.08.55c-.87,2.43-2.76,4-4.82,4Zm-3.21-3.63c.81,1.54,1.95,2.41,3.22,2.41h0a4,4,0,0,0,3.33-2.41H205a.6.6,0,0,1-.34-.11,4.42,4.42,0,0,0-5.49,0,.69.69,0,0,1-.41.15Z"/><path class="cls-17" d="M199,85.89a3.7,3.7,0,0,0,5.72.06,4.26,4.26,0,0,0-2.89-1.07A4.38,4.38,0,0,0,199,85.89Z"/><path class="cls-8" d="M201.84,87.88h-.09a4.42,4.42,0,0,1-3.2-1.58.62.62,0,0,1-.16-.45.58.58,0,0,1,.22-.42,5.06,5.06,0,0,1,6.52.06.62.62,0,0,1,.21.44.64.64,0,0,1-.18.45A4.68,4.68,0,0,1,201.84,87.88ZM200,86a3,3,0,0,0,1.81.7,3.21,3.21,0,0,0,2-.67A4,4,0,0,0,200,86Z"/><path class="cls-7" d="M159.54,102.79a23.09,23.09,0,1,1-23.08-23.08A23.08,23.08,0,0,1,159.54,102.79Z"/><path class="cls-8" d="M144.81,99.06a.54.54,0,0,1-.41-.17.56.56,0,0,1,0-.81l1.22-1.23a.59.59,0,0,1,.82,0,.57.57,0,0,1,0,.82l-1.23,1.22A.54.54,0,0,1,144.81,99.06Z"/><path class="cls-8" d="M142,101.92a.54.54,0,0,1-.41-.17.56.56,0,0,1,0-.81l1.22-1.23a.58.58,0,1,1,.82.82l-1.22,1.22A.58.58,0,0,1,142,101.92Z"/><path class="cls-8" d="M143.17,99.06a.56.56,0,0,1-.41-.17l-1.22-1.22a.57.57,0,0,1,0-.82.59.59,0,0,1,.82,0l1.22,1.23a.56.56,0,0,1,0,.81A.54.54,0,0,1,143.17,99.06Z"/><path class="cls-8" d="M146,101.92a.56.56,0,0,1-.41-.17l-1.22-1.22a.57.57,0,0,1,0-.82.56.56,0,0,1,.81,0l1.23,1.23a.56.56,0,0,1,0,.81A.54.54,0,0,1,146,101.92Z"/><path class="cls-8" d="M145,129.15a1.73,1.73,0,0,1-.83-.21,1.8,1.8,0,0,1-.87-1.06,1.72,1.72,0,0,1,.14-1.35,1.78,1.78,0,0,1,3.27.32h0a1.78,1.78,0,0,1-1.19,2.22A1.53,1.53,0,0,1,145,129.15Zm0-2.41a.57.57,0,0,0-.18,0,.67.67,0,0,0-.38.3.63.63,0,0,0,.74.9.63.63,0,0,0,.42-.78.66.66,0,0,0-.6-.45Z"/><path class="cls-8" d="M116.15,106.33a1.78,1.78,0,1,1,1.78-1.78A1.78,1.78,0,0,1,116.15,106.33Zm0-2.41a.63.63,0,1,0,.63.63A.63.63,0,0,0,116.15,103.92Z"/><path class="cls-8" d="M115.25,128a.58.58,0,0,1-.4-1l1.7-1.7a.57.57,0,0,1,.82,0,.59.59,0,0,1,0,.82l-1.71,1.7A.58.58,0,0,1,115.25,128Z"/><path class="cls-13" d="M142.68,109a6,6,0,0,0-2.35-3.8l-3.84-2.83a8,8,0,0,1-1.86-1.9,2,2,0,0,0-1.68-.92h-3.34a2.06,2.06,0,0,0-1.68.92,8.14,8.14,0,0,1-1.85,1.9l-3.84,2.83a6,6,0,0,0-2.36,3.8,5.87,5.87,0,0,0,.6,3.74,3.8,3.8,0,0,0,3.37,2h14.86a3.8,3.8,0,0,0,3.37-2A5.87,5.87,0,0,0,142.68,109Z"/><path class="cls-8" d="M138.71,115.33H123.85A4.37,4.37,0,0,1,120,113a6.48,6.48,0,0,1,1.92-8.27l3.84-2.83a7.6,7.6,0,0,0,1.72-1.77A2.65,2.65,0,0,1,129.61,99H133a2.65,2.65,0,0,1,2.15,1.17,7.6,7.6,0,0,0,1.72,1.77l3.84,2.83a6.46,6.46,0,0,1,2.58,4.17h0a6.48,6.48,0,0,1-.66,4.1A4.37,4.37,0,0,1,138.71,115.33Zm-9.1-15.19a1.5,1.5,0,0,0-1.21.66,8.57,8.57,0,0,1-2,2l-3.84,2.83a5.33,5.33,0,0,0-2.13,3.43,5.4,5.4,0,0,0,.54,3.37,3.22,3.22,0,0,0,2.86,1.69h14.86a3.22,3.22,0,0,0,2.86-1.69,5.4,5.4,0,0,0,.54-3.37h0a5.33,5.33,0,0,0-2.13-3.43l-3.84-2.83a8.57,8.57,0,0,1-2-2,1.5,1.5,0,0,0-1.21-.66Z"/><path class="cls-8" d="M138.79,115.48l-.12,0a.57.57,0,0,1-.44-.68c1.47-6.88-4.18-13.49-5.32-14.75a.58.58,0,1,1,.85-.78c1.7,1.87,7.15,8.52,5.6,15.77A.59.59,0,0,1,138.79,115.48Z"/><path class="cls-8" d="M123.77,115.48a.57.57,0,0,1-.56-.46c-1.56-7.25,3.89-13.9,5.59-15.77a.58.58,0,0,1,.82,0,.59.59,0,0,1,0,.82c-1.15,1.26-6.8,7.87-5.32,14.75a.58.58,0,0,1-.45.68Z"/><path class="cls-8" d="M131.18,115.11a.57.57,0,0,1-.57-.58V99.6a.57.57,0,0,1,.57-.58.58.58,0,0,1,.58.58v14.93A.58.58,0,0,1,131.18,115.11Z"/><path class="cls-18" d="M119.52,112.42l-.71-2.88a1.76,1.76,0,0,1,2.13-2.12l2.88.71a1.4,1.4,0,0,1,.65,2.35l-2.6,2.6A1.4,1.4,0,0,1,119.52,112.42Z"/><path class="cls-8" d="M120.89,114.07a2,2,0,0,1-.54-.08,2,2,0,0,1-1.39-1.43l-.71-2.88a2.35,2.35,0,0,1,.62-2.21,2.31,2.31,0,0,1,2.21-.61l2.88.71a2,2,0,0,1,.92,3.31l-2.6,2.61A1.94,1.94,0,0,1,120.89,114.07Zm-.81-1.79a.82.82,0,0,0,1.38.39l2.61-2.6a.82.82,0,0,0-.39-1.38L120.8,108a1.17,1.17,0,0,0-1.11.31,1.15,1.15,0,0,0-.31,1.11Z"/><path class="cls-18" d="M143,112.42l.71-2.88a1.76,1.76,0,0,0-2.13-2.12l-2.88.71a1.4,1.4,0,0,0-.65,2.35l2.6,2.6A1.4,1.4,0,0,0,143,112.42Z"/><path class="cls-8" d="M141.67,114.07a1.94,1.94,0,0,1-1.39-.58l-2.6-2.6a2,2,0,0,1-.51-1.93,2,2,0,0,1,1.43-1.39l2.88-.71a2.31,2.31,0,0,1,2.21.61,2.35,2.35,0,0,1,.62,2.21l-.71,2.88a1.94,1.94,0,0,1-1.39,1.43A2,2,0,0,1,141.67,114.07Zm.38-6.13a1.45,1.45,0,0,0-.29,0l-2.88.71a.81.81,0,0,0-.59.58.77.77,0,0,0,.21.8l2.6,2.6a.81.81,0,0,0,.8.21.8.8,0,0,0,.58-.6l.71-2.88a1.17,1.17,0,0,0-.31-1.11A1.22,1.22,0,0,0,142.05,107.94Zm1,4.48Z"/><path class="cls-8" d="M117,128a.58.58,0,0,1-.41-.17l-1.7-1.7a.57.57,0,0,1,0-.82.56.56,0,0,1,.81,0l1.71,1.7a.59.59,0,0,1,0,.82A.6.6,0,0,1,117,128Z"/><path class="cls-8" d="M122.19,99.72a.57.57,0,0,1-.41-1l1.7-1.7a.57.57,0,0,1,.82,0,.58.58,0,0,1,0,.81l-1.71,1.71A.57.57,0,0,1,122.19,99.72Z"/><path class="cls-8" d="M123.89,99.72a.57.57,0,0,1-.41-.16l-1.7-1.71a.57.57,0,1,1,.81-.81l1.71,1.7a.59.59,0,0,1,0,.82A.57.57,0,0,1,123.89,99.72Z"/><path class="cls-18" d="M138.7,128a12.14,12.14,0,1,1,3.21-3.75"/><path class="cls-8" d="M131.26,131.08a12.72,12.72,0,1,1,11.15-6.58.57.57,0,0,1-.78.23.59.59,0,0,1-.23-.79,11.58,11.58,0,1,0-3.06,3.57.58.58,0,0,1,.71.92,12.62,12.62,0,0,1-5,2.34A12.36,12.36,0,0,1,131.26,131.08Z"/><path class="cls-8" d="M130.33,125.23a.57.57,0,0,1-.25-.06l-.88-.44a.58.58,0,0,1,.52-1l.87.44a.58.58,0,0,1,.26.78A.58.58,0,0,1,130.33,125.23Z"/><path class="cls-8" d="M132.23,125.23a.58.58,0,0,1-.26-1.1l.88-.44a.58.58,0,0,1,.51,1l-.87.44A.65.65,0,0,1,132.23,125.23Z"/><path class="cls-8" d="M140,127.35a.58.58,0,0,1-.4-.16.57.57,0,0,1,0-.81c.27-.29.53-.59.77-.89a.57.57,0,0,1,.81-.1.58.58,0,0,1,.1.81c-.27.34-.55.66-.85,1A.59.59,0,0,1,140,127.35Z"/><path class="cls-12" d="M125.81,115.56a7.52,7.52,0,0,0-.8-.8,1.67,1.67,0,0,0-2.49.4,8.19,8.19,0,0,0-.83,4.1,1.55,1.55,0,0,0,1.21,1.48,7.17,7.17,0,0,0,1.21.16,4.22,4.22,0,0,1-.34-1.67A4.32,4.32,0,0,1,125.81,115.56Z"/><path class="cls-8" d="M124.11,121.48h0a7.69,7.69,0,0,1-1.3-.18,2.12,2.12,0,0,1-1.66-2,8.67,8.67,0,0,1,.92-4.41,2.18,2.18,0,0,1,1.53-1,2.22,2.22,0,0,1,1.82.48,8.92,8.92,0,0,1,.87.87.6.6,0,0,1,.13.46.6.6,0,0,1-.26.41,3.72,3.72,0,0,0-1.77,3.18,3.79,3.79,0,0,0,.29,1.45.56.56,0,0,1-.06.56A.58.58,0,0,1,124.11,121.48Zm-.17-6.53h-.19a1.06,1.06,0,0,0-.73.5,7.61,7.61,0,0,0-.75,3.79,1,1,0,0,0,.76.92l.27.06a4.79,4.79,0,0,1-.11-1,4.87,4.87,0,0,1,1.75-3.75l-.3-.28A1.13,1.13,0,0,0,123.94,115Z"/><path class="cls-15" d="M127.52,118.9a8.26,8.26,0,0,0-1.71-3.34,4.32,4.32,0,0,0-2,3.67,4.22,4.22,0,0,0,.34,1.67,9.12,9.12,0,0,0,2.21-.12A1.52,1.52,0,0,0,127.52,118.9Z"/><path class="cls-8" d="M124.71,121.5l-.64,0a.57.57,0,0,1-.49-.35,4.82,4.82,0,0,1-.39-1.9,4.89,4.89,0,0,1,2.31-4.16.58.58,0,0,1,.75.11,9,9,0,0,1,1.83,3.57,2.09,2.09,0,0,1-1.66,2.59A8.85,8.85,0,0,1,124.71,121.5Zm-.19-1.16a8,8,0,0,0,1.69-.13,1,1,0,0,0,.65-.43.93.93,0,0,0,.1-.73,7.91,7.91,0,0,0-1.26-2.7,3.74,3.74,0,0,0-1.35,2.88A3.78,3.78,0,0,0,124.52,120.34Z"/><path class="cls-12" d="M124.93,117.5a.87.87,0,1,1-.87-.87A.86.86,0,0,1,124.93,117.5Z"/><path class="cls-12" d="M136.17,115.56a6.72,6.72,0,0,1,.81-.8,1.66,1.66,0,0,1,2.48.4,8.19,8.19,0,0,1,.83,4.1,1.55,1.55,0,0,1-1.21,1.48,7,7,0,0,1-1.21.16,4.22,4.22,0,0,0,.34-1.67A4.3,4.3,0,0,0,136.17,115.56Z"/><path class="cls-8" d="M137.87,121.48a.57.57,0,0,1-.53-.8,3.61,3.61,0,0,0,.29-1.45,3.74,3.74,0,0,0-1.76-3.18.62.62,0,0,1-.27-.41.6.6,0,0,1,.14-.46,7.93,7.93,0,0,1,.87-.87,2.26,2.26,0,0,1,3.35.55,8.56,8.56,0,0,1,.91,4.41,2.12,2.12,0,0,1-1.66,2,7.69,7.69,0,0,1-1.3.18Zm-.83-6a4.84,4.84,0,0,1,1.75,3.75,4.78,4.78,0,0,1-.1,1l.26-.06a1,1,0,0,0,.77-.92,7.83,7.83,0,0,0-.75-3.79,1.08,1.08,0,0,0-.74-.5,1.12,1.12,0,0,0-.88.24C137.25,115.28,137.15,115.38,137,115.48Z"/><path class="cls-15" d="M134.46,118.9a8.38,8.38,0,0,1,1.71-3.34,4.3,4.3,0,0,1,2,3.67,4.22,4.22,0,0,1-.34,1.67,9,9,0,0,1-2.2-.12A1.52,1.52,0,0,1,134.46,118.9Z"/><path class="cls-8" d="M137.27,121.5a9,9,0,0,1-1.71-.16,2.09,2.09,0,0,1-1.41-1,2.05,2.05,0,0,1-.25-1.64,9,9,0,0,1,1.84-3.57.57.57,0,0,1,.74-.11,4.87,4.87,0,0,1,2.31,4.16,5,5,0,0,1-.38,1.9.6.6,0,0,1-.5.35ZM135,119.05a.9.9,0,0,0,.11.73,1,1,0,0,0,.64.43,8,8,0,0,0,1.69.13,3.48,3.48,0,0,0,.17-1.11,3.7,3.7,0,0,0-1.35-2.88A8.1,8.1,0,0,0,135,119.05Z"/><path class="cls-12" d="M138.79,117.5a.87.87,0,1,1-.87-.87A.86.86,0,0,1,138.79,117.5Z"/><path class="cls-13" d="M128.39,109.7l1.16,2.31h1.73L133,109.7l-.57-1.16Z"/><path class="cls-8" d="M131.28,112.59h-1.73a.6.6,0,0,1-.52-.32L127.88,110a.56.56,0,0,1,0-.49.6.6,0,0,1,.37-.33l4.05-1.15a.56.56,0,0,1,.67.3l.58,1.15a.58.58,0,0,1-.05.61l-1.74,2.31A.59.59,0,0,1,131.28,112.59Zm-1.38-1.16H131l1.35-1.79-.21-.41-2.91.83Z"/><path class="cls-13" d="M132.59,115.53v-2l2-1v2Z"/><path class="cls-8" d="M132.59,116.11a.55.55,0,0,1-.3-.09.58.58,0,0,1-.28-.49v-2a.57.57,0,0,1,.32-.51l2-1a.58.58,0,0,1,.84.51v2a.58.58,0,0,1-.32.52l-2,1A.58.58,0,0,1,132.59,116.11Zm.58-2.22v.71l.84-.43v-.7Z"/><path class="cls-13" d="M127.6,112.61l-1.06.39,1.49,2.45,1.39-1.1Z"/><path class="cls-8" d="M128,116h-.1a.56.56,0,0,1-.39-.27l-1.49-2.45a.59.59,0,0,1,.3-.85l1.05-.38a.58.58,0,0,1,.6.13l1.82,1.73a.57.57,0,0,1,.18.44.59.59,0,0,1-.22.43l-1.39,1.1A.61.61,0,0,1,128,116Zm-.63-2.73.78,1.29.36-.28-1.08-1Z"/><path class="cls-7" d="M177.26,67.3a23.77,23.77,0,1,1-23.77-23.77A23.77,23.77,0,0,1,177.26,67.3Z"/><path class="cls-8" d="M178.55,39.08a1.1,1.1,0,0,1-.75-.31,1.07,1.07,0,0,1,0-1.5l1.93-1.92a1.05,1.05,0,1,1,1.49,1.49l-1.92,1.93A1.1,1.1,0,0,1,178.55,39.08Z"/><path class="cls-8" d="M174.05,43.57a1,1,0,0,1-.74-.31,1,1,0,0,1,0-1.49l1.92-1.93a1.06,1.06,0,0,1,1.5,1.5l-1.93,1.92A1.05,1.05,0,0,1,174.05,43.57Z"/><path class="cls-8" d="M176,39.08a1.1,1.1,0,0,1-.75-.31l-1.92-1.93a1.05,1.05,0,1,1,1.49-1.49l1.93,1.92a1.07,1.07,0,0,1,0,1.5A1.1,1.1,0,0,1,176,39.08Z"/><path class="cls-8" d="M180.48,43.57a1.05,1.05,0,0,1-.75-.31l-1.93-1.92a1.06,1.06,0,0,1,1.5-1.5l1.92,1.93a1,1,0,0,1,0,1.49A1,1,0,0,1,180.48,43.57Z"/><path class="cls-8" d="M121.8,55l-1.93-1.93a1,1,0,0,1,0-1.49,1.06,1.06,0,0,1,1.49,0l1.93,1.93A1.05,1.05,0,1,1,121.8,55Z"/><path class="cls-8" d="M117.3,50.5l-1.93-1.93a1.06,1.06,0,0,1,0-1.49,1,1,0,0,1,1.49,0L118.79,49a1.07,1.07,0,0,1,0,1.5A1.06,1.06,0,0,1,117.3,50.5Z"/><path class="cls-8" d="M119.87,50.49a1,1,0,0,1,0-1.49l1.92-1.93a1.06,1.06,0,0,1,1.5,1.5l-1.93,1.92A1,1,0,0,1,119.87,50.49Z"/><path class="cls-8" d="M115.37,55a1.06,1.06,0,0,1,0-1.49l1.93-1.93a1.05,1.05,0,1,1,1.49,1.49L116.87,55A1.06,1.06,0,0,1,115.37,55Z"/><path class="cls-8" d="M162,111.73a3.26,3.26,0,1,1,3.26-3.25A3.26,3.26,0,0,1,162,111.73Zm0-4.4a1.15,1.15,0,1,0,1.15,1.15A1.15,1.15,0,0,0,162,107.33Z"/><path class="cls-8" d="M146.9,46.42a1.1,1.1,0,0,1-.75-.31,1.07,1.07,0,0,1,0-1.5l3.12-3.11A1.05,1.05,0,0,1,150.76,43l-3.11,3.12A1.1,1.1,0,0,1,146.9,46.42Z"/><path class="cls-10" d="M179.45,52.05l-9.31,5.39,8.7,7.7,4.49-9.21Z"/><path class="cls-1" d="M178.84,66.19a1,1,0,0,1-.7-.26l-8.7-7.7a1,1,0,0,1-.35-.9,1.05,1.05,0,0,1,.52-.81l9.31-5.38a1,1,0,0,1,1.27.17l3.88,3.88a1.05,1.05,0,0,1,.21,1.21l-4.49,9.2a1,1,0,0,1-.74.57A.75.75,0,0,1,178.84,66.19Zm-6.9-8.57,6.56,5.81,3.55-7.28-2.78-2.78Z"/><path class="cls-19" d="M187.49,47.4l-8,4.65,3.88,3.88Z"/><path class="cls-1" d="M183.33,57a1.06,1.06,0,0,1-.75-.31L178.7,52.8a1,1,0,0,1-.3-.89,1,1,0,0,1,.52-.77l8-4.66a1.06,1.06,0,0,1,1.48,1.38l-4.16,8.54a1.09,1.09,0,0,1-.78.58Zm-2.17-4.71L183,54.14l2-4.09Z"/><path class="cls-10" d="M142.33,52.05l9.31,5.39-8.7,7.7-4.49-9.21Z"/><path class="cls-1" d="M142.94,66.19a.75.75,0,0,1-.21,0,1,1,0,0,1-.74-.57l-4.49-9.2a1.07,1.07,0,0,1,.2-1.21l3.89-3.88a1,1,0,0,1,1.27-.17l9.31,5.38a1.06,1.06,0,0,1,.17,1.71l-8.7,7.7A1.08,1.08,0,0,1,142.94,66.19Zm-3.21-10,3.55,7.28,6.56-5.81-7.33-4.25Z"/><path class="cls-19" d="M134.29,47.4l8,4.65-3.88,3.88Z"/><path class="cls-1" d="M138.45,57h-.17a1.09,1.09,0,0,1-.78-.58l-4.16-8.54a1.06,1.06,0,0,1,1.48-1.38l8,4.66a1,1,0,0,1,.52.77,1.08,1.08,0,0,1-.3.89l-3.88,3.88A1.06,1.06,0,0,1,138.45,57Zm-1.7-6.94,2,4.09,1.86-1.86Z"/><path class="cls-8" d="M150.46,44.72l-2.93-2.92a1,1,0,0,0-1.4,0,1,1,0,0,0,0,1.4l2.93,2.93a1,1,0,0,0,.7.29,1,1,0,0,0,.7-1.7Z"/><path class="cls-10" d="M144.65,89.76a22.22,22.22,0,1,1,7.18,5.47"/><path class="cls-1" d="M161.41,98.47a23.28,23.28,0,0,1-10-2.28,1.06,1.06,0,0,1,.91-1.91,21.09,21.09,0,1,0-6.83-5.21,1.06,1.06,0,0,1-1.6,1.38A23,23,0,0,1,139,81.52a23.24,23.24,0,1,1,22.37,17Z"/><path class="cls-1" d="M148.75,94.5a1.06,1.06,0,0,1-.6-.19,22.19,22.19,0,0,1-1.87-1.45,1.06,1.06,0,1,1,1.38-1.6c.53.46,1.11.9,1.7,1.32a1.06,1.06,0,0,1-.61,1.92Z"/><path class="cls-1" d="M174.73,77.13a1.07,1.07,0,0,1-1.06-1.06,1.69,1.69,0,0,0-3.38,0,1.06,1.06,0,1,1-2.11,0,3.81,3.81,0,0,1,7.61,0A1.07,1.07,0,0,1,174.73,77.13Z"/><path class="cls-1" d="M152.54,77.13a1.06,1.06,0,0,1-1-1.06,1.7,1.7,0,0,0-3.39,0,1.06,1.06,0,1,1-2.11,0,3.81,3.81,0,0,1,7.61,0A1.06,1.06,0,0,1,152.54,77.13Z"/><path class="cls-8" d="M132.15,40.36A1.37,1.37,0,1,1,130.78,39,1.37,1.37,0,0,1,132.15,40.36Z"/><path class="cls-8" d="M190.25,59.38A1.37,1.37,0,1,1,188.88,58,1.36,1.36,0,0,1,190.25,59.38Z"/><path class="cls-17" d="M181.19,84.2a3.4,3.4,0,1,1-3.4-3.39A3.4,3.4,0,0,1,181.19,84.2Z"/><path class="cls-1" d="M177.79,88.66a4.46,4.46,0,1,1,4.45-4.46A4.46,4.46,0,0,1,177.79,88.66Zm0-6.79a2.34,2.34,0,1,0,2.34,2.34A2.34,2.34,0,0,0,177.79,81.87Z"/><path class="cls-17" d="M148.44,84.2a3.4,3.4,0,1,1-3.4-3.39A3.4,3.4,0,0,1,148.44,84.2Z"/><path class="cls-1" d="M145,88.66a4.46,4.46,0,1,1,4.45-4.46A4.46,4.46,0,0,1,145,88.66Zm0-6.79a2.34,2.34,0,1,0,2.34,2.34A2.34,2.34,0,0,0,145,81.87Z"/><path class="cls-1" d="M165.2,83.88a6.69,6.69,0,0,1-4.37-1.68,6.65,6.65,0,0,1-7,1.12,1.06,1.06,0,0,1,.94-1.9c.13.06,2.68,1.22,5.33-1.43a1,1,0,0,1,.82-.31,1,1,0,0,1,.77.42A4.54,4.54,0,0,0,167,81.39a1.06,1.06,0,1,1,.79,2A7.16,7.16,0,0,1,165.2,83.88Z"/><path class="cls-17" d="M160.89,80.73a6,6,0,0,1-5.58,1.94,29.5,29.5,0,0,0,2.8,8.92,3.09,3.09,0,0,0,5.33.11,16.74,16.74,0,0,0,2.43-8.92A5.69,5.69,0,0,1,160.89,80.73Z"/><path class="cls-1" d="M160.8,94.22h-.11a4.08,4.08,0,0,1-3.5-2.12,30.79,30.79,0,0,1-2.92-9.27,1.05,1.05,0,0,1,.31-.92,1.08,1.08,0,0,1,.94-.28A5,5,0,0,0,160.14,80a1.06,1.06,0,0,1,.82-.31,1,1,0,0,1,.77.41,4.57,4.57,0,0,0,4,1.64,1,1,0,0,1,.83.26,1,1,0,0,1,.35.8,18.05,18.05,0,0,1-2.58,9.47A4.16,4.16,0,0,1,160.8,94.22Zm-4.21-10.39A26.72,26.72,0,0,0,159,91.08a2,2,0,0,0,1.71,1,2.12,2.12,0,0,0,1.81-1,15.2,15.2,0,0,0,2.22-7.26,6.63,6.63,0,0,1-3.93-1.68A7.11,7.11,0,0,1,156.59,83.83Z"/><path class="cls-8" d="M94.65,57.27a.6.6,0,0,1-.43-1l1.09-1.09a.6.6,0,0,1,.84,0,.61.61,0,0,1,0,.85l-1.08,1.08A.59.59,0,0,1,94.65,57.27Z"/><path class="cls-8" d="M92.11,59.8a.63.63,0,0,1-.42-.17.61.61,0,0,1,0-.85l1.09-1.08a.59.59,0,0,1,.84.84l-1.09,1.09A.61.61,0,0,1,92.11,59.8Z"/><path class="cls-8" d="M93.2,57.27a.58.58,0,0,1-.42-.18L91.69,56a.61.61,0,0,1,0-.85.6.6,0,0,1,.84,0l1.09,1.09a.6.6,0,0,1-.42,1Z"/><path class="cls-8" d="M95.73,59.8a.63.63,0,0,1-.42-.17l-1.09-1.09a.6.6,0,0,1,0-.84.61.61,0,0,1,.85,0l1.08,1.08a.6.6,0,0,1-.42,1Z"/><path class="cls-8" d="M94.41,90.53a1.78,1.78,0,0,1-.86-.22,1.8,1.8,0,0,1-.89-1.08,1.84,1.84,0,0,1,.14-1.4,1.8,1.8,0,0,1,1.08-.89,1.84,1.84,0,0,1,2.29,1.22h0A1.83,1.83,0,0,1,95,90.45,2,2,0,0,1,94.41,90.53Zm0-2.48a.58.58,0,0,0-.19,0,.62.62,0,0,0-.38.31.64.64,0,0,0,0,.49.62.62,0,0,0,.31.38.61.61,0,0,0,.49,0,.63.63,0,0,0,.43-.8.62.62,0,0,0-.31-.38A.54.54,0,0,0,94.42,88.05Z"/><path class="cls-8" d="M109.88,61.66a1.84,1.84,0,1,1,1.83-1.83A1.84,1.84,0,0,1,109.88,61.66Zm0-2.48a.65.65,0,1,0,.64.65A.65.65,0,0,0,109.88,59.18Z"/><path class="cls-8" d="M126.75,61.61a.8.8,0,1,1-.8-.8A.8.8,0,0,1,126.75,61.61Z"/><path class="cls-20" d="M115.17,70.7s1.21-3.64,6.92-5.44a2.86,2.86,0,0,1,3.33,1.33c1.31,2.32,2.61,6.6-1.34,11.54Z"/><path class="cls-8" d="M124.08,78.72a.62.62,0,0,1-.38-.14l-8.91-7.43a.58.58,0,0,1-.18-.64c0-.16,1.37-4,7.3-5.82a3.48,3.48,0,0,1,4,1.61c1.3,2.28,2.85,6.91-1.38,12.2a.64.64,0,0,1-.41.22Zm-8.19-8.2,8.1,6.75c3.17-4.3,2.26-8,.91-10.38a2.26,2.26,0,0,0-2.63-1.06C117.93,67.19,116.35,69.61,115.89,70.52Z"/><path class="cls-8" d="M124.43,90.57a.6.6,0,0,1-.42-1l1.75-1.75a.6.6,0,0,1,.85.84l-1.76,1.75A.58.58,0,0,1,124.43,90.57Z"/><path class="cls-20" d="M104.47,70.7s-1.21-3.64-6.92-5.44a2.84,2.84,0,0,0-3.32,1.33c-1.32,2.32-2.62,6.6,1.33,11.54Z"/><path class="cls-8" d="M95.56,78.72H95.5a.64.64,0,0,1-.41-.22c-4.23-5.29-2.68-9.92-1.38-12.2a3.47,3.47,0,0,1,4-1.61c5.93,1.87,7.25,5.66,7.31,5.82a.58.58,0,0,1-.19.64l-8.91,7.43A.59.59,0,0,1,95.56,78.72Zm1.16-13a2.3,2.3,0,0,0-2,1.16c-1.35,2.38-2.25,6.08.91,10.38l8.1-6.75c-.46-.91-2-3.32-6.38-4.69A2.05,2.05,0,0,0,96.72,65.73Z"/><path class="cls-8" d="M126.19,90.57a.6.6,0,0,1-.43-.18L124,88.64a.6.6,0,0,1,0-.84.58.58,0,0,1,.84,0l1.76,1.75a.6.6,0,0,1-.42,1Z"/><path class="cls-20" d="M123.61,74a9.45,9.45,0,0,1,1.45,5c0,6.46-6.84,11.7-15.27,11.7S94.52,85.49,94.52,79s6.84-11.71,15.27-11.71a18.06,18.06,0,0,1,10.08,2.92"/><path class="cls-8" d="M109.79,91.32C101,91.32,93.92,85.81,93.92,79s7.12-12.3,15.87-12.3a18.84,18.84,0,0,1,10.42,3,.6.6,0,0,1-.67,1,17.6,17.6,0,0,0-9.75-2.81c-8.09,0-14.68,5-14.68,11.11s6.59,11.1,14.68,11.1,14.67-5,14.67-11.1a8.79,8.79,0,0,0-1.36-4.68.6.6,0,1,1,1-.62,10,10,0,0,1,1.53,5.3C125.65,85.81,118.54,91.32,109.79,91.32Z"/><path class="cls-12" d="M112.64,72.87l-2.82,2.87-2.14-2.81a2.08,2.08,0,0,0-2.12-.78c-5.29,1.27-9.11,4.83-9.11,9,0,5.27,6,9.54,13.37,9.54s13.37-4.27,13.37-9.54c0-4-3.53-7.49-8.5-8.88A2.08,2.08,0,0,0,112.64,72.87Z"/><path class="cls-8" d="M109.82,91.32c-7.7,0-14-4.54-14-10.13,0-4.38,3.85-8.24,9.57-9.62a2.66,2.66,0,0,1,2.73,1l1.73,2.26,2.33-2.38a2.7,2.7,0,0,1,2.64-.71c5.43,1.51,8.94,5.22,8.94,9.45C123.79,86.78,117.52,91.32,109.82,91.32ZM106,72.69a1.75,1.75,0,0,0-.32,0c-5.18,1.24-8.65,4.64-8.65,8.46,0,4.93,5.73,8.94,12.77,8.94s12.78-4,12.78-8.94c0-3.62-3.24-7-8.07-8.3a1.48,1.48,0,0,0-1.47.4l-2.81,2.87a.62.62,0,0,1-.47.17.56.56,0,0,1-.43-.23l-2.14-2.81A1.53,1.53,0,0,0,106,72.69Zm6.62.18Z"/><path class="cls-8" d="M122.5,73.14a.6.6,0,0,1-.45-.21,12.53,12.53,0,0,0-.88-.91.59.59,0,1,1,.81-.87c.34.32.67.66,1,1a.59.59,0,0,1-.06.84A.58.58,0,0,1,122.5,73.14Z"/><path class="cls-17" d="M105.54,85.54A8,8,0,0,1,108,81.83a2.39,2.39,0,0,1,3.07-.11,6.84,6.84,0,0,1,2.56,4,1.71,1.71,0,0,1-1.69,2H107.2a1.71,1.71,0,0,1-1.66-2.17"/><path class="cls-8" d="M111.92,88.3H107.2a2.34,2.34,0,0,1-1.87-.94,2.25,2.25,0,0,1-.36-2h0a8.6,8.6,0,0,1,2.61-4,3,3,0,0,1,3.84-.13,7.4,7.4,0,0,1,2.77,4.31,2.19,2.19,0,0,1-.46,1.87A2.31,2.31,0,0,1,111.92,88.3Zm-5.81-2.59a1.07,1.07,0,0,0,.18.94,1.12,1.12,0,0,0,.91.46h4.72a1.14,1.14,0,0,0,.89-.43,1,1,0,0,0,.22-.87,6.21,6.21,0,0,0-2.35-3.63,1.8,1.8,0,0,0-2.3.09A7.34,7.34,0,0,0,106.11,85.71Z"/><path class="cls-12" d="M113.83,79a8.55,8.55,0,0,1,4.68,0"/><path class="cls-8" d="M118.51,79.61l-.17,0a7.94,7.94,0,0,0-4.35,0,.6.6,0,0,1-.73-.42.59.59,0,0,1,.42-.73,9,9,0,0,1,5,0,.6.6,0,0,1-.17,1.17Z"/><path class="cls-12" d="M100.46,79a8.55,8.55,0,0,1,4.68,0"/><path class="cls-8" d="M105.14,79.61l-.17,0a7.79,7.79,0,0,0-4.36,0,.6.6,0,0,1-.72-.42.59.59,0,0,1,.42-.73,9,9,0,0,1,5,0,.59.59,0,0,1,.4.74A.6.6,0,0,1,105.14,79.61Z"/><path class="cls-12" d="M113.63,85.91l-2.6-.74.33,2.54h.56A1.71,1.71,0,0,0,113.63,85.91Z"/><path class="cls-8" d="M111.92,88.3h-.56a.6.6,0,0,1-.6-.52l-.32-2.54a.57.57,0,0,1,.2-.52.58.58,0,0,1,.55-.13l2.61.75a.6.6,0,0,1,.43.53,2.25,2.25,0,0,1-.62,1.69A2.3,2.3,0,0,1,111.92,88.3Zm0-1.19h0a1.1,1.1,0,0,0,.82-.36,1.07,1.07,0,0,0,.25-.4L111.73,86Z"/><path class="cls-12" d="M108,85.17l-2.47.7a1.73,1.73,0,0,0,1.72,1.84h.42Z"/><path class="cls-8" d="M107.62,88.3h-.42a2.31,2.31,0,0,1-2.31-2.48.59.59,0,0,1,.43-.52l2.46-.71a.61.61,0,0,1,.76.65l-.33,2.54A.59.59,0,0,1,107.62,88.3Zm-1.5-2a1,1,0,0,0,.25.43,1.15,1.15,0,0,0,.73.37l.14-1.12Z"/><path class="cls-8" d="M91.7,92.36a.69.69,0,0,1-.69-.69V89.58a.7.7,0,0,1,1.39,0v2.08A.7.7,0,0,1,91.7,92.36Z"/><path class="cls-8" d="M91.71,97.22a.69.69,0,0,1-.7-.69V94.44a.7.7,0,0,1,1.39,0v2.09A.69.69,0,0,1,91.71,97.22Z"/><path class="cls-8" d="M90.31,93.75H88.23a.7.7,0,1,1,0-1.39h2.08a.7.7,0,1,1,0,1.39Z"/><path class="cls-8" d="M95.18,93.75H93.09a.7.7,0,0,1,0-1.39h2.08a.7.7,0,1,1,0,1.39Z"/><path class="cls-8" d="M95.07,107.41a2.13,2.13,0,0,1-1-.25,2.16,2.16,0,0,1-1-1.27,2.14,2.14,0,0,1,3.06-2.51,2.17,2.17,0,0,1,1,1.26h0a2.16,2.16,0,0,1-1.42,2.68A2.28,2.28,0,0,1,95.07,107.41Zm0-2.9a.57.57,0,0,0-.22,0,.69.69,0,0,0-.44.36.74.74,0,0,0,.31,1,.71.71,0,0,0,.57.06.75.75,0,0,0,.5-.94.77.77,0,0,0-.36-.45A.8.8,0,0,0,95.07,104.51Z"/><path class="cls-8" d="M57.53,92.51a2.14,2.14,0,1,1,2.14-2.14A2.13,2.13,0,0,1,57.53,92.51Zm0-2.89a.75.75,0,1,0,.75.75A.76.76,0,0,0,57.53,89.62Z"/><path class="cls-8" d="M55.77,104.72a.7.7,0,0,1-.49-1.19l2-2a.69.69,0,0,1,1,1l-2.05,2.05A.71.71,0,0,1,55.77,104.72Z"/><path class="cls-8" d="M57.82,104.71a.67.67,0,0,1-.49-.2l-2-2.05a.69.69,0,1,1,1-1l2.05,2a.69.69,0,0,1-.49,1.18Z"/><path class="cls-9" d="M90.33,107.68a14.52,14.52,0,0,1,1.39,6.21l0,12.52A2.77,2.77,0,0,1,89,129.18l-23.65,0a2.77,2.77,0,0,1-2.77-2.76V114.3c0-8.07,6.58-15,14.64-15a14.59,14.59,0,0,1,9.57,3.62"/><path class="cls-8" d="M89,129.87l-23.65,0a3.47,3.47,0,0,1-3.46-3.46V114.3a15.93,15.93,0,0,1,4.68-11.21A15.07,15.07,0,0,1,77.2,98.63a15.26,15.26,0,0,1,10,3.79.7.7,0,0,1-.92,1A13.87,13.87,0,0,0,77.19,100h-.06a13.54,13.54,0,0,0-9.61,4.06,14.48,14.48,0,0,0-4.27,10.21v12.15a2.07,2.07,0,0,0,2.07,2.07l23.65,0A2.07,2.07,0,0,0,91,126.41V113.89A13.66,13.66,0,0,0,89.7,108a.71.71,0,0,1,.34-.93.69.69,0,0,1,.92.34,15,15,0,0,1,1.46,6.5v12.52A3.46,3.46,0,0,1,89,129.87Z"/><path class="cls-8" d="M89.28,106.51a.69.69,0,0,1-.58-.31c-.27-.39-.55-.77-.85-1.14a.69.69,0,0,1,1.07-.88c.33.4.64.82.93,1.25a.7.7,0,0,1-.57,1.08Z"/><path class="cls-19" d="M87.56,112.51c0-1.92-.47-3.47-1-3.47s-1,1.55-1,3.47.47,3.47,1,3.47S87.56,114.43,87.56,112.51Z"/><path class="cls-8" d="M86.52,116.68c-1.66,0-1.74-3.47-1.74-4.17s.08-4.17,1.73-4.17,1.74,3.47,1.74,4.17S88.17,116.68,86.52,116.68Zm0-6.64a7.36,7.36,0,0,0-.34,2.47,7.57,7.57,0,0,0,.35,2.47,7.93,7.93,0,0,0,.34-2.47A7.57,7.57,0,0,0,86.51,110Z"/><path class="cls-19" d="M68.8,113.22c0-1.91-.47-3.47-1-3.47s-1,1.56-1,3.48.47,3.47,1,3.47S68.8,115.14,68.8,113.22Z"/><path class="cls-8" d="M67.76,117.39c-1.65,0-1.74-3.47-1.74-4.16s.08-4.17,1.73-4.17,1.75,3.47,1.75,4.16S69.42,117.39,67.76,117.39Zm0-6.64a8.93,8.93,0,0,0,0,5,8.93,8.93,0,0,0,0-5Z"/><path class="cls-16" d="M84.09,117.86c0,2.22-3,4-6.6,4s-6.6-1.8-6.6-4,2.22-2.57,5.86-2.57S84.09,115.63,84.09,117.86Z"/><path class="cls-8" d="M77.49,122.59c-4.09,0-7.29-2.07-7.29-4.72,0-3.26,3.78-3.26,6.55-3.27,2.61,0,8,0,8,3.26C84.79,120.51,81.58,122.59,77.49,122.59Zm-.74-6.6c-4.37,0-5.17.64-5.17,1.88,0,1.81,2.71,3.34,5.91,3.33s5.91-1.53,5.9-3.34S78.4,116,76.75,116Z"/><path class="cls-12" d="M73.33,115.52a2.15,2.15,0,0,0-.36,1.17,2.09,2.09,0,1,0,3.63-1.39A20.16,20.16,0,0,0,73.33,115.52Z"/><path class="cls-8" d="M75.06,119.47a2.78,2.78,0,0,1-2.78-2.78,2.71,2.71,0,0,1,.48-1.56.67.67,0,0,1,.44-.29,18.4,18.4,0,0,1,3.4-.23h0a.73.73,0,0,1,.52.22,2.87,2.87,0,0,1,.72,1.86A2.79,2.79,0,0,1,75.06,119.47Zm-1.28-3.32a1.24,1.24,0,0,0-.11.54,1.39,1.39,0,0,0,2.78,0,1.34,1.34,0,0,0-.19-.69A19.15,19.15,0,0,0,73.78,116.15Z"/><path class="cls-12" d="M86.16,110.77a1,1,0,1,1-1-1A1,1,0,0,1,86.16,110.77Z"/><path class="cls-12" d="M70.19,110.79a1,1,0,1,1-1-1A1,1,0,0,1,70.19,110.79Z"/><path class="cls-8" d="M77.12,100a.69.69,0,0,1-.69-.7V93.77a.7.7,0,0,1,1.39,0v5.56A.7.7,0,0,1,77.12,100Z"/><path class="cls-8" d="M75.83,99.89a.71.71,0,0,1-.64-.43,13.08,13.08,0,0,0-2.73-3.81.69.69,0,1,1,1-1,14.4,14.4,0,0,1,3,4.26.7.7,0,0,1-.38.9A.66.66,0,0,1,75.83,99.89Z"/><path class="cls-8" d="M78.41,99.88a.58.58,0,0,1-.26,0,.68.68,0,0,1-.38-.9,14.19,14.19,0,0,1,3-4.27.71.71,0,0,1,1,0,.69.69,0,0,1,0,1,13.28,13.28,0,0,0-2.73,3.81A.69.69,0,0,1,78.41,99.88Z"/><path class="cls-8" d="M245,40.16a.43.43,0,0,1-.31-.14.43.43,0,0,1,0-.63l.94-.94a.45.45,0,0,1,.64,0,.45.45,0,0,1,0,.63l-1,.94A.45.45,0,0,1,245,40.16Z"/><path class="cls-8" d="M242.79,42.37a.43.43,0,0,1-.31-.14.43.43,0,0,1,0-.63l.94-.94a.45.45,0,0,1,.64,0,.45.45,0,0,1,0,.63l-.95.94A.45.45,0,0,1,242.79,42.37Z"/><path class="cls-8" d="M243.74,40.16a.47.47,0,0,1-.32-.14l-.94-.94a.45.45,0,0,1,.63-.63l.95.94a.45.45,0,0,1,0,.63A.47.47,0,0,1,243.74,40.16Z"/><path class="cls-8" d="M246,42.37a.47.47,0,0,1-.32-.14l-.94-.94a.45.45,0,1,1,.63-.63l1,.94a.45.45,0,0,1,0,.63A.47.47,0,0,1,246,42.37Z"/><path class="cls-8" d="M245.19,63.41a1.33,1.33,0,0,1-.65-.16,1.37,1.37,0,0,1-.67-.82,1.34,1.34,0,0,1,.1-1,1.38,1.38,0,0,1,2.54.25h0a1.38,1.38,0,0,1-1.32,1.77Zm0-1.86-.14,0a.49.49,0,0,0-.29.24.47.47,0,0,0,0,.37.46.46,0,0,0,.23.28.48.48,0,0,0,.37,0,.49.49,0,0,0,.32-.61.46.46,0,0,0-.23-.28A.46.46,0,0,0,245.19,61.55Z"/><path class="cls-8" d="M222.85,45.77a1.38,1.38,0,1,1,1.38-1.37A1.37,1.37,0,0,1,222.85,45.77Zm0-1.86a.49.49,0,0,0,0,1,.49.49,0,1,0,0-1Z"/><path class="cls-8" d="M222.16,62.55a.5.5,0,0,1-.32-.13.47.47,0,0,1,0-.64l1.32-1.31a.45.45,0,1,1,.63.63l-1.31,1.32A.5.5,0,0,1,222.16,62.55Z"/><path class="cls-8" d="M223.48,62.55a.48.48,0,0,1-.32-.13l-1.32-1.32a.45.45,0,0,1,0-.63.45.45,0,0,1,.64,0l1.31,1.31a.45.45,0,0,1,0,.64A.48.48,0,0,1,223.48,62.55Z"/><path class="cls-8" d="M227.52,40.67a.48.48,0,0,1-.32-.13.47.47,0,0,1,0-.64l1.32-1.31a.43.43,0,0,1,.63,0,.45.45,0,0,1,0,.63l-1.32,1.32A.46.46,0,0,1,227.52,40.67Z"/><path class="cls-8" d="M228.83,40.67a.48.48,0,0,1-.31-.13l-1.32-1.32a.45.45,0,0,1,0-.63.43.43,0,0,1,.63,0l1.32,1.31a.47.47,0,0,1,0,.64A.48.48,0,0,1,228.83,40.67Z"/><path class="cls-12" d="M239.89,62.52a10,10,0,1,1,2.66-3.1"/><path class="cls-8" d="M233.73,65.06a10.52,10.52,0,0,1-10.23-8.23,10.5,10.5,0,1,1,19.44,2.8.45.45,0,0,1-.61.18.45.45,0,0,1-.17-.61,9.55,9.55,0,1,0-2.54,3,.44.44,0,0,1,.62.08.43.43,0,0,1-.08.62A10.25,10.25,0,0,1,236,64.81,10.5,10.5,0,0,1,233.73,65.06Z"/><path class="cls-8" d="M241,62a.43.43,0,0,1-.31-.13.44.44,0,0,1,0-.63,7.55,7.55,0,0,0,.64-.74.45.45,0,0,1,.63-.07A.43.43,0,0,1,242,61a8.82,8.82,0,0,1-.7.81A.43.43,0,0,1,241,62Z"/><path class="cls-15" d="M243.79,54.65a10.17,10.17,0,0,0-.23-2.25,10,10,0,0,0-19.85,2.48,32.46,32.46,0,0,1,10.39-1.59A33.14,33.14,0,0,1,243.79,54.65Z"/><path class="cls-8" d="M223.71,55.32a.38.38,0,0,1-.25-.08.46.46,0,0,1-.2-.35A10.5,10.5,0,0,1,244,52.3a10.65,10.65,0,0,1,.23,2.35.44.44,0,0,1-.18.36.42.42,0,0,1-.39.06,33.07,33.07,0,0,0-9.56-1.33,32.11,32.11,0,0,0-10.25,1.56A.32.32,0,0,1,223.71,55.32Zm10-10.35a9.78,9.78,0,0,0-2.07.22,9.63,9.63,0,0,0-7.53,9.07,33.45,33.45,0,0,1,9.95-1.42,34.18,34.18,0,0,1,9.23,1.21,9.77,9.77,0,0,0-.21-1.56A9.61,9.61,0,0,0,233.75,45Z"/><path class="cls-12" d="M235.35,50.72a9.15,9.15,0,0,1,4.21-2.45,7.92,7.92,0,0,1,.48,3,.77.77,0,0,1-.82.73,10.14,10.14,0,0,1-3.87-.89A.24.24,0,0,1,235.35,50.72Z"/><path class="cls-8" d="M239.27,52.48h-.07a10.56,10.56,0,0,1-4.07-1,.7.7,0,0,1-.35-.58.69.69,0,0,1,.27-.55,9.56,9.56,0,0,1,4.38-2.55.45.45,0,0,1,.55.26,8.43,8.43,0,0,1,.5,3.23,1.23,1.23,0,0,1-1.21,1.15Zm-3.46-1.61a10.36,10.36,0,0,0,3.44.71.27.27,0,0,0,.23-.08.3.3,0,0,0,.11-.23,7.37,7.37,0,0,0-.31-2.44A8.77,8.77,0,0,0,235.81,50.87Zm-.46-.15Z"/><path class="cls-12" d="M232,50.72a9.15,9.15,0,0,0-4.21-2.45,7.92,7.92,0,0,0-.48,3,.77.77,0,0,0,.82.73,10.14,10.14,0,0,0,3.87-.89A.24.24,0,0,0,232,50.72Z"/><path class="cls-8" d="M228,52.48a1.23,1.23,0,0,1-1.21-1.15,8.43,8.43,0,0,1,.5-3.23.45.45,0,0,1,.55-.26,9.56,9.56,0,0,1,4.38,2.55.67.67,0,0,1-.08,1.13,10.56,10.56,0,0,1-4.07,1Zm0-3.65a7.41,7.41,0,0,0-.31,2.44.3.3,0,0,0,.11.23.27.27,0,0,0,.23.08,10.36,10.36,0,0,0,3.44-.71A8.77,8.77,0,0,0,228,48.83Zm3.71,2.28Z"/><path class="cls-8" d="M238.12,51.06c0-.5-.2-.9-.45-.9s-.44.4-.44.9.2.89.44.89S238.12,51.55,238.12,51.06Z"/><path class="cls-8" d="M230.08,51.06c0-.5-.2-.9-.44-.9s-.45.4-.45.9.2.89.45.89S230.08,51.55,230.08,51.06Z"/><path class="cls-8" d="M92.11,56.44a.93.93,0,1,1-.93-.93A.93.93,0,0,1,92.11,56.44Z"/><path class="cls-8" d="M37.38,75H35.54a.72.72,0,1,1,0-1.43h1.84a.72.72,0,1,1,0,1.43Z"/><path class="cls-8" d="M33.07,75H31.22a.72.72,0,0,1,0-1.43h1.85a.72.72,0,1,1,0,1.43Z"/><path class="cls-8" d="M34.3,73.73a.71.71,0,0,1-.71-.71V71.17a.72.72,0,1,1,1.43,0V73A.71.71,0,0,1,34.3,73.73Z"/><path class="cls-8" d="M34.3,78.05a.71.71,0,0,1-.71-.72V75.48a.72.72,0,1,1,1.43,0v1.85A.72.72,0,0,1,34.3,78.05Z"/><path class="cls-8" d="M89.61,77.35a2.21,2.21,0,1,1,2.21-2.21A2.22,2.22,0,0,1,89.61,77.35Zm0-3a.78.78,0,0,0-.78.78.78.78,0,0,0,1.56,0A.78.78,0,0,0,89.61,74.36Z"/><path class="cls-10" d="M76.19,59.79l.7-7a17.59,17.59,0,0,1,4.4-10l8-8.94L88.54,46a17.51,17.51,0,0,1-3.32,9.24l-4.71,6.49Z"/><path class="cls-8" d="M80.51,62.44a.72.72,0,0,1-.29-.06L75.9,60.45a.72.72,0,0,1-.43-.73l.71-7a18.1,18.1,0,0,1,4.58-10.39l8-9a.72.72,0,0,1,1.25.53l-.76,12.19a18.3,18.3,0,0,1-3.46,9.62l-4.71,6.48A.72.72,0,0,1,80.51,62.44ZM77,59.35l3.32,1.49,4.37-6A16.79,16.79,0,0,0,87.83,46l.63-10.13-6.64,7.4a16.8,16.8,0,0,0-4.22,9.58Z"/><path class="cls-9" d="M76.9,60.11S81.3,46.43,82.57,45l2.57-3a.74.74,0,0,1,1.3.53l-.29,4C86,48.3,79.36,61.21,79.36,61.21Z"/><path class="cls-8" d="M79.36,61.93a.72.72,0,0,1-.29-.06l-2.46-1.1a.71.71,0,0,1-.39-.88C77,57.58,80.73,46,82,44.5l2.57-3a1.45,1.45,0,0,1,2.55,1.06l-.29,4c-.14,1.78-5.74,12.73-6.86,14.91A.72.72,0,0,1,79.36,61.93Zm-1.58-2.21,1.25.56c3.1-6.05,6.32-12.77,6.4-13.76l.3-4-2.62,2.95C82.29,46.39,79.49,54.45,77.78,59.72Z"/><path class="cls-10" d="M67.47,59.79l-.7-7a17.59,17.59,0,0,0-4.4-10l-8-8.94L55.11,46a17.52,17.52,0,0,0,3.33,9.24l4.71,6.49Z"/><path class="cls-8" d="M63.15,62.44a.72.72,0,0,1-.58-.29l-4.71-6.48a18.3,18.3,0,0,1-3.46-9.62l-.76-12.19a.72.72,0,0,1,1.25-.53l8,9a18.16,18.16,0,0,1,4.58,10.39l.7,7a.73.73,0,0,1-.42.73l-4.32,1.93A.72.72,0,0,1,63.15,62.44ZM55.2,35.83,55.83,46A16.79,16.79,0,0,0,59,54.82l4.37,6,3.31-1.49-.65-6.54a16.67,16.67,0,0,0-4.22-9.58Z"/><path class="cls-9" d="M66.76,60.11S62.36,46.43,61.09,45l-2.58-3a.73.73,0,0,0-1.29.53l.29,4c.14,1.72,6.79,14.63,6.79,14.63Z"/><path class="cls-8" d="M64.3,61.93a.72.72,0,0,1-.64-.39c-1.12-2.18-6.72-13.13-6.86-14.91l-.3-4a1.44,1.44,0,0,1,.9-1.45,1.42,1.42,0,0,1,1.66.39l2.57,3c1.3,1.5,5.07,13.08,5.81,15.39a.72.72,0,0,1-.39.88l-2.46,1.1A.75.75,0,0,1,64.3,61.93ZM58,42.48l.26,4.05c.08,1,3.29,7.7,6.39,13.75l1.26-.56c-1.71-5.27-4.51-13.33-5.33-14.28Z"/><path class="cls-10" d="M61.1,72.46A14.2,14.2,0,1,1,65.69,76"/><path class="cls-8" d="M71.83,78.07a14.81,14.81,0,0,1-6.45-1.47.7.7,0,0,1-.33-.95.71.71,0,0,1,1-.34A13.44,13.44,0,1,0,61.64,72a.72.72,0,1,1-1.08.94,14.92,14.92,0,1,1,15.31,4.58A15.09,15.09,0,0,1,71.83,78.07Z"/><path class="cls-8" d="M63.73,75.53a.67.67,0,0,1-.41-.13,15,15,0,0,1-1.21-.93.71.71,0,0,1-.07-1,.72.72,0,0,1,1-.08,12.07,12.07,0,0,0,1.08.84.72.72,0,0,1-.4,1.31Z"/><path class="cls-8" d="M51.25,46.41a.93.93,0,0,1-1.85,0,.93.93,0,1,1,1.85,0Z"/><path class="cls-8" d="M74.25,69.41a4.33,4.33,0,0,1-2.8-1.06A4.27,4.27,0,0,1,67,69a.71.71,0,0,1-.32-1,.73.73,0,0,1,1-.32A3,3,0,0,0,71,66.85a.73.73,0,0,1,.56-.21.71.71,0,0,1,.52.29,2.88,2.88,0,0,0,3.35.81.72.72,0,1,1,.53,1.33A4.54,4.54,0,0,1,74.25,69.41Z"/><path class="cls-9" d="M82.13,61c1,3.87-.16,6.91-3.54,4.88-1.8-1.08-2.26-2.74-2.26-4.88s1.08-3.87,2.42-3.87S81.61,58.88,82.13,61Z"/><path class="cls-8" d="M80.5,67.22a4.43,4.43,0,0,1-2.28-.75c-2.31-1.38-2.6-3.66-2.6-5.49,0-2.57,1.37-4.58,3.13-4.58,2,0,3.53,2.21,4.08,4.41.7,2.79.36,5-.9,6A2.41,2.41,0,0,1,80.5,67.22Zm-1.75-9.39c-.8,0-1.7,1.29-1.7,3.15,0,2.21.55,3.45,1.91,4.26.54.33,1.53.81,2.11.38s1-2,.37-4.47C81,59.32,79.77,57.83,78.75,57.83Z"/><path class="cls-19" d="M79.94,61.8c0-1.49-.75-2.7-1.69-2.7s-1.69,1.21-1.69,2.7.76,2.71,1.69,2.71S79.94,63.3,79.94,61.8Z"/><path class="cls-8" d="M78.25,65.22c-1.35,0-2.41-1.5-2.41-3.42s1.06-3.42,2.41-3.42,2.41,1.5,2.41,3.42S79.6,65.22,78.25,65.22Zm0-5.41c-.4,0-1,.78-1,2s.57,2,1,2,1-.77,1-2S78.65,59.81,78.25,59.81Z"/><path class="cls-12" d="M80.62,59.44a1,1,0,1,1-1-1A1,1,0,0,1,80.62,59.44Z"/><path class="cls-9" d="M60.85,61c-1,3.87.16,6.91,3.54,4.88,1.8-1.08,2.26-2.74,2.26-4.88s-1.08-3.87-2.42-3.87S61.37,58.88,60.85,61Z"/><path class="cls-8" d="M62.48,67.22a2.35,2.35,0,0,1-1.42-.45c-1.27-.94-1.61-3.17-.91-6,.55-2.2,2.13-4.41,4.08-4.41,1.76,0,3.14,2,3.14,4.58,0,1.83-.3,4.11-2.61,5.49A4.43,4.43,0,0,1,62.48,67.22Zm1.75-9.39c-1,0-2.23,1.49-2.69,3.32-.61,2.43-.23,4,.37,4.47s1.57-.05,2.11-.38c1.36-.81,1.91-2,1.91-4.26C65.93,59.12,65,57.83,64.23,57.83ZM60.85,61Z"/><path class="cls-19" d="M66.42,61.8c0-1.49-.76-2.7-1.69-2.7S63,60.31,63,61.8s.76,2.71,1.69,2.71S66.42,63.3,66.42,61.8Z"/><path class="cls-8" d="M64.73,65.22c-1.35,0-2.41-1.5-2.41-3.42s1.06-3.42,2.41-3.42,2.41,1.5,2.41,3.42S66.08,65.22,64.73,65.22Zm0-5.41c-.4,0-1,.78-1,2s.57,2,1,2,1-.77,1-2S65.13,59.81,64.73,59.81Z"/><path class="cls-12" d="M64.39,59.44a1,1,0,0,1-2,0,1,1,0,1,1,2,0Z"/><path class="cls-8" d="M64.85,40.48a.72.72,0,0,1-.51-1.22l2.11-2.11a.72.72,0,0,1,1,0,.71.71,0,0,1,0,1l-2.12,2.11A.7.7,0,0,1,64.85,40.48Z"/><path class="cls-8" d="M67,40.48a.73.73,0,0,1-.51-.21l-2.11-2.11a.71.71,0,0,1,1-1l2.12,2.11a.71.71,0,0,1,0,1A.73.73,0,0,1,67,40.48Z"/><path class="cls-8" d="M241.32,85.26a.72.72,0,0,1-.54-.23.76.76,0,0,1,0-1.08l1.67-1.67a.77.77,0,1,1,1.09,1.08L241.87,85A.76.76,0,0,1,241.32,85.26Z"/><path class="cls-8" d="M237.42,89.16a.79.79,0,0,1-.55-.22.77.77,0,0,1,0-1.09l1.68-1.67a.77.77,0,1,1,1.09,1.09L238,88.94A.75.75,0,0,1,237.42,89.16Z"/><path class="cls-8" d="M239.09,85.26a.72.72,0,0,1-.54-.23l-1.68-1.67A.77.77,0,0,1,238,82.28L239.64,84a.76.76,0,0,1,0,1.08A.74.74,0,0,1,239.09,85.26Z"/><path class="cls-8" d="M243,89.16a.76.76,0,0,1-.54-.22l-1.67-1.67a.77.77,0,1,1,1.09-1.09l1.67,1.67a.77.77,0,0,1-.55,1.31Z"/><path class="cls-8" d="M271.8,92.2a2.37,2.37,0,1,1,2.37-2.37A2.37,2.37,0,0,1,271.8,92.2Zm0-3.2a.83.83,0,1,0,0,1.66.83.83,0,0,0,0-1.66Z"/><path class="cls-8" d="M265.91,70.84a1,1,0,1,1-1-1A1,1,0,0,1,265.91,70.84Z"/><path class="cls-8" d="M254.46,76a.77.77,0,0,1-.54-1.31l2.26-2.27a.77.77,0,1,1,1.09,1.09L255,75.72A.76.76,0,0,1,254.46,76Z"/><path class="cls-8" d="M256.73,76a.78.78,0,0,1-.55-.23l-2.26-2.26a.77.77,0,0,1,0-1.09.76.76,0,0,1,1.08,0l2.27,2.27a.76.76,0,0,1,0,1.08A.78.78,0,0,1,256.73,76Z"/><path class="cls-11" d="M249.73,128.16a49.23,49.23,0,0,1-16.72.6c-11.48-1.68-12.84-3.14-13.42-5.24a8.35,8.35,0,0,1,0-4.49,53,53,0,0,1,2.1-5.76,13.11,13.11,0,0,0,.75-7.87l-1.43-6.65a2.61,2.61,0,0,1,4.47-2.32l1.91,2.07a1.76,1.76,0,0,0,2.58,0l1.87-2a3.41,3.41,0,0,1,2.77-1.08l1.39.1a3.44,3.44,0,0,1,2.52,1.42,2,2,0,0,0,2.24.7l.83-.3A5.21,5.21,0,0,1,247.52,99l1.54,2a3.87,3.87,0,0,0,3.67,1.43l1.57-.26a4.31,4.31,0,0,1,4.53,6.25l-1.67,3.2a6,6,0,0,0-.57,4,6,6,0,0,0,1.27,2.66l1.79,2.15a3.44,3.44,0,0,1-1.43,5.43c-.58.22-1.27.47-2.05.72"/><path class="cls-1" d="M239.44,130a45.35,45.35,0,0,1-6.54-.47c-11.18-1.63-13.3-3.05-14.05-5.8a9.17,9.17,0,0,1,.05-4.9A53.53,53.53,0,0,1,221,113a12.26,12.26,0,0,0,.71-7.41l-1.44-6.65a3.38,3.38,0,0,1,5.79-3L228,98a1,1,0,0,0,1.44,0l1.87-2a4.17,4.17,0,0,1,3.4-1.33l1.39.11a4.15,4.15,0,0,1,3.08,1.74,1.18,1.18,0,0,0,1.35.41l.83-.3a6,6,0,0,1,6.75,1.93l1.54,2a3.09,3.09,0,0,0,3,1.14l1.56-.26a5.08,5.08,0,0,1,5.34,7.37l-1.67,3.2a5.25,5.25,0,0,0-.5,3.44,5.32,5.32,0,0,0,1.11,2.32l1.79,2.15a4.21,4.21,0,0,1-1.75,6.64c-.59.23-1.29.47-2.08.73a.77.77,0,0,1-.48-1.46c.77-.25,1.45-.49,2-.71a2.68,2.68,0,0,0,1.11-4.22l-1.79-2.15a6.74,6.74,0,0,1-1.43-3,6.67,6.67,0,0,1,.64-4.45l1.67-3.2a3.59,3.59,0,0,0-.3-3.78,3.54,3.54,0,0,0-3.42-1.37l-1.57.27a4.67,4.67,0,0,1-4.41-1.71l-1.54-2A4.36,4.36,0,0,0,244.82,98a4.43,4.43,0,0,0-2.92,0l-.83.3a2.73,2.73,0,0,1-3.13-1,2.61,2.61,0,0,0-1.95-1.1l-1.39-.11a2.67,2.67,0,0,0-2.15.84l-1.87,2a2.54,2.54,0,0,1-1.85.81h0a2.54,2.54,0,0,1-1.85-.81L225,97a1.85,1.85,0,0,0-3.16,1.64l1.44,6.64a13.88,13.88,0,0,1-.8,8.34,52.49,52.49,0,0,0-2.07,5.67,7.61,7.61,0,0,0,0,4.07c.47,1.72,1.66,3.06,12.79,4.69a48.18,48.18,0,0,0,16.46-.59.76.76,0,0,1,.3,1.5A52.67,52.67,0,0,1,239.44,130Z"/><path class="cls-11" d="M254,127.13l-1.19.32"/><path class="cls-1" d="M252.82,128.22a.78.78,0,0,1-.75-.58.76.76,0,0,1,.56-.93l1.17-.32a.77.77,0,1,1,.42,1.48c-.39.11-.79.22-1.21.32A.63.63,0,0,1,252.82,128.22Z"/><path class="cls-1" d="M244.77,103.81a.72.72,0,1,1-.71-.71A.71.71,0,0,1,244.77,103.81Z"/><path class="cls-1" d="M235.86,102.74a.72.72,0,1,1-.71-.71A.71.71,0,0,1,235.86,102.74Z"/><path class="cls-1" d="M244.42,107.48A54.23,54.23,0,0,1,231,106a.77.77,0,1,1,.41-1.48,56.76,56.76,0,0,0,15.45,1.4.77.77,0,1,1,.06,1.53C246.07,107.47,245.23,107.48,244.42,107.48Z"/></svg>