<svg id="Camada_1" data-name="Camada 1" xmlns="http://www.w3.org/2000/svg" viewBox="0 0 300 200"><defs><style>.cls-1{fill:#c5daea;}.cls-2{fill:#7bc7ff;}.cls-3{fill:#33363a;}.cls-4{fill:#ba8663;}.cls-5{fill:#a57555;}.cls-6{fill:#4b6466;}.cls-7{fill:#ed5564;}.cls-8{fill:#12b2b2;}.cls-9{fill:#fff;}.cls-10{fill:#ff8f8f;}.cls-11{fill:#d8e5ea;}.cls-12{fill:#4c241d;}.cls-13{fill:#9adbba;}.cls-14{fill:#c9cdd3;}.cls-15{fill:#f5f7fa;}.cls-16{fill:#333;}.cls-17{fill:#efefa8;}.cls-18{fill:#ffded5;}.cls-19{fill:#6b4f5b;}.cls-20{fill:#9dc1e4;}.cls-21{fill:#e66353;}.cls-22{fill:#05214e;}.cls-23{fill:#266db9;}.cls-24{fill:#fc0;}.cls-25{fill:#1d3974;}.cls-26{fill:#296bb7;}.cls-27{fill:#bcbdc0;}.cls-28{fill:#06214f;}.cls-29{fill:#6ebdf9;}.cls-30{fill:#edebdc;}.cls-31{fill:#ffce56;}.cls-32{font-size:11px;font-family:HelveticaNowText-Regular, Helvetica Now Text ;}.cls-33{letter-spacing:-0.01em;}.cls-34{letter-spacing:-0.03em;}.cls-35{letter-spacing:0em;}.cls-36{letter-spacing:-0.05em;}.cls-37{letter-spacing:-0.02em;}.cls-38{letter-spacing:-0.02em;}</style></defs><title>logo poketMon-r01</title><path class="cls-1" d="M283.05,100.71A26.73,26.73,0,1,1,256.32,74,26.73,26.73,0,0,1,283.05,100.71Z"/><path class="cls-1" d="M86.06,100.66c0,19.1-15.25,34.58-34.05,34.58S18,119.76,18,100.66,33.2,66.08,52,66.08,86.06,81.57,86.06,100.66Z"/><path class="cls-1" d="M192,66.73V58.08a2.39,2.39,0,0,0-2.56-2.16V40.79c0-4.77-4.61-8.64-10.27-8.64l-56.44,0c-5.67,0-10.26,3.88-10.26,8.65l.06,86.47c0,4.77,4.6,8.64,10.27,8.64l56.44,0c5.67,0,10.26-3.88,10.26-8.66l0-43.23a2.39,2.39,0,0,0,2.56-2.16V73.21a2.39,2.39,0,0,0-2.56-2.16V68.89A2.39,2.39,0,0,0,192,66.73Z"/><path class="cls-1" d="M230,71.82A2.17,2.17,0,0,1,227.79,74H194.68a2.17,2.17,0,0,1-2.17-2.17h0a2.17,2.17,0,0,1,2.17-2.16h33.11A2.17,2.17,0,0,1,230,71.82Z"/><path class="cls-1" d="M227.79,75H194.68a3.22,3.22,0,1,1,0-6.43h33.11a3.22,3.22,0,1,1,0,6.43Zm-33.11-4.33a1.12,1.12,0,1,0,0,2.23h33.11a1.12,1.12,0,1,0,0-2.23Z"/><path class="cls-1" d="M213.64,73.59a13.09,13.09,0,0,1-13.1,13.1H194.7a13.09,13.09,0,0,1-13.09-13.1V70.14A13.09,13.09,0,0,1,194.7,57h5.84a13.09,13.09,0,0,1,13.1,13.1Z"/><path class="cls-1" d="M213.64,76.92A13.1,13.1,0,0,1,200.54,90H194.7a13.1,13.1,0,0,1-13.09-13.1V73.46a13.1,13.1,0,0,1,13.09-13.1h5.84a13.1,13.1,0,0,1,13.1,13.1Z"/><path class="cls-1" d="M200.54,87.74H194.7a14.16,14.16,0,0,1-14.14-14.15V70.14A14.16,14.16,0,0,1,194.7,56h5.84a14.16,14.16,0,0,1,14.15,14.15v3.45A14.17,14.17,0,0,1,200.54,87.74ZM194.7,58.09a12.05,12.05,0,0,0-12,12v3.45a12.05,12.05,0,0,0,12,12h5.84a12.06,12.06,0,0,0,12.05-12V70.14a12.06,12.06,0,0,0-12.05-12Z"/><polygon class="cls-1" points="197.62 100.5 154.25 113.53 154.25 136.35 240.99 136.35 240.99 113.53 197.62 100.5"/><polygon class="cls-1" points="197.62 100.5 154.25 113.53 154.25 136.35 240.99 136.35 240.99 113.53 197.62 100.5"/><polygon class="cls-1" points="197.62 112.53 154.25 113.53 154.25 136.35 240.99 136.35 240.99 113.53 197.62 112.53"/><polygon class="cls-1" points="197.62 111.89 154.25 112.91 154.25 136.35 240.99 136.35 240.99 112.91 197.62 111.89"/><path class="cls-1" d="M241,137.4H154.25a1,1,0,0,1-1.05-1.05V113.53a1.05,1.05,0,0,1,.75-1l43.37-13a1.06,1.06,0,0,1,.61,0l43.36,13a1,1,0,0,1,.75,1v22.82A1,1,0,0,1,241,137.4Zm-85.69-2.1h84.64v-21L197.62,101.6,155.3,114.31Z"/><polygon class="cls-1" points="188.06 88.82 186.22 110.46 197.62 116.14 209.03 110.46 207.19 88.82 188.06 88.82"/><path class="cls-1" d="M197.62,118.24a1,1,0,0,1-.53-.14l-11.41-6.74a1,1,0,0,1-.51-1L187,88.74a1.06,1.06,0,0,1,1.05-1h19.13a1.06,1.06,0,0,1,1.05,1l1.84,21.63a1.06,1.06,0,0,1-.51,1l-11.41,6.74A1.14,1.14,0,0,1,197.62,118.24Zm-10.3-8.35,10.3,6.08,10.31-6.08-1.7-20H189Z"/><polygon class="cls-1" points="188.06 88.82 186.22 110.46 197.62 112.53 209.03 110.46 207.19 88.82 188.06 88.82"/><path class="cls-1" d="M197.62,114.08l-.23,0L186,111.48a1,1,0,0,1-.81-1.11L187,88.74a1,1,0,0,1,1-1h19.14a1.06,1.06,0,0,1,1.05,1l1.84,21.63a1,1,0,0,1-.82,1.11l-11.41,2.57A.85.85,0,0,1,197.62,114.08Zm-10.28-4.44L197.62,112l10.29-2.31-1.68-19.77H189Z"/><path class="cls-1" d="M182.3,85a5.42,5.42,0,1,1,0-10.83"/><path class="cls-1" d="M213,74.15A5.42,5.42,0,1,1,213,85"/><path class="cls-1" d="M207.89,69.15l-9.35-1.66a5.12,5.12,0,0,0-1.83,0l-9.35,1.66a5.23,5.23,0,0,0-4.31,5.14V89.7a5.19,5.19,0,0,0,1.92,4l9.35,7.65a5.22,5.22,0,0,0,6.61,0l9.35-7.65a5.22,5.22,0,0,0,1.92-4V74.29A5.23,5.23,0,0,0,207.89,69.15Z"/><path class="cls-1" d="M207.89,69.15l-9.35,4.54a5.12,5.12,0,0,0-1.83,0l-9.35-4.54a5.23,5.23,0,0,0-4.31,5.14V89.7a5.19,5.19,0,0,0,1.92,4l9.35,7.65a5.22,5.22,0,0,0,6.61,0l9.35-7.65a5.22,5.22,0,0,0,1.92-4V74.29A5.23,5.23,0,0,0,207.89,69.15Z"/><path class="cls-1" d="M219.42,79.57A6.47,6.47,0,0,0,213,73.11a1,1,0,0,0-.55.15l-.2,0a1,1,0,0,0-1,1.05V89.7a4.17,4.17,0,0,1-1.53,3.23l-9.36,7.65a4.29,4.29,0,0,1-5.28,0l-9.35-7.65a4.17,4.17,0,0,1-1.53-3.23V74.29a1,1,0,0,0-1-1.05l-.2,0a1,1,0,0,0-.55-.15A6.46,6.46,0,0,0,182,86V89.7a6.24,6.24,0,0,0,2.3,4.85l9.35,7.65a6.26,6.26,0,0,0,7.94,0L211,94.55a6.24,6.24,0,0,0,2.3-4.85V86A6.47,6.47,0,0,0,219.42,79.57Zm-41.49,0A4.36,4.36,0,0,1,182,75.22v8.71A4.38,4.38,0,0,1,177.93,79.57Zm35.32,4.35v-8.7a4.36,4.36,0,0,1,0,8.7Z"/><path class="cls-1" d="M161.76,137.16a1.05,1.05,0,0,1-1-.8L157,121.45a1,1,0,1,1,2-.51l3.74,14.91a1.05,1.05,0,0,1-.77,1.28A1.07,1.07,0,0,1,161.76,137.16Z"/><path class="cls-1" d="M233.49,137.16a1.15,1.15,0,0,1-.26,0,1.05,1.05,0,0,1-.76-1.28l3.73-14.91a1.05,1.05,0,0,1,2,.51l-3.73,14.91A1.05,1.05,0,0,1,233.49,137.16Z"/><path class="cls-1" d="M205.05,54.45H190.2a10.27,10.27,0,0,0-10.28,10.27v9.71h35.41V64.72A10.27,10.27,0,0,0,205.05,54.45Z"/><path class="cls-1" d="M215.33,75.48H179.92a1,1,0,0,1-1-1V64.72A11.34,11.34,0,0,1,190.2,53.4h14.85a11.34,11.34,0,0,1,11.33,11.32v9.71A1,1,0,0,1,215.33,75.48ZM181,73.38h33.31V64.72a9.23,9.23,0,0,0-9.23-9.22H190.2A9.23,9.23,0,0,0,181,64.72Z"/><path class="cls-1" d="M201.82,65.75h-8.4a1,1,0,0,0-1,1v3.26a1,1,0,0,0,1,1h8.4a1,1,0,0,0,1.05-1V66.8A1,1,0,0,0,201.82,65.75Z"/><path class="cls-1" d="M177.72,112.82a1,1,0,0,1-.2-2.08l9-1.75a1,1,0,0,1,.4,2.06l-9,1.75Z"/><path class="cls-1" d="M217.53,112.82l-.2,0-9-1.75a1.05,1.05,0,1,1,.41-2.06l9,1.75a1,1,0,0,1-.2,2.08Z"/><path class="cls-1" d="M184.94,131.11a12.69,12.69,0,0,1,25.37,0"/><path class="cls-1" d="M184.94,131.11a12.69,12.69,0,1,1,25.37,0"/><path class="cls-1" d="M197.62,117.38a13.75,13.75,0,0,0-13.73,13.73,1,1,0,0,0,1.05,1h25.37a1,1,0,0,0,1.05-1A13.75,13.75,0,0,0,197.62,117.38Zm0,2.1a11.66,11.66,0,0,1,11.59,10.58H186A11.64,11.64,0,0,1,197.62,119.48Z"/><path class="cls-1" d="M200.59,128.17a4.19,4.19,0,1,1-5.93,0A4.19,4.19,0,0,1,200.59,128.17Z"/><path class="cls-1" d="M194.66,134.1a4.19,4.19,0,0,1,5.93-5.93"/><path class="cls-1" d="M197.62,136.38a5.24,5.24,0,1,1,3.71-8.95h0a5.24,5.24,0,0,1-3.71,8.95Zm0-8.39a3.09,3.09,0,0,0-2.22.93,3.14,3.14,0,0,0,2.22,5.36h0a3.16,3.16,0,0,0,2.22-.92,3.14,3.14,0,0,0,0-4.44h0A3.16,3.16,0,0,0,197.62,128Z"/><path class="cls-1" d="M85.18,98.83A15.74,15.74,0,0,0,89.78,87a15.76,15.76,0,0,0-16.45,16.45A15.74,15.74,0,0,0,85.18,98.83Z"/><path class="cls-1" d="M74,104.53h0l-.72,0a1.09,1.09,0,0,1-1-1A16.84,16.84,0,0,1,89.82,85.9a1.07,1.07,0,0,1,1,1A17,17,0,0,1,86,99.6,16.77,16.77,0,0,1,74,104.53Zm14.7-16.48a14.66,14.66,0,0,0-14.3,14.31,14.65,14.65,0,0,0,10-4.29A14.83,14.83,0,0,0,88.71,88.05Z"/><path class="cls-1" d="M117.89,98.83A15.74,15.74,0,0,1,113.29,87a15.76,15.76,0,0,1,16.45,16.45A15.74,15.74,0,0,1,117.89,98.83Z"/><path class="cls-1" d="M129.06,104.53a16.77,16.77,0,0,1-11.94-4.93,17,17,0,0,1-4.91-12.66,1.07,1.07,0,0,1,1-1,16.82,16.82,0,0,1,17.57,17.57,1.07,1.07,0,0,1-1,1Zm-14.7-16.48a14.83,14.83,0,0,0,4.29,10,14.65,14.65,0,0,0,10,4.29,14.83,14.83,0,0,0-4.29-10A14.65,14.65,0,0,0,114.36,88.05Z"/><polygon class="cls-1" points="101.54 106.7 58.65 114.71 62.41 136.25 140.66 136.25 144.42 114.71 101.54 106.7"/><polygon class="cls-1" points="101.54 106.7 58.65 114.71 62.41 136.25 140.66 136.25 144.42 114.71 101.54 106.7"/><polygon class="cls-1" points="100.45 108.02 58.65 114.71 62.41 136.25 140.66 136.25 144.42 114.71 100.45 108.02"/><path class="cls-1" d="M140.66,137.33H62.41a1.08,1.08,0,0,1-1.07-.9L57.59,114.9a1.08,1.08,0,0,1,.86-1.25l42.89-8a1.34,1.34,0,0,1,.4,0l42.88,8a1.07,1.07,0,0,1,.86,1.25l-3.75,21.53A1.08,1.08,0,0,1,140.66,137.33Zm-77.34-2.17h76.43l3.42-19.58-41.63-7.78L59.9,115.58Z"/><polygon class="cls-1" points="91.68 89.26 91.58 111.55 101.53 135.75 111.49 111.55 111.4 89.26 91.68 89.26"/><polygon class="cls-1" points="108.08 119.83 94.99 119.83 101.35 135.3 101.72 135.3 108.08 119.83"/><path class="cls-1" d="M101.72,136.38h-.37a1.08,1.08,0,0,1-1-.67L94,120.24a1.07,1.07,0,0,1,.1-1,1.08,1.08,0,0,1,.9-.48h13.09a1.08,1.08,0,0,1,.9.48,1.07,1.07,0,0,1,.1,1l-6.36,15.47A1.08,1.08,0,0,1,101.72,136.38ZM96.6,120.92l4.94,12,4.93-12Z"/><polygon class="cls-1" points="91.68 89.26 91.58 111.55 101.53 113.69 111.49 111.55 111.4 89.26 91.68 89.26"/><path class="cls-1" d="M111.4,89.26H91.68L90.6,102l7.53,6.17a5.4,5.4,0,0,0,6.81,0l7.54-6.17Z"/><path class="cls-1" d="M101.54,136.83h0a1.07,1.07,0,0,1-1-.67l-10-24.2a1.15,1.15,0,0,1-.08-.41l.1-22.3a1.07,1.07,0,0,1,1.08-1.07H111.4a1.08,1.08,0,0,1,1.08,1.07l.09,22.3a1.15,1.15,0,0,1-.08.41l-9.95,24.2A1.09,1.09,0,0,1,101.54,136.83Zm-8.87-25.49,8.87,21.57,8.87-21.57-.09-21H92.75Z"/><path class="cls-1" d="M119.79,73.27c0,9.16-8.17,16.59-18.25,16.59S83.28,82.43,83.28,73.27s8.17-18.75,18.26-18.75S119.79,64.1,119.79,73.27Z"/><path class="cls-1" d="M101.54,90.94c-10.67,0-19.35-7.93-19.35-17.67,0-9.36,8.28-19.83,19.35-19.83,9.13,0,19.34,8.48,19.34,19.83C120.88,83,112.2,90.94,101.54,90.94Zm0-35.34c-8.11,0-17.18,7.55-17.18,17.67,0,8.55,7.7,15.5,17.18,15.5s17.17-7,17.17-15.5C118.71,63.15,109.64,55.6,101.54,55.6Z"/><path class="cls-1" d="M87.1,87.11a5.1,5.1,0,0,1,0-10.2"/><path class="cls-1" d="M87.1,88.19a6.18,6.18,0,0,1,0-12.36,1.08,1.08,0,1,1,0,2.16,4,4,0,0,0,0,8,1.08,1.08,0,1,1,0,2.16Z"/><path class="cls-1" d="M116,76.91a5.1,5.1,0,0,1,0,10.2"/><path class="cls-1" d="M116,88.19A1.08,1.08,0,0,1,116,86a4,4,0,0,0,0-8,1.08,1.08,0,0,1,0-2.16,6.18,6.18,0,1,1,0,12.36Z"/><path class="cls-1" d="M112,71.24c-1.75-.44-3.71-.61-5.29-.95a30.69,30.69,0,0,0-4.67-.75,29.93,29.93,0,0,0-6.46.58c-3.8.62-9.06.82-9.06,6V90.16a5.4,5.4,0,0,0,2,4.16L98.13,104a5.36,5.36,0,0,0,6.81,0l9.64-9.69a5.37,5.37,0,0,0,2-4.16V76.09C116.55,73.05,114.48,71.87,112,71.24Z"/><path class="cls-1" d="M101.54,106.31a6.5,6.5,0,0,1-4.1-1.46.6.6,0,0,0-.08-.08l-9.6-9.65a6.44,6.44,0,0,1-2.32-5V76.09a6.45,6.45,0,0,1,5.33-6.36L100.4,68a6.6,6.6,0,0,1,2.26,0l9.64,1.72a6.45,6.45,0,0,1,5.33,6.36V90.16a6.41,6.41,0,0,1-2.32,5l-9.6,9.65-.08.08A6.5,6.5,0,0,1,101.54,106.31Zm-2.68-3.1a4.41,4.41,0,0,0,5.36,0l9.59-9.65.08-.07a4.31,4.31,0,0,0,1.58-3.33V76.09a4.28,4.28,0,0,0-3.54-4.23l-9.64-1.72a4.78,4.78,0,0,0-1.51,0l-9.63,1.72a4.28,4.28,0,0,0-3.55,4.23V90.16a4.31,4.31,0,0,0,1.58,3.33.27.27,0,0,1,.08.07Z"/><path class="cls-1" d="M70.56,137.33a1.08,1.08,0,0,1-1-.62l-3.85-8.16a1.08,1.08,0,1,1,2-.92l3.84,8.15a1.07,1.07,0,0,1-.51,1.44A1.11,1.11,0,0,1,70.56,137.33Z"/><path class="cls-1" d="M132.51,137.33a1.11,1.11,0,0,1-.46-.11,1.07,1.07,0,0,1-.51-1.44l3.84-8.15a1.08,1.08,0,1,1,2,.92l-3.85,8.16A1.08,1.08,0,0,1,132.51,137.33Z"/><path class="cls-1" d="M112.48,128.87a9,9,0,1,1,18.07,0"/><path class="cls-1" d="M112.48,128.87a9,9,0,1,1,18.07,0"/><path class="cls-1" d="M130.55,130a1.08,1.08,0,0,1-1.08-1.08,8,8,0,0,0-15.91,0,1.09,1.09,0,0,1-2.17,0,10.12,10.12,0,1,1,20.24,0A1.08,1.08,0,0,1,130.55,130Z"/><path class="cls-1" d="M130.55,130H112.48a1.08,1.08,0,1,1,0-2.16h18.07a1.08,1.08,0,0,1,0,2.16Z"/><circle class="cls-1" cx="121.51" cy="128.89" r="2.99"/><path class="cls-1" d="M119.4,131a3,3,0,1,1,4.23-4.22"/><path class="cls-1" d="M121.51,133a4.07,4.07,0,0,1-2.87-7,4.07,4.07,0,0,1,6.94,2.88,4.06,4.06,0,0,1-4.07,4.07Zm0-6a1.91,1.91,0,0,0-1.34,3.26,2,2,0,0,0,2.69,0,1.91,1.91,0,0,0-1.35-3.26Z"/><path class="cls-2" d="M251.1,71.82A2.17,2.17,0,0,1,248.94,74H215.82a2.17,2.17,0,0,1-2.16-2.17h0a2.16,2.16,0,0,1,2.16-2.16h33.12a2.16,2.16,0,0,1,2.16,2.16Z"/><path class="cls-3" d="M248.94,75H215.82a3.22,3.22,0,0,1,0-6.43h33.12a3.22,3.22,0,0,1,0,6.43Zm-33.12-4.33a1.12,1.12,0,0,0,0,2.23h33.12a1.12,1.12,0,0,0,0-2.23Z"/><path class="cls-4" d="M234.79,73.59a13.1,13.1,0,0,1-13.1,13.1h-5.84a13.09,13.09,0,0,1-13.1-13.1V70.14A13.09,13.09,0,0,1,215.85,57h5.84a13.1,13.1,0,0,1,13.1,13.1Z"/><path class="cls-5" d="M234.79,76.92A13.11,13.11,0,0,1,221.69,90h-5.84a13.1,13.1,0,0,1-13.1-13.1V73.46a13.1,13.1,0,0,1,13.1-13.1h5.84a13.11,13.11,0,0,1,13.1,13.1Z"/><path class="cls-3" d="M221.69,87.74h-5.84A14.17,14.17,0,0,1,201.7,73.59V70.14A14.17,14.17,0,0,1,215.85,56h5.84a14.17,14.17,0,0,1,14.15,14.15v3.45A14.17,14.17,0,0,1,221.69,87.74Zm-5.84-29.65a12.06,12.06,0,0,0-12,12v3.45a12.06,12.06,0,0,0,12,12h5.84a12.06,12.06,0,0,0,12.05-12V70.14a12.06,12.06,0,0,0-12.05-12Z"/><polygon class="cls-6" points="218.77 100.5 175.4 113.53 175.4 136.35 262.14 136.35 262.14 113.53 218.77 100.5"/><polygon class="cls-7" points="218.77 100.5 175.4 113.53 175.4 136.35 262.14 136.35 262.14 113.53 218.77 100.5"/><polygon class="cls-8" points="218.77 112.53 175.4 113.53 175.4 136.35 262.14 136.35 262.14 113.53 218.77 112.53"/><polygon class="cls-7" points="218.77 111.89 175.4 112.91 175.4 136.35 262.14 136.35 262.14 112.91 218.77 111.89"/><path class="cls-3" d="M262.14,137.4H175.4a1,1,0,0,1-1.05-1.05V113.53a1,1,0,0,1,.75-1l43.37-13a1,1,0,0,1,.6,0l43.37,13a1.05,1.05,0,0,1,.75,1v22.82A1,1,0,0,1,262.14,137.4Zm-85.69-2.1h84.64v-21L218.77,101.6l-42.32,12.71Z"/><polygon class="cls-3" points="209.2 88.82 207.36 110.46 218.77 116.14 230.18 110.46 228.34 88.82 209.2 88.82"/><path class="cls-3" d="M218.77,118.24a1,1,0,0,1-.54-.14l-11.4-6.74a1.05,1.05,0,0,1-.52-1l1.84-21.63a1.06,1.06,0,0,1,1-1h19.14a1,1,0,0,1,1,1l1.84,21.63a1,1,0,0,1-.51,1L219.3,118.1A1.1,1.1,0,0,1,218.77,118.24Zm-10.31-8.35L218.77,116l10.31-6.08-1.71-20H210.16Z"/><polygon class="cls-9" points="209.2 88.82 207.36 110.46 218.77 112.53 230.18 110.46 228.34 88.82 209.2 88.82"/><path class="cls-3" d="M218.77,114.08a.85.85,0,0,1-.23,0l-11.41-2.57a1.05,1.05,0,0,1-.82-1.11l1.84-21.63a1.06,1.06,0,0,1,1-1h19.14a1,1,0,0,1,1,1l1.84,21.63a1,1,0,0,1-.81,1.11L219,114.05Zm-10.29-4.44L218.77,112l10.28-2.31-1.68-19.77H210.16Z"/><path class="cls-9" d="M203.44,85a5.42,5.42,0,1,1,0-10.83"/><path class="cls-9" d="M234.09,74.15a5.42,5.42,0,0,1,0,10.84"/><path class="cls-5" d="M229,69.15l-9.35-1.66a5.12,5.12,0,0,0-1.83,0l-9.35,1.66a5.22,5.22,0,0,0-4.3,5.14V89.7a5.21,5.21,0,0,0,1.91,4l9.35,7.65a5.22,5.22,0,0,0,6.61,0l9.36-7.65a5.21,5.21,0,0,0,1.91-4V74.29A5.22,5.22,0,0,0,229,69.15Z"/><path class="cls-9" d="M229,69.15l-9.35,4.54a5.12,5.12,0,0,0-1.83,0l-9.35-4.54a5.22,5.22,0,0,0-4.3,5.14V89.7a5.21,5.21,0,0,0,1.91,4l9.35,7.65a5.22,5.22,0,0,0,6.61,0l9.36-7.65a5.21,5.21,0,0,0,1.91-4V74.29A5.22,5.22,0,0,0,229,69.15Z"/><path class="cls-3" d="M240.56,79.57a6.47,6.47,0,0,0-6.47-6.46,1,1,0,0,0-.54.15l-.21,0a1,1,0,0,0-1.05,1.05V89.7a4.17,4.17,0,0,1-1.53,3.23l-9.35,7.65a4.29,4.29,0,0,1-5.28,0l-9.35-7.65a4.14,4.14,0,0,1-1.53-3.23V74.29a1,1,0,0,0-1.05-1.05l-.21,0a1,1,0,0,0-.55-.15A6.46,6.46,0,0,0,203.15,86V89.7a6.2,6.2,0,0,0,2.3,4.85l9.35,7.65a6.26,6.26,0,0,0,7.94,0l9.35-7.65a6.24,6.24,0,0,0,2.3-4.85V86A6.46,6.46,0,0,0,240.56,79.57Zm-41.49,0a4.37,4.37,0,0,1,4.08-4.35v8.71A4.39,4.39,0,0,1,199.07,79.57Zm35.32,4.35v-8.7a4.36,4.36,0,0,1,0,8.7Z"/><path class="cls-3" d="M182.9,137.16a1.05,1.05,0,0,1-1-.8l-3.73-14.91a1.05,1.05,0,0,1,2-.51l3.73,14.91a1.05,1.05,0,0,1-.76,1.28A1.15,1.15,0,0,1,182.9,137.16Z"/><path class="cls-3" d="M254.63,137.16a1.07,1.07,0,0,1-.25,0,1.05,1.05,0,0,1-.77-1.28l3.74-14.91a1,1,0,0,1,2,.51l-3.73,14.91A1.05,1.05,0,0,1,254.63,137.16Z"/><path class="cls-2" d="M226.19,54.45H211.34a10.27,10.27,0,0,0-10.27,10.27v9.71h35.4V64.72A10.27,10.27,0,0,0,226.19,54.45Z"/><path class="cls-3" d="M236.47,75.48h-35.4a1,1,0,0,1-1-1V64.72A11.34,11.34,0,0,1,211.34,53.4h14.85a11.34,11.34,0,0,1,11.33,11.32v9.71A1,1,0,0,1,236.47,75.48Zm-34.35-2.1h33.3V64.72a9.23,9.23,0,0,0-9.23-9.22H211.34a9.23,9.23,0,0,0-9.22,9.22Z"/><path class="cls-3" d="M223,65.75h-8.4a1,1,0,0,0-1,1v3.26a1,1,0,0,0,1,1H223a1,1,0,0,0,1.05-1V66.8A1,1,0,0,0,223,65.75Z"/><path class="cls-3" d="M198.86,112.82a1,1,0,0,1-.2-2.08l9-1.75a1,1,0,1,1,.4,2.06l-9,1.75Z"/><path class="cls-3" d="M238.67,112.82l-.2,0-9-1.75a1,1,0,1,1,.4-2.06l9,1.75a1,1,0,0,1-.2,2.08Z"/><path class="cls-10" d="M206.08,131.11a12.69,12.69,0,0,1,25.37,0"/><path class="cls-2" d="M206.08,131.11a12.69,12.69,0,1,1,25.37,0"/><path class="cls-3" d="M218.77,117.38A13.75,13.75,0,0,0,205,131.11a1,1,0,0,0,1.05,1h25.37a1,1,0,0,0,1.05-1A13.75,13.75,0,0,0,218.77,117.38Zm0,2.1a11.64,11.64,0,0,1,11.58,10.58H207.19A11.64,11.64,0,0,1,218.77,119.48Z"/><path class="cls-9" d="M221.73,128.17a4.19,4.19,0,1,1-5.93,0A4.19,4.19,0,0,1,221.73,128.17Z"/><path class="cls-11" d="M215.8,134.1a4.19,4.19,0,1,1,5.93-5.93"/><path class="cls-3" d="M218.77,136.38a5.24,5.24,0,1,1,3.7-8.95h0a5.24,5.24,0,0,1-3.7,8.95Zm0-8.39a3.15,3.15,0,1,0,0,6.29h0a3.12,3.12,0,0,0,2.22-.92,3.14,3.14,0,0,0,0-4.44h0A3.12,3.12,0,0,0,218.77,128Z"/><path class="cls-12" d="M64.52,85.35a2.05,2.05,0,1,1-2-2A2.05,2.05,0,0,1,64.52,85.35Z"/><path class="cls-12" d="M50.52,100.44a2.05,2.05,0,1,1-2.05-2A2.05,2.05,0,0,1,50.52,100.44Z"/><path class="cls-12" d="M198.64,94.82a2,2,0,1,1-2-2A2,2,0,0,1,198.64,94.82Z"/><rect class="cls-13" x="126.29" y="55.12" width="57.4" height="67.34"/><path class="cls-14" d="M183.76,41.86c-.41-.28-4.27-2.39-4.27-2.39l-27,.71H131l-4.41,1.12-1.24,6.45v6H185V47.88S184.18,42.14,183.76,41.86Z"/><polygon class="cls-14" points="184.12 122.45 125.34 122.45 125.34 131.99 129.01 136.02 140.82 136.02 172.17 136.02 182.36 134.96 185 129.73 184.12 122.45"/><path class="cls-7" d="M168.43,103.79s-2.7-3.36-3.27-3.56-4.86-2.93-4.86-2.93l-5.53-.67-7.07,2.26-2.49,1.92s-3.48,4.91-3.62,5a21.8,21.8,0,0,0-.58,2.55c-.1.38,1.3,2.31,1.3,2.31s3,1.49,3.22,1.54,3.9.38,3.9.38l2-1.63,2.79-2.22s2.64.53,3,.53a33.43,33.43,0,0,1,3.61,2.84l6.54-.72,1.68-.53V109C169.05,108.7,168.43,103.79,168.43,103.79Z"/><polygon class="cls-15" points="160.06 113.6 158.61 114.7 158.04 110.43 154.19 109.76 151.21 113.12 144.47 112.64 141.01 112.64 143.13 118.22 146.3 121.59 152.26 121.59 165.16 121.59 167.18 119.09 169.68 112.64 160.06 113.6"/><path class="cls-16" d="M133.11,113.24a2.05,2.05,0,1,0,2.91,0A2.05,2.05,0,0,0,133.11,113.24Z"/><path class="cls-16" d="M177.06,113.24a2.05,2.05,0,1,0,0,2.9A2.05,2.05,0,0,0,177.06,113.24Z"/><path class="cls-16" d="M187.92,71.6V63.39a2.05,2.05,0,0,0-2-2V47a8.22,8.22,0,0,0-8.21-8.21H132.51a8.21,8.21,0,0,0-8.2,8.21v82.09a8.2,8.2,0,0,0,8.2,8.21h45.15a8.21,8.21,0,0,0,8.21-8.21V88a2.05,2.05,0,0,0,2-2V77.75a2.05,2.05,0,0,0-2-2v-2A2.05,2.05,0,0,0,187.92,71.6ZM130.75,40.79h48.68c2.44,0,4.43,2.71,4.43,6.06v6.07H126.32V46.85C126.32,43.5,128.31,40.79,130.75,40.79Zm17.54,80.06a12.39,12.39,0,0,1-5.18-7.39,44.14,44.14,0,0,0,6.15,1,6.15,6.15,0,0,0,11.78,0,44.53,44.53,0,0,0,6-1,12.35,12.35,0,0,1-5.18,7.37Zm12.56-10.53a6.16,6.16,0,0,0-11.4,0,35.91,35.91,0,0,1-6.59-1.16,12.31,12.31,0,0,1,24.46,0A35.75,35.75,0,0,1,160.85,110.32Zm-3.65,2.32a2.05,2.05,0,1,1-2-2A2.06,2.06,0,0,1,157.2,112.64Zm15.59-2c0-9-7.94-16.42-17.7-16.42s-17.7,7.37-17.7,16.42a15.63,15.63,0,0,0,3.89,10.26h-15V55.18h57.54v65.67h-15A15.63,15.63,0,0,0,172.79,110.59Zm6.64,24.11H130.75c-2.44,0-4.43-2.68-4.43-6v-6h57.54v6C183.85,132,181.87,134.7,179.43,134.7Z"/><path class="cls-16" d="M169.45,128.64H140.72c-1.13,0-2.05.55-2.05,1.24s.92,1.23,2.05,1.23h28.73c1.13,0,2.05-.55,2.05-1.23S170.58,128.64,169.45,128.64Z"/><path class="cls-16" d="M168.69,47.51a1.3,1.3,0,1,0-1.29-1.3A1.3,1.3,0,0,0,168.69,47.51Z"/><path class="cls-16" d="M140.72,47.51h22.57c1.14,0,2.06-.58,2.06-1.3s-.92-1.29-2.06-1.29H140.72c-1.13,0-2.05.58-2.05,1.29S139.59,47.51,140.72,47.51Z"/><path class="cls-12" d="M69.92,57.07a4.89,4.89,0,1,1,6.68-1.75A4.9,4.9,0,0,1,69.92,57.07Zm3.34-5.7a1.72,1.72,0,1,0-1.74,3,1.72,1.72,0,1,0,1.74-3Z"/><path class="cls-12" d="M251.27,62.12A4.89,4.89,0,1,1,258,60.38,4.89,4.89,0,0,1,251.27,62.12Zm3.34-5.69a1.72,1.72,0,1,0,.61,2.35A1.71,1.71,0,0,0,254.61,56.43Z"/><path class="cls-12" d="M274.36,87.4h-4.08a1.59,1.59,0,1,1,0-3.17h4.08a1.59,1.59,0,0,1,0,3.17Z"/><path class="cls-12" d="M264.83,87.4h-4.08a1.59,1.59,0,1,1,0-3.17h4.08a1.59,1.59,0,0,1,0,3.17Z"/><path class="cls-12" d="M267.55,84.68A1.59,1.59,0,0,1,266,83.09V79a1.59,1.59,0,0,1,3.17,0v4.08A1.59,1.59,0,0,1,267.55,84.68Z"/><path class="cls-12" d="M267.55,94.21A1.58,1.58,0,0,1,266,92.63V88.54a1.59,1.59,0,0,1,3.17,0v4.09A1.59,1.59,0,0,1,267.55,94.21Z"/><path class="cls-12" d="M28.84,110.14l-2.29-2.27a1.25,1.25,0,1,1,1.76-1.77l2.29,2.27a1.25,1.25,0,1,1-1.76,1.77Z"/><path class="cls-12" d="M23.49,104.84l-2.29-2.27A1.26,1.26,0,0,1,23,100.79l2.29,2.28a1.25,1.25,0,1,1-1.77,1.77Z"/><path class="cls-12" d="M26.54,104.83a1.25,1.25,0,0,1,0-1.77l2.27-2.29a1.25,1.25,0,0,1,1.78,1.76l-2.27,2.29A1.25,1.25,0,0,1,26.54,104.83Z"/><path class="cls-12" d="M21.23,110.18a1.25,1.25,0,0,1,0-1.77l2.27-2.29a1.25,1.25,0,1,1,1.78,1.76L23,110.17A1.26,1.26,0,0,1,21.23,110.18Z"/><path class="cls-12" d="M39,69.07,36.66,66.8A1.25,1.25,0,0,1,38.42,65l2.29,2.28A1.25,1.25,0,1,1,39,69.07Z"/><path class="cls-12" d="M33.61,63.77,31.32,61.5a1.25,1.25,0,1,1,1.76-1.78L35.37,62a1.25,1.25,0,0,1-1.76,1.78Z"/><path class="cls-12" d="M36.65,63.76a1.25,1.25,0,0,1,0-1.77l2.27-2.29a1.25,1.25,0,1,1,1.78,1.76l-2.27,2.29A1.26,1.26,0,0,1,36.65,63.76Z"/><path class="cls-12" d="M31.34,69.1a1.25,1.25,0,0,1,0-1.77L33.61,65a1.25,1.25,0,0,1,1.78,1.76l-2.28,2.3A1.25,1.25,0,0,1,31.34,69.1Z"/><path class="cls-17" d="M163.78,73.69a13.4,13.4,0,1,1-13.4-13.4A13.4,13.4,0,0,1,163.78,73.69Z"/><path class="cls-12" d="M169.39,59.45a.6.6,0,0,1-.42-1l1.26-1.26a.59.59,0,0,1,.84.84l-1.26,1.27A.63.63,0,0,1,169.39,59.45Z"/><path class="cls-12" d="M166.44,62.4a.58.58,0,0,1-.42-.18.6.6,0,0,1,0-.84l1.26-1.26a.59.59,0,0,1,.84.84l-1.26,1.26A.59.59,0,0,1,166.44,62.4Z"/><path class="cls-12" d="M167.7,59.45a.63.63,0,0,1-.42-.17L166,58a.59.59,0,1,1,.84-.84l1.26,1.26a.59.59,0,0,1,0,.85A.61.61,0,0,1,167.7,59.45Z"/><path class="cls-12" d="M170.65,62.4a.59.59,0,0,1-.42-.18L169,61a.59.59,0,1,1,.84-.84l1.26,1.26a.6.6,0,0,1-.42,1Z"/><path class="cls-12" d="M169.63,90.47a1.75,1.75,0,0,1-.86-.22A1.84,1.84,0,0,1,170.5,87a1.85,1.85,0,0,1,.89,1.09h0a1.83,1.83,0,0,1-1.22,2.29A1.68,1.68,0,0,1,169.63,90.47Zm0-2.48a.58.58,0,0,0-.19,0,.62.62,0,0,0-.38.31.6.6,0,0,0,0,.49.62.62,0,0,0,.31.38.64.64,0,0,0,.49,0,.63.63,0,0,0,.43-.8.67.67,0,0,0-.31-.39A.66.66,0,0,0,169.64,88Z"/><path class="cls-12" d="M138.05,62.77a1.84,1.84,0,1,1,1.84-1.83A1.83,1.83,0,0,1,138.05,62.77Zm0-2.48a.65.65,0,1,0,.65.65A.65.65,0,0,0,138.05,60.29Z"/><path class="cls-12" d="M138.92,89.32a.6.6,0,0,1-.42-1l1.75-1.76a.6.6,0,1,1,.85.85l-1.76,1.75A.59.59,0,0,1,138.92,89.32Z"/><path class="cls-12" d="M140.67,89.32a.59.59,0,0,1-.42-.18l-1.75-1.75a.6.6,0,0,1,.84-.85l1.76,1.76a.6.6,0,0,1-.43,1Z"/><path class="cls-12" d="M146.06,60.13a.63.63,0,0,1-.42-.17.61.61,0,0,1,0-.85l1.76-1.75a.59.59,0,0,1,.84.84L146.49,60A.63.63,0,0,1,146.06,60.13Z"/><path class="cls-12" d="M147.82,60.13a.63.63,0,0,1-.42-.17l-1.76-1.76a.6.6,0,0,1,0-.84.61.61,0,0,1,.85,0l1.75,1.75a.6.6,0,0,1-.42,1Z"/><path class="cls-18" d="M143.08,78.84s-4.71-6.26-2.44-10.86c0,0,4.2-2.25,9.36,1.07A10,10,0,0,1,143.08,78.84Z"/><path class="cls-16" d="M143.08,79.43a.58.58,0,0,1-.47-.23c-.2-.27-4.91-6.61-2.5-11.48a.57.57,0,0,1,.25-.26c.18-.1,4.57-2.38,10,1.08a.61.61,0,0,1,.27.47,10.7,10.7,0,0,1-7.31,10.39A.64.64,0,0,1,143.08,79.43Zm-2-11c-1.6,3.59,1.32,8.35,2.22,9.69a9.34,9.34,0,0,0,6.1-8.74A9.08,9.08,0,0,0,141.09,68.43Z"/><path class="cls-19" d="M142.34,69.82s4.17-.59,5.95,1.79l-3.57,4.76S141.74,74.59,142.34,69.82Z"/><path class="cls-16" d="M144.72,77a.61.61,0,0,1-.31-.09c-.13-.08-3.3-2-2.66-7.13a.59.59,0,0,1,.5-.52c.19,0,4.54-.61,6.52,2a.6.6,0,0,1,0,.72l-3.57,4.76A.6.6,0,0,1,144.72,77Zm-1.84-6.6a6.08,6.08,0,0,0,1.73,5.16l2.92-3.9C146.21,70.32,143.87,70.31,142.88,70.37Z"/><path class="cls-18" d="M167.8,78.84s4.71-6.26,2.44-10.86c0,0-4.2-2.25-9.35,1.07A10,10,0,0,0,167.8,78.84Z"/><path class="cls-16" d="M167.8,79.43a.69.69,0,0,1-.2,0A10.72,10.72,0,0,1,160.29,69a.67.67,0,0,1,.27-.47c5.39-3.46,9.78-1.18,10-1.08a.65.65,0,0,1,.26.26c2.4,4.87-2.3,11.21-2.5,11.48A.62.62,0,0,1,167.8,79.43Zm-6.33-10.05a9.34,9.34,0,0,0,6.11,8.74c.9-1.34,3.81-6.1,2.21-9.69A9,9,0,0,0,161.47,69.38Z"/><path class="cls-19" d="M168.54,69.82s-4.16-.59-5.95,1.79l3.57,4.76S169.14,74.59,168.54,69.82Z"/><path class="cls-16" d="M166.16,77a.59.59,0,0,1-.47-.24L162.11,72a.6.6,0,0,1,0-.72c2-2.63,6.33-2,6.52-2a.62.62,0,0,1,.51.52c.63,5.09-2.54,7-2.67,7.13A.59.59,0,0,1,166.16,77Zm-2.81-5.34,2.93,3.9A6.09,6.09,0,0,0,168,70.37C167,70.31,164.67,70.32,163.35,71.63Z"/><path class="cls-18" d="M163.09,89.25a12.48,12.48,0,1,1,3.31-3.86"/><path class="cls-16" d="M155.44,92.46a13.11,13.11,0,1,1,11.48-6.78.6.6,0,0,1-1-.58A11.91,11.91,0,1,0,158,91a11.66,11.66,0,0,0,4.71-2.2.6.6,0,0,1,.84.11.59.59,0,0,1-.11.83,12.85,12.85,0,0,1-5.18,2.42A13.14,13.14,0,0,1,155.44,92.46Z"/><path class="cls-16" d="M164.46,88.62a.63.63,0,0,1-.42-.17.6.6,0,0,1,0-.84c.27-.29.54-.6.79-.92a.6.6,0,0,1,.94.74c-.27.35-.57.69-.87,1A.61.61,0,0,1,164.46,88.62Z"/><path class="cls-9" d="M165.6,79.05a3.93,3.93,0,1,0-3.91,4.35A4.14,4.14,0,0,0,165.6,79.05Z"/><path class="cls-16" d="M161.69,84a5,5,0,1,1,4.5-4.94A4.73,4.73,0,0,1,161.69,84Zm0-8.69A3.78,3.78,0,1,0,165,79.05,3.56,3.56,0,0,0,161.69,75.3Z"/><path class="cls-20" d="M163.71,79.05a2,2,0,1,0-2,2.24A2.13,2.13,0,0,0,163.71,79.05Z"/><path class="cls-16" d="M161.69,81.89a2.84,2.84,0,1,1,2.61-2.84A2.73,2.73,0,0,1,161.69,81.89Zm0-4.48a1.66,1.66,0,1,0,1.42,1.64A1.54,1.54,0,0,0,161.69,77.41Z"/><path class="cls-9" d="M164.38,77.27a.9.9,0,1,1-.9-.9A.89.89,0,0,1,164.38,77.27Z"/><path class="cls-9" d="M153.09,79.05a3.93,3.93,0,1,0-3.9,4.35A4.14,4.14,0,0,0,153.09,79.05Z"/><path class="cls-16" d="M149.19,84a5,5,0,1,1,4.5-4.94A4.74,4.74,0,0,1,149.19,84Zm0-8.69a3.78,3.78,0,1,0,3.31,3.75A3.56,3.56,0,0,0,149.19,75.3Z"/><path class="cls-20" d="M151.2,79.05a2,2,0,1,0-2,2.24A2.13,2.13,0,0,0,151.2,79.05Z"/><path class="cls-16" d="M149.19,81.89a2.84,2.84,0,1,1,2.61-2.84A2.73,2.73,0,0,1,149.19,81.89Zm0-4.48a1.66,1.66,0,1,0,1.42,1.64A1.55,1.55,0,0,0,149.19,77.41Z"/><path class="cls-9" d="M151.87,77.27a.9.9,0,1,1-.9-.9A.89.89,0,0,1,151.87,77.27Z"/><path class="cls-18" d="M157.23,63.87c-1.79,0-6.63,0-6.63,6.33,0,1.5,1.23,4.65,3.85,4.53,3.37-.14,2.92-3.62,3-3.62,2.25,0,4.08-1.52,4.08-3.4S159,63.87,157.23,63.87Z"/><path class="cls-16" d="M154.31,75.33a3.59,3.59,0,0,1-2.54-1.06A6.15,6.15,0,0,1,150,70.2c0-2.94,1-5,2.95-6.06a8.64,8.64,0,0,1,4.26-.87h0v0c2.07,0,4.84,2.19,4.84,4.44a4.27,4.27,0,0,1-4.08,4,3.46,3.46,0,0,1-3.51,3.66Zm2.9-10.87a7.57,7.57,0,0,0-3.68.72c-1.55.85-2.34,2.54-2.34,5a5.06,5.06,0,0,0,1.4,3.21,2.36,2.36,0,0,0,1.83.73c2.07-.09,2.44-1.65,2.38-2.94a.64.64,0,0,1,.17-.5.57.57,0,0,1,.43-.19c1.92,0,3.48-1.25,3.48-2.8s-2.18-3.25-3.65-3.25h0Zm.19,6.65Z"/><path class="cls-18" d="M154.85,72.2s1.28-1.75,3-1.19"/><path class="cls-16" d="M154.85,72.8a.6.6,0,0,1-.36-.12.59.59,0,0,1-.12-.83c.06-.08,1.56-2.1,3.64-1.4a.59.59,0,1,1-.37,1.13c-1.26-.42-2.3,1-2.31,1A.63.63,0,0,1,154.85,72.8Z"/><path class="cls-21" d="M156.63,84.12v1.44a1.49,1.49,0,1,1-3,0V84.12Z"/><path class="cls-16" d="M155.14,87.64a2.08,2.08,0,0,1-2.08-2.08V84.12a.6.6,0,0,1,.6-.6h3a.59.59,0,0,1,.59.6v1.44A2.08,2.08,0,0,1,155.14,87.64Zm-.89-2.93v.85a.89.89,0,1,0,1.78,0v-.85Z"/><circle class="cls-16" cx="155.73" cy="114.31" r="21.54"/><path class="cls-22" d="M163.5,115.52a7.28,7.28,0,0,0-7.05,5.45l-.18-.77h-2.4l1.61-1.61-.64-.72a7.36,7.36,0,1,0,1.59,6.67,7.28,7.28,0,1,0,7.07-9Z"/><path class="cls-23" d="M174,105.06l-.3,1.3-.34-1.54-3.8-.7-.17,2.17.58.11,0,.45a2.79,2.79,0,0,0-1.22-.27,3.39,3.39,0,0,0-1.94.64l-.61-3.87h-2.5l-.08.39h-2.86l-.35,2.12-.27-.35a3.83,3.83,0,0,0-2.56-1.34l2.42-1.25L158,100.41l-2.84,3.31.67.68-.27.1a3.76,3.76,0,0,0-1.19.77L152,103,151,104.48v-1.34L147,104.27v2.13l.79-.17.08,1a3,3,0,0,0-1.2-.25,3.64,3.64,0,0,0-2.14.73,3.22,3.22,0,0,0-.11-1.82c-.49-1.39-2-2.22-4.12-2.22a8.2,8.2,0,0,0-5.15,1.76l-.45.39,1.72,3.14.75-.39,3.26,7.28,2.84-1-1-4a6.72,6.72,0,0,0,.7-.61s0,.1,0,.15a2.79,2.79,0,0,0,2.85,3.14h0a3.71,3.71,0,0,0,2.54-1.06l.11,1.19,2.91-.29-.07-2.54,5.86,3v-2.93a5.38,5.38,0,0,0,2.45-.73l-.24,1.48,3.25.57.21-1.22.88,1.81.32-.83.19,1.28,3.51.5-.16-1,.28,0a3.28,3.28,0,0,0,1.48-.37l-.11,1.14,2.41.42,0,1,2.52.67,3.24-9.76Zm-20.6,2.29v.09a3.5,3.5,0,0,0,.07,1l-.75-.32Zm6.06-.27.86-.87L160,107.7Z"/><path class="cls-24" d="M143.41,108.58a6.9,6.9,0,0,1-2,2l1,3.82-1.56.52-3.3-7.38-.8.42-1.09-2h0c2.34-2,7.23-2.26,8.08.15A2.83,2.83,0,0,1,143.41,108.58Z"/><path class="cls-23" d="M142.38,107.28c.73,1.72-1.18,2.51-1.18,2.51l-.9-2.84S141.86,106.06,142.38,107.28Z"/><path class="cls-25" d="M141.68,108.55a1,1,0,0,1-.11.18l-.34-1.07-.1-.32c.09,0,.49,0,.63.2A1.11,1.11,0,0,1,141.68,108.55Z"/><path class="cls-16" d="M141.68,108.55a1,1,0,0,1-.11.18l-.34-1.07a.52.52,0,0,1,.41.21A.89.89,0,0,1,141.68,108.55Z"/><polygon class="cls-24" points="149.15 112.88 148.48 105.33 147.78 105.48 147.78 104.83 150.24 104.13 150.24 106.74 152.13 104.17 153.8 105.78 151.41 108.37 156.44 110.45 156.44 112.6 150.54 109.64 150.63 112.73 149.15 112.88"/><polygon class="cls-24" points="160.24 111.03 161.31 104.48 163.2 104.48 163.63 107.02 164.22 104.09 165.49 104.09 166.86 112.86 164.89 112.58 164.37 109.06 163.65 110.93 162.5 108.56 162.04 111.34 160.24 111.03"/><polygon class="cls-24" points="170.2 105 170.14 105.69 170.73 105.8 170.05 112.92 171.53 113.18 172.22 109.19 172.4 114.36 173.72 114.72 176.48 106.39 174.52 105.94 173.65 109.73 172.7 105.46 170.2 105"/><polygon class="cls-24" points="156.14 103.68 156.37 103.92 158.78 102.67 157.94 101.58 156.14 103.68"/><path class="cls-23" d="M167.87,112.76A2.71,2.71,0,0,1,166,112a3.11,3.11,0,0,1,.28-4.36c.1-.1.21-.19.32-.28v0l.35-.22a3.37,3.37,0,0,1,1.77-.52,2.68,2.68,0,0,1,1.92.77,2.9,2.9,0,0,1,.41,3.4,3.79,3.79,0,0,1-.69,1A3.51,3.51,0,0,1,167.87,112.76Z"/><path class="cls-24" d="M170.33,110.42a2.83,2.83,0,0,1-.55.76,2.17,2.17,0,1,1-3-3,2.7,2.7,0,0,1,.53-.43h0a2.25,2.25,0,0,1,2.78.14A2.19,2.19,0,0,1,170.33,110.42Z"/><path class="cls-23" d="M169.68,108.83a1.2,1.2,0,1,1-1.2-1.21l.18,0a.72.72,0,1,0,.83.72.7.7,0,0,0-.05-.25A1.2,1.2,0,0,1,169.68,108.83Z"/><path class="cls-26" d="M156.93,110.88a4.46,4.46,0,0,1-2.17-.52,2.86,2.86,0,0,1-1.28-1.75,3.45,3.45,0,0,1,.31-2.64.56.56,0,0,0,.05-.08,3.43,3.43,0,0,1,1.69-1.39,4.23,4.23,0,0,1,1.64-.34,3.79,3.79,0,0,1,2.89,1.35l.4.51-1,1.06,0,0,1.72,1.72-.53.52a3.89,3.89,0,0,1-.43.38A5.26,5.26,0,0,1,156.93,110.88Z"/><path class="cls-24" d="M160.13,108.84c-.12.11-.24.22-.37.32a4.38,4.38,0,0,1-4.64.55,2.58,2.58,0,0,1-.69-3.37l0-.06a2.73,2.73,0,0,1,1.34-1.1,3.11,3.11,0,0,1,3.67.78l-.33.34-2.1,2.15a1.83,1.83,0,0,0,1.54-.46,2.51,2.51,0,0,0,.34-.35Z"/><path class="cls-23" d="M156.05,108.54l1.85-2.09a1.47,1.47,0,0,0-2.11,0C154.75,107.45,156.05,108.54,156.05,108.54Z"/><path class="cls-25" d="M157.1,106.56l-.2.22-.83.91a.85.85,0,0,1,0-.69,1.11,1.11,0,0,1,.16-.24A.86.86,0,0,1,157.1,106.56Z"/><path class="cls-16" d="M156.9,106.78l-.83.91a.85.85,0,0,1,0-.69A.89.89,0,0,1,156.9,106.78Z"/><path class="cls-23" d="M145.83,113.56a2.79,2.79,0,0,1-2.85-3.14,3.76,3.76,0,0,1,1.11-2.32l0,0A3.77,3.77,0,0,1,146.7,107a2.82,2.82,0,0,1,2.85,3.14,3.8,3.8,0,0,1-1.12,2.33A3.73,3.73,0,0,1,145.83,113.56Z"/><path class="cls-24" d="M147.91,111.91a2.36,2.36,0,1,1-3.29-3.29l0,0a2.36,2.36,0,1,1,3.26,3.32Z"/><path class="cls-23" d="M147.88,109.43a1.31,1.31,0,1,1-1.31-1.31l.2,0a.79.79,0,1,0,.9.78.75.75,0,0,0,0-.26A1.28,1.28,0,0,1,147.88,109.43Z"/><circle class="cls-27" cx="163.5" cy="122.8" r="6.8"/><path class="cls-28" d="M169.82,122.8a5.66,5.66,0,0,1-.08,1c0,.14-.05.29-.08.42a6.33,6.33,0,0,1-12.48-1.18v-.43a6.32,6.32,0,0,1,12.64.18Z"/><circle class="cls-27" cx="163.5" cy="122.8" r="2.29"/><path class="cls-27" d="M149.31,129.56a6.84,6.84,0,1,1,5.14-11.35l.32.36-2.15,2.15h3.24l.1.39a7.3,7.3,0,0,1,.19,1.61A6.85,6.85,0,0,1,149.31,129.56Z"/><path class="cls-28" d="M155.63,122.72c0,.11,0,.22,0,.33a6.33,6.33,0,0,1-12.46,1.17c0-.14-.06-.28-.08-.42a6.35,6.35,0,0,1,6.23-7.41,6.32,6.32,0,0,1,4.75,2.16l-2.36,2.35a3,3,0,0,0-2.39-1.19,3,3,0,0,0-3,3,3.31,3.31,0,0,0,0,.55c0,.14.07.28.11.42a3,3,0,0,0,5.53.38h-2.77v-2.84h6.24a7,7,0,0,1,.17,1.39Z"/><path class="cls-16" d="M76,98.83A15.74,15.74,0,0,0,80.6,87a15.76,15.76,0,0,0-16.45,16.45A15.74,15.74,0,0,0,76,98.83Z"/><path class="cls-16" d="M64.83,104.53h0l-.72,0a1.09,1.09,0,0,1-1-1A16.84,16.84,0,0,1,80.65,85.9a1.07,1.07,0,0,1,1,1A17,17,0,0,1,76.77,99.6,16.77,16.77,0,0,1,64.83,104.53Zm14.7-16.48a14.66,14.66,0,0,0-14.3,14.31,14.65,14.65,0,0,0,10-4.29A14.83,14.83,0,0,0,79.53,88.05Z"/><path class="cls-16" d="M108.71,98.83A15.74,15.74,0,0,1,104.11,87a15.76,15.76,0,0,1,16.45,16.45A15.74,15.74,0,0,1,108.71,98.83Z"/><path class="cls-16" d="M119.88,104.53A16.73,16.73,0,0,1,108,99.6,16.92,16.92,0,0,1,103,86.94a1.07,1.07,0,0,1,1-1,16.82,16.82,0,0,1,17.57,17.57,1.07,1.07,0,0,1-1,1ZM105.19,88.05a14.66,14.66,0,0,0,14.3,14.31,14.83,14.83,0,0,0-4.29-10A14.65,14.65,0,0,0,105.19,88.05Z"/><polygon class="cls-6" points="92.36 106.7 49.47 114.71 53.23 136.25 131.48 136.25 135.24 114.71 92.36 106.7"/><polygon class="cls-7" points="92.36 106.7 49.47 114.71 53.23 136.25 131.48 136.25 135.24 114.71 92.36 106.7"/><polygon class="cls-2" points="91.28 108.02 49.47 114.71 53.23 136.25 131.48 136.25 135.24 114.71 91.28 108.02"/><path class="cls-16" d="M131.48,137.33H53.23a1.08,1.08,0,0,1-1.06-.9L48.41,114.9a1.08,1.08,0,0,1,.87-1.25l42.88-8a1.34,1.34,0,0,1,.4,0l42.88,8a1.08,1.08,0,0,1,.87,1.25l-3.76,21.53A1.08,1.08,0,0,1,131.48,137.33Zm-77.34-2.17h76.43L134,115.58,92.36,107.8l-41.64,7.78Z"/><polygon class="cls-9" points="82.5 89.26 82.4 111.55 92.36 135.75 102.31 111.55 102.22 89.26 82.5 89.26"/><polygon class="cls-2" points="98.9 119.83 85.81 119.83 92.17 135.3 92.54 135.3 98.9 119.83"/><path class="cls-3" d="M92.54,136.38h-.37a1.08,1.08,0,0,1-1-.67l-6.36-15.47a1.07,1.07,0,0,1,.1-1,1.08,1.08,0,0,1,.9-.48H98.9a1.08,1.08,0,0,1,.9.48,1.07,1.07,0,0,1,.1,1l-6.36,15.47A1.07,1.07,0,0,1,92.54,136.38Zm-5.11-15.46,4.93,12,4.93-12Z"/><polygon class="cls-9" points="82.5 89.26 82.4 111.55 92.36 113.69 102.31 111.55 102.22 89.26 82.5 89.26"/><path class="cls-9" d="M102.22,89.26H82.5L81.42,102,89,108.14a5.4,5.4,0,0,0,6.81,0L103.3,102Z"/><path class="cls-3" d="M92.36,136.83h0a1.07,1.07,0,0,1-1-.67L81.4,112a1.15,1.15,0,0,1-.08-.41l.1-22.3a1.07,1.07,0,0,1,1.08-1.07h19.72a1.08,1.08,0,0,1,1.08,1.07l.09,22.3a1.15,1.15,0,0,1-.08.41l-10,24.2A1.08,1.08,0,0,1,92.36,136.83Zm-8.87-25.49,8.87,21.57,8.87-21.57-.09-21H83.58Z"/><path class="cls-16" d="M110.62,73.27c0,9.16-8.18,16.59-18.26,16.59S74.1,82.43,74.1,73.27s8.17-18.75,18.26-18.75S110.62,64.1,110.62,73.27Z"/><path class="cls-3" d="M92.36,90.94C81.69,90.94,73,83,73,73.27c0-9.36,8.27-19.83,19.34-19.83,9.13,0,19.34,8.48,19.34,19.83C111.7,83,103,90.94,92.36,90.94Zm0-35.34c-8.11,0-17.18,7.55-17.18,17.67,0,8.55,7.71,15.5,17.18,15.5s17.17-7,17.17-15.5C109.53,63.15,100.46,55.6,92.36,55.6Z"/><path class="cls-9" d="M77.92,87.11a5.1,5.1,0,0,1,0-10.2"/><path class="cls-3" d="M77.92,88.19a6.18,6.18,0,0,1,0-12.36,1.08,1.08,0,1,1,0,2.16,4,4,0,0,0,0,8,1.08,1.08,0,1,1,0,2.16Z"/><path class="cls-9" d="M106.79,76.91a5.1,5.1,0,0,1,0,10.2"/><path class="cls-3" d="M106.79,88.19a1.08,1.08,0,0,1,0-2.16,4,4,0,0,0,0-8,1.08,1.08,0,0,1,0-2.16,6.18,6.18,0,0,1,0,12.36Z"/><path class="cls-9" d="M102.83,71.24c-1.76-.44-3.72-.61-5.3-.95a30.69,30.69,0,0,0-4.67-.75,29.93,29.93,0,0,0-6.46.58c-3.8.62-9.06.82-9.06,6V90.16a5.38,5.38,0,0,0,2,4.16L89,104a5.36,5.36,0,0,0,6.81,0l9.64-9.69a5.37,5.37,0,0,0,2-4.16V76.09C107.37,73.05,105.3,71.87,102.83,71.24Z"/><path class="cls-3" d="M92.36,106.31a6.48,6.48,0,0,1-4.09-1.46l-.09-.08-9.6-9.65a6.44,6.44,0,0,1-2.32-5V76.09a6.45,6.45,0,0,1,5.33-6.36L91.23,68a6.6,6.6,0,0,1,2.26,0l9.63,1.72a6.45,6.45,0,0,1,5.33,6.36V90.16a6.41,6.41,0,0,1-2.32,5l-9.6,9.65-.08.08A6.48,6.48,0,0,1,92.36,106.31Zm-2.68-3.1a4.41,4.41,0,0,0,5.36,0l9.59-9.65.08-.07a4.27,4.27,0,0,0,1.58-3.33V76.09a4.28,4.28,0,0,0-3.54-4.23l-9.64-1.72a4.78,4.78,0,0,0-1.51,0L82,71.86a4.29,4.29,0,0,0-3.55,4.23V90.16A4.31,4.31,0,0,0,80,93.49a.27.27,0,0,1,.08.07Z"/><path class="cls-3" d="M61.38,137.33a1.08,1.08,0,0,1-1-.62l-3.85-8.16a1.08,1.08,0,0,1,2-.92l3.85,8.15a1.09,1.09,0,0,1-.52,1.44A1.11,1.11,0,0,1,61.38,137.33Z"/><path class="cls-3" d="M123.34,137.33a1,1,0,0,1-.46-.11,1.07,1.07,0,0,1-.52-1.44l3.84-8.15a1.09,1.09,0,0,1,1.44-.52,1.07,1.07,0,0,1,.52,1.44l-3.84,8.16A1.1,1.1,0,0,1,123.34,137.33Z"/><path class="cls-29" d="M103.3,128.87a9,9,0,1,1,18.07,0"/><path class="cls-7" d="M103.3,128.87a9,9,0,1,1,18.07,0"/><path class="cls-3" d="M121.37,130a1.08,1.08,0,0,1-1.08-1.08,8,8,0,0,0-15.91,0,1.08,1.08,0,1,1-2.16,0,10.12,10.12,0,1,1,20.24,0A1.08,1.08,0,0,1,121.37,130Z"/><path class="cls-3" d="M121.37,130H103.3a1.08,1.08,0,0,1,0-2.16h18.07a1.08,1.08,0,1,1,0,2.16Z"/><circle class="cls-9" cx="112.33" cy="128.89" r="2.99"/><path class="cls-11" d="M110.22,131a3,3,0,1,1,4.23-4.22"/><path class="cls-3" d="M112.34,133a4.07,4.07,0,0,1-2.88-7,4.07,4.07,0,1,1,5.75,5.76A4,4,0,0,1,112.34,133Zm0-6a1.91,1.91,0,0,0-1.35,3.26,2,2,0,0,0,2.69,0,1.91,1.91,0,0,0-1.34-3.26Z"/><path class="cls-21" d="M65.08,99.18A13.58,13.58,0,0,1,78.6,112.82h-27A13.58,13.58,0,0,1,65.08,99.18Z"/><path class="cls-12" d="M78.6,113.45h-27a.64.64,0,0,1-.64-.63,14.16,14.16,0,1,1,28.31,0A.63.63,0,0,1,78.6,113.45Zm-26.4-1.26H78a12.88,12.88,0,0,0-25.75,0Z"/><path class="cls-9" d="M54,120.6a13.68,13.68,0,0,1-2.41-7.78h27a13.58,13.58,0,0,1-13.52,13.64,13.37,13.37,0,0,1-6.48-1.66"/><path class="cls-12" d="M65.08,127.09a14.11,14.11,0,0,1-6.79-1.74.63.63,0,0,1,.61-1.11,12.81,12.81,0,0,0,6.18,1.59A13,13,0,0,0,78,113.45H52.2a13,13,0,0,0,2.29,6.79.63.63,0,1,1-1,.72,14.3,14.3,0,0,1-2.53-8.14.64.64,0,0,1,.64-.63h27a.63.63,0,0,1,.63.63A14.23,14.23,0,0,1,65.08,127.09Z"/><path class="cls-12" d="M56.59,124.07a.67.67,0,0,1-.4-.14c-.32-.26-.64-.55-.94-.84a.62.62,0,0,1,0-.89.63.63,0,0,1,.89,0A10.49,10.49,0,0,0,57,123a.63.63,0,0,1,.09.89A.65.65,0,0,1,56.59,124.07Z"/><path class="cls-30" d="M69.4,112.94a4.32,4.32,0,1,1-4.32-4.32A4.33,4.33,0,0,1,69.4,112.94Z"/><path class="cls-12" d="M65.08,117.89a5,5,0,1,1,5-5A5,5,0,0,1,65.08,117.89Zm0-8.64a3.69,3.69,0,1,0,3.69,3.69A3.69,3.69,0,0,0,65.08,109.25Z"/><path class="cls-30" d="M67,112.94a1.88,1.88,0,1,1-1.88-1.88A1.88,1.88,0,0,1,67,112.94Z"/><path class="cls-12" d="M65.08,115.45a2.51,2.51,0,1,1,2.51-2.51A2.51,2.51,0,0,1,65.08,115.45Zm0-3.76a1.25,1.25,0,1,0,1.25,1.25A1.25,1.25,0,0,0,65.08,111.69Z"/><path class="cls-12" d="M77.63,93.89a.64.64,0,0,1-.64-.63v-1.9a.64.64,0,0,1,1.27,0v1.9A.63.63,0,0,1,77.63,93.89Z"/><path class="cls-12" d="M77.63,98.31a.64.64,0,0,1-.64-.63v-1.9a.64.64,0,0,1,1.27,0v1.9A.64.64,0,0,1,77.63,98.31Z"/><path class="cls-12" d="M76.36,95.15H74.47a.63.63,0,0,1,0-1.26h1.89a.63.63,0,0,1,0,1.26Z"/><path class="cls-12" d="M80.78,95.15H78.89a.63.63,0,0,1,0-1.26h1.89a.63.63,0,1,1,0,1.26Z"/><path class="cls-12" d="M46,108.2a2,2,0,0,1-1.86-1.39,1.91,1.91,0,0,1,.15-1.48,2,2,0,0,1,2.63-.8,2,2,0,0,1,.95,1.15h0a1.94,1.94,0,0,1-1.3,2.42A1.88,1.88,0,0,1,46,108.2Zm0-2.64a.64.64,0,0,0-.2,0,.69.69,0,0,0-.41.34.67.67,0,0,0,0,.52.66.66,0,0,0,.33.4.63.63,0,0,0,.52.05.68.68,0,0,0,.46-.85.66.66,0,0,0-.33-.4A.62.62,0,0,0,46,105.56Z"/><path class="cls-12" d="M47.21,92.73a1.95,1.95,0,1,1,1.95-1.94A2,2,0,0,1,47.21,92.73Zm0-2.63a.69.69,0,1,0,.69.69A.69.69,0,0,0,47.21,90.1Z"/><path class="cls-12" d="M52.54,97.51a.63.63,0,0,1-.44-.19.62.62,0,0,1,0-.89L54,94.57a.63.63,0,1,1,.89.89L53,97.32A.64.64,0,0,1,52.54,97.51Z"/><path class="cls-12" d="M54.41,97.51a.64.64,0,0,1-.45-.19L52.1,95.46a.63.63,0,1,1,.89-.89l1.86,1.86a.62.62,0,0,1,0,.89A.63.63,0,0,1,54.41,97.51Z"/><path class="cls-12" d="M64.73,91.9a1.06,1.06,0,1,1-1.06-1.05A1.05,1.05,0,0,1,64.73,91.9Z"/><path class="cls-12" d="M82.4,105.15a1.06,1.06,0,1,1-1.06-1.05A1.05,1.05,0,0,1,82.4,105.15Z"/><path class="cls-31" d="M66,104a1,1,0,1,1-1-1A1,1,0,0,1,66,104Z"/><path class="cls-31" d="M62.93,103.12a.62.62,0,0,1-.37-.11.65.65,0,0,1-.14-.89A3.2,3.2,0,0,1,65,100.8a3.16,3.16,0,0,1,2.25.93.63.63,0,0,1-.89.89,1.92,1.92,0,0,0-1.36-.56,1.94,1.94,0,0,0-1.57.8A.62.62,0,0,1,62.93,103.12Z"/><path class="cls-31" d="M65,107.17a3.17,3.17,0,0,1-2.53-1.24.63.63,0,0,1,1-.77,1.93,1.93,0,0,0,3.12-.09.63.63,0,0,1,1,.71A3.18,3.18,0,0,1,65,107.17Z"/><path class="cls-16" d="M19.67,12.7V13a4.83,4.83,0,0,1,1.48-1.29,3.56,3.56,0,0,1,1.74-.42,4,4,0,0,1,2.16.61,4.12,4.12,0,0,1,1.55,1.76,6.15,6.15,0,0,1,.57,2.74,6.69,6.69,0,0,1-.33,2.15,4.78,4.78,0,0,1-.9,1.64,3.84,3.84,0,0,1-1.36,1,4,4,0,0,1-1.69.36,3.53,3.53,0,0,1-1.82-.43,5.34,5.34,0,0,1-1.4-1.28v3.8c0,1.11-.41,1.67-1.22,1.67a1,1,0,0,1-.95-.43,2.8,2.8,0,0,1-.23-1.26V12.72a1.6,1.6,0,0,1,.32-1.08,1.07,1.07,0,0,1,.86-.36,1.17,1.17,0,0,1,.88.37A1.52,1.52,0,0,1,19.67,12.7Zm5,3.69a4.23,4.23,0,0,0-.31-1.72,2.47,2.47,0,0,0-.85-1.11,2,2,0,0,0-1.2-.38A2.25,2.25,0,0,0,20.5,14a3.6,3.6,0,0,0-.71,2.43,3.49,3.49,0,0,0,.71,2.35,2.21,2.21,0,0,0,1.77.84,2.07,2.07,0,0,0,1.17-.36,2.49,2.49,0,0,0,.86-1.1A4.3,4.3,0,0,0,24.63,16.39Z"/><path class="cls-16" d="M38.68,16.43a5.88,5.88,0,0,1-.35,2.09,4.46,4.46,0,0,1-1,1.64,4.62,4.62,0,0,1-1.6,1.06,5.67,5.67,0,0,1-2.08.36,5.42,5.42,0,0,1-2.07-.37A4.67,4.67,0,0,1,30,20.15a4.59,4.59,0,0,1-1-1.63,5.84,5.84,0,0,1-.35-2.09,6.13,6.13,0,0,1,.35-2.1,4.72,4.72,0,0,1,1-1.64,4.39,4.39,0,0,1,1.6-1,6,6,0,0,1,4.15,0,4.7,4.7,0,0,1,1.61,1.06,4.84,4.84,0,0,1,1,1.64A6,6,0,0,1,38.68,16.43Zm-2.54,0A3.84,3.84,0,0,0,35.46,14a2.23,2.23,0,0,0-1.83-.86,2.32,2.32,0,0,0-1.31.38,2.42,2.42,0,0,0-.87,1.14,4.48,4.48,0,0,0-.31,1.75,4.63,4.63,0,0,0,.3,1.74,2.5,2.5,0,0,0,.86,1.13,2.38,2.38,0,0,0,3.16-.47A3.83,3.83,0,0,0,36.14,16.43Z"/><path class="cls-16" d="M47,20.42l-2.24-3.67-1.37,1.3v2A1.54,1.54,0,0,1,43,21.19a1.19,1.19,0,0,1-.88.39,1.14,1.14,0,0,1-.92-.39A1.73,1.73,0,0,1,40.85,20V9.24A2.1,2.1,0,0,1,41.18,8a1.08,1.08,0,0,1,.93-.44,1.12,1.12,0,0,1,.92.4,1.72,1.72,0,0,1,.35,1.17v6.15l2.85-3a6.87,6.87,0,0,1,.8-.76,1.18,1.18,0,0,1,1.47.1,1,1,0,0,1,.31.75c0,.37-.34.87-1,1.49l-1.34,1.23L49,19.14c.19.3.33.54.41.69a1,1,0,0,1,.13.45,1.37,1.37,0,0,1-.33.95,1.12,1.12,0,0,1-.87.35,1,1,0,0,1-.72-.25A6.48,6.48,0,0,1,47,20.42Z"/><path class="cls-16" d="M57.92,17.05H53a3.38,3.38,0,0,0,.35,1.53,2.48,2.48,0,0,0,.9,1,2.4,2.4,0,0,0,1.24.33,3.1,3.1,0,0,0,.83-.1,3.21,3.21,0,0,0,.73-.34,5.26,5.26,0,0,0,.65-.49l.77-.7A.82.82,0,0,1,59,18.1a.88.88,0,0,1,.63.22.75.75,0,0,1,.24.6,1.69,1.69,0,0,1-.26.8,3,3,0,0,1-.82.88,4.24,4.24,0,0,1-1.36.7,5.78,5.78,0,0,1-1.89.28,5,5,0,0,1-3.79-1.39,5.17,5.17,0,0,1-1.36-3.78,6.13,6.13,0,0,1,.34-2.08,4.68,4.68,0,0,1,1-1.65,4.38,4.38,0,0,1,1.58-1,5.75,5.75,0,0,1,2.08-.36,4.88,4.88,0,0,1,2.54.62,4.12,4.12,0,0,1,1.59,1.62,4.18,4.18,0,0,1,.53,2c0,.64-.18,1-.54,1.24A3.42,3.42,0,0,1,57.92,17.05Zm-5-1.43h4.59a3.05,3.05,0,0,0-.7-1.95,2.07,2.07,0,0,0-1.6-.64,2,2,0,0,0-1.55.65A3.26,3.26,0,0,0,53,15.62Z"/><path class="cls-16" d="M62.28,11.51h.27V10a8.28,8.28,0,0,1,0-1,1.32,1.32,0,0,1,.18-.59A1.15,1.15,0,0,1,63.19,8a1.34,1.34,0,0,1,.63-.16,1.25,1.25,0,0,1,.87.36,1.12,1.12,0,0,1,.33.59,6,6,0,0,1,.07,1v1.73H66a1.21,1.21,0,0,1,.83.25.87.87,0,0,1,.28.66.73.73,0,0,1-.41.71,2.52,2.52,0,0,1-1.15.2h-.47V18a7.33,7.33,0,0,0,0,.92,1,1,0,0,0,.22.52.78.78,0,0,0,.59.19,3.15,3.15,0,0,0,.6-.07,2.67,2.67,0,0,1,.6-.08.78.78,0,0,1,.55.24.85.85,0,0,1,.24.61,1,1,0,0,1-.66.94,4.66,4.66,0,0,1-1.92.32,3.27,3.27,0,0,1-1.8-.4,1.84,1.84,0,0,1-.81-1.1,7.82,7.82,0,0,1-.19-1.88V13.33h-.33a1.19,1.19,0,0,1-.84-.26.88.88,0,0,1,0-1.31A1.32,1.32,0,0,1,62.28,11.51Z"/><path class="cls-16" d="M81.46,15.82v2.61a2.72,2.72,0,0,1-.1.83,1.27,1.27,0,0,1-.38.56,3.05,3.05,0,0,1-.7.48,11,11,0,0,1-2.37,1,9.77,9.77,0,0,1-2.49.3,8.17,8.17,0,0,1-2.86-.48,6,6,0,0,1-2.19-1.4A6.09,6.09,0,0,1,69,17.47a8.17,8.17,0,0,1-.49-2.92,8.36,8.36,0,0,1,.48-2.9,5.78,5.78,0,0,1,1.39-2.24A6.25,6.25,0,0,1,72.58,8a8.72,8.72,0,0,1,3-.48A7.49,7.49,0,0,1,78,7.88a5.47,5.47,0,0,1,1.72.93,4.07,4.07,0,0,1,1,1.17A2.46,2.46,0,0,1,81,11.09a1.14,1.14,0,0,1-.38.88,1.28,1.28,0,0,1-.92.37,1.15,1.15,0,0,1-.57-.14,1.16,1.16,0,0,1-.46-.39,10,10,0,0,0-.87-1.2,2.69,2.69,0,0,0-1-.69,3.56,3.56,0,0,0-1.52-.28,4.21,4.21,0,0,0-1.71.33,3.58,3.58,0,0,0-1.29,1,4.37,4.37,0,0,0-.81,1.53,6.74,6.74,0,0,0-.28,2,5.55,5.55,0,0,0,1.09,3.69,3.83,3.83,0,0,0,3.07,1.29,6.52,6.52,0,0,0,1.8-.25,9.4,9.4,0,0,0,1.7-.72v-2.2H76.8A2.26,2.26,0,0,1,75.64,16a.83.83,0,0,1-.39-.79,1,1,0,0,1,.33-.75,1.24,1.24,0,0,1,.89-.29H79.6a3.91,3.91,0,0,1,1,.1,1.14,1.14,0,0,1,.65.45A1.91,1.91,0,0,1,81.46,15.82Z"/><path class="cls-16" d="M93.39,16.43A6.11,6.11,0,0,1,93,18.52a4.74,4.74,0,0,1-1,1.64,4.62,4.62,0,0,1-1.6,1.06,5.71,5.71,0,0,1-2.08.36,5.42,5.42,0,0,1-2.07-.37,4.56,4.56,0,0,1-2.61-2.69,5.84,5.84,0,0,1-.35-2.09,5.9,5.9,0,0,1,.35-2.1,4.72,4.72,0,0,1,1-1.64,4.39,4.39,0,0,1,1.6-1,6,6,0,0,1,4.15,0A4.45,4.45,0,0,1,93,14.35,5.79,5.79,0,0,1,93.39,16.43Zm-2.54,0A3.84,3.84,0,0,0,90.17,14a2.24,2.24,0,0,0-1.83-.86,2.32,2.32,0,0,0-1.31.38,2.42,2.42,0,0,0-.87,1.14,4.48,4.48,0,0,0-.31,1.75,4.63,4.63,0,0,0,.3,1.74A2.5,2.5,0,0,0,87,19.3a2.38,2.38,0,0,0,3.16-.47A3.83,3.83,0,0,0,90.85,16.43Z"/><text class="cls-32" transform="translate(16.92 154.93)"><tspan class="cls-33">P</tspan><tspan x="7.04" y="0">o</tspan><tspan class="cls-34" x="13.61" y="0">k</tspan><tspan x="19.42" y="0">émon Go: Tips y links pa</tspan><tspan class="cls-35" x="146.42" y="0">r</tspan><tspan x="150.41" y="0">a empezar a juga</tspan><tspan class="cls-36" x="239.14" y="0">r</tspan><tspan x="242.64" y="0">, </tspan><tspan x="0" y="13.2">calculado</tspan><tspan class="cls-35" x="50.05" y="13.2">r</tspan><tspan x="54.04" y="13.2">as pa</tspan><tspan class="cls-35" x="81.72" y="13.2">r</tspan><tspan x="85.71" y="13.2">a combates y las mejores redes </tspan><tspan x="0" y="26.4">pa</tspan><tspan class="cls-35" x="12.88" y="26.4">r</tspan><tspan x="16.87" y="26.4">a que te cone</tspan><tspan class="cls-37" x="87.46" y="26.4">c</tspan><tspan x="93.37" y="26.4">tes con </tspan><tspan class="cls-38" x="134.38" y="26.4">o</tspan><tspan x="140.73" y="26.4">tros jugadores</tspan></text></svg>