<svg id="Camada_1" data-name="Camada 1" xmlns="http://www.w3.org/2000/svg" viewBox="0 0 84.63 31.48"><defs><style>.cls-1{fill:#333;}</style></defs><title>logo poketMon-r01</title><path class="cls-1" d="M26.46,3.57a1.19,1.19,0,0,1-.58-.15,1.2,1.2,0,0,1-.61-.73,1.23,1.23,0,0,1,.1-.94,1.18,1.18,0,0,1,.73-.6,1.24,1.24,0,0,1,.72,2.37A1.49,1.49,0,0,1,26.46,3.57Zm0-1.67h-.13a.42.42,0,0,0-.25.22.42.42,0,0,0,0,.33.49.49,0,0,0,.21.26.5.5,0,0,0,.34,0,.43.43,0,0,0-.13-.85Z"/><path class="cls-1" d="M19,29.09a1.19,1.19,0,0,1-.58-.15,1.22,1.22,0,0,1-.51-1.68,1.22,1.22,0,0,1,.73-.6A1.24,1.24,0,0,1,19.39,29,1.13,1.13,0,0,1,19,29.09Zm0-1.68-.13,0a.4.4,0,0,0-.25.21.42.42,0,0,0,0,.33.46.46,0,0,0,.21.26.41.41,0,0,0,.34,0,.43.43,0,0,0,.29-.54A.44.44,0,0,0,19,27.41Z"/><path class="cls-1" d="M22.53,29.77l.31-.31a.39.39,0,0,0,0-.56.4.4,0,0,0-.57,0l-.3.3-.31-.3a.4.4,0,0,0-.57,0,.39.39,0,0,0,0,.56l.31.31-.31.31a.4.4,0,1,0,.57.57l.31-.31.3.31a.4.4,0,0,0,.29.12.41.41,0,0,0,.28-.69Z"/><path class="cls-1" d="M19.17,2.29l.31-.3a.42.42,0,0,0,0-.57.4.4,0,0,0-.57,0l-.31.31-.31-.31a.39.39,0,0,0-.56,0,.4.4,0,0,0,0,.57l.3.3-.3.31a.4.4,0,0,0,0,.57.38.38,0,0,0,.28.12.39.39,0,0,0,.28-.12l.31-.31.31.31a.39.39,0,0,0,.28.12.4.4,0,0,0,.29-.12.42.42,0,0,0,0-.57Z"/><path class="cls-1" d="M19.72,24.62a.67.67,0,1,1-.67-.67A.67.67,0,0,1,19.72,24.62Z"/><path class="cls-1" d="M32.41,5.36a.9.9,0,0,0-.88-.59H12.44a.89.89,0,0,0-.88.59.85.85,0,0,0,.21,1l7.35,7.35V21a.91.91,0,0,0,.28.67l3.82,3.82a.88.88,0,0,0,.67.28,1,1,0,0,0,.37-.07.9.9,0,0,0,.59-.88V13.75L32.2,6.4A.85.85,0,0,0,32.41,5.36Z"/><path class="cls-1" d="M39.16,13.76H34.87v2.75h3.58a1.08,1.08,0,0,1,.75.22.78.78,0,0,1,.24.6.72.72,0,0,1-.25.59,1.06,1.06,0,0,1-.74.22H34.87v3.54a1.44,1.44,0,0,1-.3,1,1,1,0,0,1-.78.33,1,1,0,0,1-.79-.33,1.46,1.46,0,0,1-.3-1V13.42a1.74,1.74,0,0,1,.14-.77.86.86,0,0,1,.43-.43,1.85,1.85,0,0,1,.76-.13h5.13a1.09,1.09,0,0,1,.77.23.76.76,0,0,1,.25.6.78.78,0,0,1-.25.61A1.09,1.09,0,0,1,39.16,13.76Z"/><path class="cls-1" d="M42.47,14a1.07,1.07,0,0,1-.71-.26,1,1,0,0,1,0-1.42,1,1,0,0,1,.7-.28,1,1,0,0,1,.69.25.89.89,0,0,1,.3.72.92.92,0,0,1-.29.73A1,1,0,0,1,42.47,14Zm1,2.06v5.78a1.31,1.31,0,0,1-.28.91,1,1,0,0,1-.73.31.9.9,0,0,1-.71-.32,1.35,1.35,0,0,1-.28-.9V16.07a1.28,1.28,0,0,1,.28-.89.91.91,0,0,1,.71-.3,1,1,0,0,1,.73.3A1.14,1.14,0,0,1,43.46,16Z"/><path class="cls-1" d="M45.53,21.79V13.12a1.34,1.34,0,0,1,.27-.91.87.87,0,0,1,.72-.31.93.93,0,0,1,.73.31,1.27,1.27,0,0,1,.28.91v8.67a1.32,1.32,0,0,1-.28.91,1,1,0,0,1-.73.31.92.92,0,0,1-.72-.32A1.34,1.34,0,0,1,45.53,21.79Z"/><path class="cls-1" d="M49.7,15.05h.22v-1.2a7.56,7.56,0,0,1,0-.76,1.13,1.13,0,0,1,.14-.47.83.83,0,0,1,.34-.33.9.9,0,0,1,.49-.13,1,1,0,0,1,.69.28,1,1,0,0,1,.26.47,5,5,0,0,1,.05.78v1.36h.73a1,1,0,0,1,.65.2.68.68,0,0,1,.23.52.57.57,0,0,1-.32.56,2,2,0,0,1-.91.16h-.38v3.68a4.51,4.51,0,0,0,0,.72.73.73,0,0,0,.17.41.59.59,0,0,0,.47.16,2.59,2.59,0,0,0,.47-.06,2.59,2.59,0,0,1,.47-.06.61.61,0,0,1,.44.19.65.65,0,0,1,.19.48.79.79,0,0,1-.53.74,3.53,3.53,0,0,1-1.51.26,2.59,2.59,0,0,1-1.42-.32,1.44,1.44,0,0,1-.64-.87,5.94,5.94,0,0,1-.15-1.49V16.49h-.26a.93.93,0,0,1-.66-.2.68.68,0,0,1-.23-.52.66.66,0,0,1,.24-.52A1.07,1.07,0,0,1,49.7,15.05Z"/><path class="cls-1" d="M56.89,20.12v1.67a1.27,1.27,0,0,1-.29.91,1,1,0,0,1-.72.31.92.92,0,0,1-.71-.31,1.31,1.31,0,0,1-.28-.91V16.22c0-.89.32-1.34,1-1.34a.81.81,0,0,1,.72.31,1.67,1.67,0,0,1,.24.93,3.55,3.55,0,0,1,.74-.93,1.52,1.52,0,0,1,1-.31,2.57,2.57,0,0,1,1.22.31,1,1,0,0,1,.59.84.84.84,0,0,1-.8.84,2.72,2.72,0,0,1-.53-.14,2.46,2.46,0,0,0-.74-.13,1.07,1.07,0,0,0-.72.23,1.48,1.48,0,0,0-.43.68A5.17,5.17,0,0,0,57,18.59Q56.89,19.22,56.89,20.12Z"/><path class="cls-1" d="M68.39,18.94a4.84,4.84,0,0,1-.28,1.65,3.86,3.86,0,0,1-.81,1.3,3.64,3.64,0,0,1-1.26.83A4.48,4.48,0,0,1,64.4,23a4.28,4.28,0,0,1-1.64-.3,3.45,3.45,0,0,1-1.25-.84,3.49,3.49,0,0,1-.81-1.28,4.84,4.84,0,0,1-.27-1.65,4.9,4.9,0,0,1,.27-1.66A3.85,3.85,0,0,1,61.5,16a3.48,3.48,0,0,1,1.26-.82,4.78,4.78,0,0,1,3.28,0,3.46,3.46,0,0,1,1.27.83,3.74,3.74,0,0,1,.8,1.29A4.61,4.61,0,0,1,68.39,18.94Zm-2,0a3,3,0,0,0-.54-1.9,1.73,1.73,0,0,0-1.44-.68,1.82,1.82,0,0,0-1,.3,1.94,1.94,0,0,0-.69.9,4.06,4.06,0,0,0,0,2.75,2,2,0,0,0,.68.9,1.78,1.78,0,0,0,1.05.31,1.74,1.74,0,0,0,1.44-.69A3,3,0,0,0,66.38,18.94Z"/><path class="cls-1" d="M76.4,20.39a2.45,2.45,0,0,1-.4,1.42,2.49,2.49,0,0,1-1.19.89,5.44,5.44,0,0,1-1.92.31,4.62,4.62,0,0,1-1.84-.33,2.7,2.7,0,0,1-1.14-.83,1.68,1.68,0,0,1-.36-1,.73.73,0,0,1,.23-.56.79.79,0,0,1,.59-.24.69.69,0,0,1,.49.16,1.55,1.55,0,0,1,.32.43,2.28,2.28,0,0,0,.73.8,2.3,2.3,0,0,0,1.17.26,1.7,1.7,0,0,0,1-.27.76.76,0,0,0,.38-.61.83.83,0,0,0-.4-.77,5,5,0,0,0-1.31-.46,10.44,10.44,0,0,1-1.68-.54,2.8,2.8,0,0,1-1-.74,1.71,1.71,0,0,1-.39-1.14A2,2,0,0,1,70,16.05a2.49,2.49,0,0,1,1.06-.86,4.11,4.11,0,0,1,1.69-.31,5.36,5.36,0,0,1,1.39.16,3.32,3.32,0,0,1,1,.43,2.27,2.27,0,0,1,.63.6,1.18,1.18,0,0,1,.21.64.74.74,0,0,1-.23.57.93.93,0,0,1-.65.22.81.81,0,0,1-.53-.18,3.16,3.16,0,0,1-.49-.52,1.57,1.57,0,0,0-1.37-.65,1.67,1.67,0,0,0-.9.23.68.68,0,0,0-.36.58.62.62,0,0,0,.26.51,2.14,2.14,0,0,0,.71.34l1.23.32a6.47,6.47,0,0,1,1.52.54,2.61,2.61,0,0,1,.9.74A1.67,1.67,0,0,1,76.4,20.39Z"/></svg>