<svg id="Camada_1" data-name="Camada 1" xmlns="http://www.w3.org/2000/svg" viewBox="0 0 30 30"><defs><style>.cls-1{fill:#fff;}</style></defs><title>ICONS</title><circle class="cls-1" cx="23.85" cy="6.09" r="0.88"/><circle class="cls-1" cx="15.06" cy="14.88" r="6.15"/><path class="cls-1" d="M25.61-.06H4.39A4.4,4.4,0,0,0,0,4.34V25.55a4.4,4.4,0,0,0,4.39,4.39H25.61A4.4,4.4,0,0,0,30,25.55V4.34A4.4,4.4,0,0,0,25.61-.06ZM15.06,22.79A7.91,7.91,0,1,1,23,14.88,7.92,7.92,0,0,1,15.06,22.79ZM23.85,8.73a2.64,2.64,0,1,1,2.63-2.64A2.64,2.64,0,0,1,23.85,8.73Z"/></svg>