<svg id="Camada_1" data-name="Camada 1" xmlns="http://www.w3.org/2000/svg" viewBox="0 0 111.08 34.63"><defs><style>.cls-1{fill:#f53e28;}.cls-2{fill:#333;}.cls-3{fill:#fff;}.cls-4{fill:#4c241d;}.cls-5{fill:#edebdc;}</style></defs><title>logo poketMon-r01</title><rect class="cls-1" x="-0.1" y="0.38" width="111.28" height="34.52"/><path class="cls-2" d="M23.5,12.29H6.17A3.12,3.12,0,0,0,3.05,15.4v6.5a11.78,11.78,0,0,0,20.11,8.33,11.67,11.67,0,0,0,3.45-8.33V15.4A3.11,3.11,0,0,0,23.5,12.29Z"/><path class="cls-3" d="M14.73,23.62A10.71,10.71,0,0,0,25.4,12.86H4.06A10.71,10.71,0,0,0,14.73,23.62Z"/><path class="cls-2" d="M14.73,24.12A11.23,11.23,0,0,1,3.56,12.86a.5.5,0,0,1,.5-.5H25.4a.5.5,0,0,1,.49.5A11.22,11.22,0,0,1,14.73,24.12ZM4.57,13.36a10.17,10.17,0,0,0,20.32,0Z"/><path class="cls-1" d="M18.41,2.93A10.68,10.68,0,0,0,4.06,12.86H25.4A10.51,10.51,0,0,0,22,5.14"/><path class="cls-2" d="M25.4,13.36H4.06a.5.5,0,0,1-.5-.5,11.2,11.2,0,0,1,15-10.4.5.5,0,0,1-.35.94,10.18,10.18,0,0,0-13.66,9H24.89a10,10,0,0,0-3.21-6.85.5.5,0,0,1,0-.71.49.49,0,0,1,.7,0,11,11,0,0,1,3.53,8.08A.49.49,0,0,1,25.4,13.36Z"/><path class="cls-1" d="M20.59,4c-.17-.12-.36-.23-.54-.34"/><path class="cls-4" d="M20.59,4.54a.53.53,0,0,1-.27-.08,5.58,5.58,0,0,0-.52-.32.5.5,0,0,1-.18-.68.51.51,0,0,1,.68-.19l.57.35a.5.5,0,0,1,.14.69A.51.51,0,0,1,20.59,4.54Z"/><path class="cls-5" d="M18.13,13a3.41,3.41,0,1,1-3.4-3.4A3.4,3.4,0,0,1,18.13,13Z"/><path class="cls-2" d="M14.73,16.86A3.91,3.91,0,1,1,18.63,13,3.91,3.91,0,0,1,14.73,16.86Zm0-6.82A2.91,2.91,0,1,0,17.64,13,2.91,2.91,0,0,0,14.73,10Z"/><path class="cls-5" d="M16.21,13a1.49,1.49,0,1,1-1.48-1.48A1.49,1.49,0,0,1,16.21,13Z"/><path class="cls-2" d="M14.73,14.94a2,2,0,1,1,2-2A2,2,0,0,1,14.73,14.94Zm0-3a1,1,0,1,0,1,1A1,1,0,0,0,14.73,12Z"/><path class="cls-3" d="M14.83,27.28a.5.5,0,0,1-.5-.5V25.29a.5.5,0,1,1,1,0v1.49A.49.49,0,0,1,14.83,27.28Z"/><path class="cls-3" d="M14.83,30.76a.49.49,0,0,1-.5-.49v-1.5a.5.5,0,1,1,1,0v1.5A.49.49,0,0,1,14.83,30.76Z"/><path class="cls-3" d="M13.83,28.27H12.34a.5.5,0,1,1,0-1h1.49a.5.5,0,1,1,0,1Z"/><path class="cls-3" d="M17.32,28.27h-1.5a.5.5,0,1,1,0-1h1.5a.5.5,0,0,1,0,1Z"/><path class="cls-2" d="M1.53,9.47a1.57,1.57,0,0,1-.72-.18A1.54,1.54,0,1,1,3,7.49,1.55,1.55,0,0,1,2,9.41,1.68,1.68,0,0,1,1.53,9.47Zm0-2.07a.41.41,0,0,0-.16,0,.52.52,0,0,0-.32.26.53.53,0,0,0,0,.41.52.52,0,0,0,.26.32.54.54,0,0,0,.41,0,.54.54,0,0,0-.15-1Z"/><path class="cls-3" d="M14.81,29.33a1.54,1.54,0,1,1,1.54-1.53A1.54,1.54,0,0,1,14.81,29.33Zm0-2.07a.54.54,0,0,0-.54.54.54.54,0,1,0,1.08,0A.54.54,0,0,0,14.81,27.26Z"/><path class="cls-2" d="M25.87,5.24a.51.51,0,0,1-.36-.15.5.5,0,0,1,0-.7L27,2.92a.5.5,0,0,1,.71,0,.5.5,0,0,1,0,.7L26.22,5.09A.5.5,0,0,1,25.87,5.24Z"/><path class="cls-2" d="M27.33,5.24A.5.5,0,0,1,27,5.09L25.51,3.62a.5.5,0,0,1,0-.7.5.5,0,0,1,.71,0l1.47,1.47a.5.5,0,0,1,0,.7A.51.51,0,0,1,27.33,5.24Z"/><path class="cls-2" d="M7.58,2.29a.83.83,0,1,1-.83-.83A.83.83,0,0,1,7.58,2.29Z"/><path class="cls-2" d="M29.55,27.3a.83.83,0,1,1-.83-.83A.83.83,0,0,1,29.55,27.3Z"/><path class="cls-3" d="M29.93,12.88v.27A4.38,4.38,0,0,1,31.24,12a3.13,3.13,0,0,1,1.54-.37,3.61,3.61,0,0,1,1.9.53,3.67,3.67,0,0,1,1.37,1.56,5.36,5.36,0,0,1,.51,2.42,6,6,0,0,1-.29,1.9,4.3,4.3,0,0,1-.8,1.45,3.51,3.51,0,0,1-1.2.9,3.56,3.56,0,0,1-1.49.32,3.07,3.07,0,0,1-1.61-.39,4.45,4.45,0,0,1-1.24-1.13v3.36c0,1-.36,1.48-1.07,1.48a.87.87,0,0,1-.84-.39,2.34,2.34,0,0,1-.2-1.11V12.9a1.45,1.45,0,0,1,.27-1,1,1,0,0,1,.77-.32,1,1,0,0,1,.77.33A1.3,1.3,0,0,1,29.93,12.88Zm4.38,3.25A3.86,3.86,0,0,0,34,14.61a2.19,2.19,0,0,0-.75-1,1.76,1.76,0,0,0-1.06-.34,2,2,0,0,0-1.56.72A3.23,3.23,0,0,0,30,16.17a3.13,3.13,0,0,0,.63,2.08,2,2,0,0,0,1.56.74,1.82,1.82,0,0,0,1-.32,2.28,2.28,0,0,0,.77-1A3.85,3.85,0,0,0,34.31,16.13Z"/><path class="cls-3" d="M46.72,16.17A5.19,5.19,0,0,1,46.41,18a4,4,0,0,1-.9,1.45,3.78,3.78,0,0,1-1.41.93,4.87,4.87,0,0,1-1.84.33,4.81,4.81,0,0,1-1.83-.33,4,4,0,0,1-1.4-.94,3.83,3.83,0,0,1-.9-1.44,5.15,5.15,0,0,1-.31-1.84,5.26,5.26,0,0,1,.31-1.86A4.22,4.22,0,0,1,39,12.87,3.88,3.88,0,0,1,40.43,12a5.27,5.27,0,0,1,3.67,0,4,4,0,0,1,1.42.94,4.09,4.09,0,0,1,.9,1.44A5.42,5.42,0,0,1,46.72,16.17Zm-2.24,0a3.37,3.37,0,0,0-.6-2.13,2,2,0,0,0-1.62-.76,2,2,0,0,0-1.16.34,2.19,2.19,0,0,0-.77,1,4.13,4.13,0,0,0-.27,1.55,4,4,0,0,0,.27,1.53,2.21,2.21,0,0,0,.76,1,2,2,0,0,0,1.17.35,2,2,0,0,0,1.62-.77A3.36,3.36,0,0,0,44.48,16.17Z"/><path class="cls-3" d="M54.06,19.69l-2-3.24L50.87,17.6v1.77a1.35,1.35,0,0,1-.34,1,1.08,1.08,0,0,1-.78.35,1,1,0,0,1-.81-.35,1.47,1.47,0,0,1-.3-1V9.82a1.9,1.9,0,0,1,.29-1.13,1,1,0,0,1,.82-.39,1.06,1.06,0,0,1,.82.35,1.57,1.57,0,0,1,.3,1v5.42l2.51-2.63a6,6,0,0,1,.72-.67,1,1,0,0,1,1.29.08.88.88,0,0,1,.28.67c0,.33-.3.76-.91,1.31L53.57,15l2.3,3.6c.16.27.29.47.36.61a.93.93,0,0,1,.11.4,1.17,1.17,0,0,1-.29.84,1,1,0,0,1-.77.31.89.89,0,0,1-.63-.22A6.16,6.16,0,0,1,54.06,19.69Z"/><path class="cls-3" d="M63.71,16.72H59.33a3,3,0,0,0,.31,1.34,2.12,2.12,0,0,0,.79.88,2.08,2.08,0,0,0,1.1.29,2.81,2.81,0,0,0,.73-.09,2.3,2.3,0,0,0,.64-.29,6.71,6.71,0,0,0,.58-.43c.17-.16.4-.36.68-.63a.72.72,0,0,1,.49-.14.81.81,0,0,1,.55.18.67.67,0,0,1,.22.54,1.45,1.45,0,0,1-.24.71,2.71,2.71,0,0,1-.72.77,4,4,0,0,1-1.2.62,5,5,0,0,1-1.67.25,4.47,4.47,0,0,1-3.35-1.23,4.57,4.57,0,0,1-1.19-3.34,5.4,5.4,0,0,1,.29-1.83,4.09,4.09,0,0,1,.86-1.46,3.86,3.86,0,0,1,1.39-.93,5.19,5.19,0,0,1,1.84-.32,4.36,4.36,0,0,1,2.25.55,3.69,3.69,0,0,1,1.4,1.43,3.8,3.8,0,0,1,.47,1.79,1.12,1.12,0,0,1-.48,1.09A3,3,0,0,1,63.71,16.72Zm-4.38-1.27h4.06a2.76,2.76,0,0,0-.62-1.72,1.9,1.9,0,0,0-1.42-.57,1.82,1.82,0,0,0-1.37.58A2.91,2.91,0,0,0,59.33,15.45Z"/><path class="cls-3" d="M67.56,11.82h.24V10.48c0-.36,0-.65,0-.85A1.27,1.27,0,0,1,68,9.1a1,1,0,0,1,.38-.37,1,1,0,0,1,.55-.14,1.12,1.12,0,0,1,.77.31,1,1,0,0,1,.29.53,4.75,4.75,0,0,1,.06.87v1.52h.82a1,1,0,0,1,.72.23.72.72,0,0,1,.25.57.67.67,0,0,1-.35.64,2.33,2.33,0,0,1-1,.18H70v4.11q0,.52,0,.81a.81.81,0,0,0,.2.45.67.67,0,0,0,.52.18,2.48,2.48,0,0,0,.53-.07,2.56,2.56,0,0,1,.53-.07.67.67,0,0,1,.49.22.72.72,0,0,1,.21.53.89.89,0,0,1-.59.83,4,4,0,0,1-1.69.29,3,3,0,0,1-1.59-.35,1.64,1.64,0,0,1-.71-1,6.66,6.66,0,0,1-.17-1.66V13.44h-.29a1.07,1.07,0,0,1-.74-.23.76.76,0,0,1-.25-.59.7.7,0,0,1,.26-.57A1.19,1.19,0,0,1,67.56,11.82Z"/><path class="cls-3" d="M77.58,18.7l-1.92-7.65v8.29a1.46,1.46,0,0,1-.31,1,1.12,1.12,0,0,1-1.62,0,1.54,1.54,0,0,1-.31-1V9.84a1.2,1.2,0,0,1,.41-1.06,2,2,0,0,1,1.11-.28h.75a2.7,2.7,0,0,1,1,.13.84.84,0,0,1,.45.44,7,7,0,0,1,.34,1l1.74,6.58L81,10.11a7.24,7.24,0,0,1,.33-1,.83.83,0,0,1,.46-.44,2.63,2.63,0,0,1,1-.13h.75a2,2,0,0,1,1.11.28A1.2,1.2,0,0,1,85,9.84v9.5a1.51,1.51,0,0,1-.31,1,1.06,1.06,0,0,1-.83.35,1,1,0,0,1-.79-.35,1.46,1.46,0,0,1-.31-1V11.05L80.84,18.7c-.12.5-.22.86-.3,1.1a1.54,1.54,0,0,1-.44.63,1.49,1.49,0,0,1-1.61.1,1.38,1.38,0,0,1-.46-.47,2.51,2.51,0,0,1-.25-.63C77.71,19.2,77.65,19,77.58,18.7Z"/><path class="cls-3" d="M95.72,16.17A5.19,5.19,0,0,1,95.41,18a4,4,0,0,1-.9,1.45,3.86,3.86,0,0,1-1.41.93,4.9,4.9,0,0,1-1.84.33,4.81,4.81,0,0,1-1.83-.33A4,4,0,0,1,87.12,18a5.38,5.38,0,0,1-.3-1.84,5.26,5.26,0,0,1,.31-1.86A3.93,3.93,0,0,1,88,12.87,3.88,3.88,0,0,1,89.43,12a4.89,4.89,0,0,1,1.83-.33A4.94,4.94,0,0,1,93.1,12a4.05,4.05,0,0,1,1.42.94,3.93,3.93,0,0,1,.89,1.44A5.19,5.19,0,0,1,95.72,16.17Zm-2.24,0A3.31,3.31,0,0,0,92.87,14a1.94,1.94,0,0,0-1.61-.76,2,2,0,0,0-1.16.34,2.19,2.19,0,0,0-.77,1,4.13,4.13,0,0,0-.27,1.55,4,4,0,0,0,.27,1.53,2.14,2.14,0,0,0,.76,1,2,2,0,0,0,1.17.35,2,2,0,0,0,1.61-.77A3.3,3.3,0,0,0,93.48,16.17Z"/><path class="cls-3" d="M99.51,12.86v.27A4,4,0,0,1,100.8,12a3.5,3.5,0,0,1,1.61-.37A3.16,3.16,0,0,1,104,12a2.38,2.38,0,0,1,1,1.09,2.47,2.47,0,0,1,.29.88,9.8,9.8,0,0,1,.07,1.22v4.16a1.47,1.47,0,0,1-.31,1,1,1,0,0,1-.8.35,1.05,1.05,0,0,1-.81-.35,1.47,1.47,0,0,1-.31-1V15.63a3.64,3.64,0,0,0-.31-1.69,1.24,1.24,0,0,0-1.22-.59,1.78,1.78,0,0,0-1.09.36,2,2,0,0,0-.72,1,6.86,6.86,0,0,0-.17,1.87v2.8a1.47,1.47,0,0,1-.31,1,1.05,1.05,0,0,1-.82.34,1,1,0,0,1-.79-.35,1.47,1.47,0,0,1-.31-1V12.9a1.39,1.39,0,0,1,.28-1,1,1,0,0,1,.76-.32,1.08,1.08,0,0,1,.53.14,1.11,1.11,0,0,1,.38.42A1.42,1.42,0,0,1,99.51,12.86Z"/></svg>