<svg id="Camada_1" data-name="Camada 1" xmlns="http://www.w3.org/2000/svg" viewBox="0 0 300.13 120.05"><defs><style>.cls-1{fill:#c5daea;}.cls-2{fill:#7bc7ff;}.cls-3{fill:#33363a;}.cls-4{fill:#ba8663;}.cls-5{fill:#a57555;}.cls-6{fill:#4b6466;}.cls-7{fill:#ed5564;}.cls-8{fill:#12b2b2;}.cls-9{fill:#fff;}.cls-10{fill:#ff8f8f;}.cls-11{fill:#d8e5ea;}.cls-12{fill:#4c241d;}.cls-13{fill:#9adbba;}.cls-14{fill:#c9cdd3;}.cls-15{fill:#f5f7fa;}.cls-16{fill:#333;}.cls-17{fill:#efefa8;}.cls-18{fill:#ffded5;}.cls-19{fill:#6b4f5b;}.cls-20{fill:#9dc1e4;}.cls-21{fill:#e66353;}.cls-22{fill:#05214e;}.cls-23{fill:#266db9;}.cls-24{fill:#fc0;}.cls-25{fill:#1d3974;}.cls-26{fill:#296bb7;}.cls-27{fill:#bcbdc0;}.cls-28{fill:#06214f;}.cls-29{fill:#6ebdf9;}.cls-30{fill:#edebdc;}.cls-31{fill:#ffce56;}</style></defs><title>ICONS</title><path class="cls-1" d="M294.21,77.08A29.12,29.12,0,1,1,265.09,48,29.11,29.11,0,0,1,294.21,77.08Z"/><path class="cls-1" d="M79.6,77c0,20.8-16.61,37.67-37.1,37.67S5.4,97.83,5.4,77,22,39.35,42.5,39.35,79.6,56.22,79.6,77Z"/><path class="cls-1" d="M195.06,40.05V30.63a2.6,2.6,0,0,0-2.79-2.35V11.79c0-5.2-5-9.41-11.19-9.4l-61.49,0c-6.18,0-11.18,4.22-11.18,9.42l.07,94.2c0,5.2,5,9.42,11.19,9.41l61.49,0c6.17,0,11.18-4.22,11.17-9.43l0-47.1a2.6,2.6,0,0,0,2.79-2.35V47.12a2.61,2.61,0,0,0-2.79-2.36V42.41A2.61,2.61,0,0,0,195.06,40.05Z"/><path class="cls-1" d="M236.37,45.6A2.35,2.35,0,0,1,234,48H197.94a2.35,2.35,0,0,1-2.36-2.36h0a2.36,2.36,0,0,1,2.36-2.36H234a2.36,2.36,0,0,1,2.36,2.36Z"/><path class="cls-1" d="M234,49.11H197.94a3.51,3.51,0,1,1,0-7H234a3.51,3.51,0,1,1,0,7Zm-36.07-4.72a1.22,1.22,0,1,0,0,2.43H234a1.22,1.22,0,1,0,0-2.43Z"/><path class="cls-1" d="M218.59,47.53A14.26,14.26,0,0,1,204.33,61.8H198a14.27,14.27,0,0,1-14.27-14.27V43.77A14.27,14.27,0,0,1,198,29.5h6.37a14.26,14.26,0,0,1,14.26,14.27Z"/><path class="cls-1" d="M218.59,51.15a14.26,14.26,0,0,1-14.26,14.27H198a14.27,14.27,0,0,1-14.27-14.27V47.39A14.27,14.27,0,0,1,198,33.12h6.37a14.26,14.26,0,0,1,14.26,14.27Z"/><path class="cls-1" d="M204.33,63H198a15.43,15.43,0,0,1-15.41-15.42V43.77A15.43,15.43,0,0,1,198,28.35h6.37a15.43,15.43,0,0,1,15.41,15.42v3.76A15.44,15.44,0,0,1,204.33,63ZM198,30.64a13.14,13.14,0,0,0-13.12,13.13v3.76A13.14,13.14,0,0,0,198,60.66h6.37a13.14,13.14,0,0,0,13.12-13.13V43.77a13.14,13.14,0,0,0-13.12-13.13Z"/><polygon class="cls-1" points="201.15 76.85 153.9 91.04 153.9 115.9 248.39 115.9 248.39 91.04 201.15 76.85"/><polygon class="cls-1" points="201.15 76.85 153.9 91.04 153.9 115.9 248.39 115.9 248.39 91.04 201.15 76.85"/><polygon class="cls-1" points="201.15 89.95 153.9 91.04 153.9 115.9 248.39 115.9 248.39 91.04 201.15 89.95"/><polygon class="cls-1" points="201.15 89.26 153.9 90.37 153.9 115.9 248.39 115.9 248.39 90.37 201.15 89.26"/><path class="cls-1" d="M248.39,117.05H153.9a1.14,1.14,0,0,1-1.15-1.15V91a1.15,1.15,0,0,1,.82-1.1l47.25-14.19a1.2,1.2,0,0,1,.65,0l47.25,14.19a1.15,1.15,0,0,1,.82,1.1V115.9A1.14,1.14,0,0,1,248.39,117.05ZM155,114.76h92.21V91.89L201.15,78,155,91.89Z"/><polygon class="cls-1" points="190.72 64.13 188.72 87.7 201.15 93.89 213.57 87.7 211.57 64.13 190.72 64.13"/><path class="cls-1" d="M201.14,96.18a1.21,1.21,0,0,1-.58-.16l-12.43-7.34a1.12,1.12,0,0,1-.55-1.08l2-23.57A1.15,1.15,0,0,1,190.72,63h20.85A1.15,1.15,0,0,1,212.71,64l2,23.57a1.14,1.14,0,0,1-.55,1.08L201.73,96A1.21,1.21,0,0,1,201.14,96.18Zm-11.22-9.1,11.22,6.62,11.23-6.62-1.85-21.81H191.77Z"/><polygon class="cls-1" points="190.72 64.13 188.72 87.7 201.15 89.95 213.57 87.7 211.57 64.13 190.72 64.13"/><path class="cls-1" d="M201.14,91.64l-.25,0-12.43-2.8a1.15,1.15,0,0,1-.89-1.21l2-23.57A1.14,1.14,0,0,1,190.72,63h20.85A1.15,1.15,0,0,1,212.71,64l2,23.57a1.14,1.14,0,0,1-.88,1.21l-12.43,2.8A1.15,1.15,0,0,1,201.14,91.64Zm-11.2-4.84,11.2,2.52,11.21-2.52-1.83-21.53H191.77Z"/><path class="cls-1" d="M184.45,60a5.91,5.91,0,0,1,0-11.81"/><path class="cls-1" d="M217.84,48.14a5.91,5.91,0,0,1,0,11.81"/><path class="cls-1" d="M212.33,42.69l-10.19-1.81a6,6,0,0,0-2,0L190,42.69a5.7,5.7,0,0,0-4.69,5.6V65.08a5.65,5.65,0,0,0,2.09,4.4l10.18,8.34a5.72,5.72,0,0,0,7.21,0l10.19-8.34a5.67,5.67,0,0,0,2.08-4.4V48.29A5.7,5.7,0,0,0,212.33,42.69Z"/><path class="cls-1" d="M212.33,42.69l-10.19,4.94a5.55,5.55,0,0,0-2,0L190,42.69a5.7,5.7,0,0,0-4.69,5.6V65.08a5.65,5.65,0,0,0,2.09,4.4l10.18,8.34a5.72,5.72,0,0,0,7.21,0l10.19-8.34a5.67,5.67,0,0,0,2.08-4.4V48.29A5.7,5.7,0,0,0,212.33,42.69Z"/><path class="cls-1" d="M224.89,54.05a7.05,7.05,0,0,0-7-7,1.16,1.16,0,0,0-.59.17l-.23,0a1.14,1.14,0,0,0-1.14,1.14V65.08a4.54,4.54,0,0,1-1.67,3.52L204,76.93a4.64,4.64,0,0,1-5.75,0L188.08,68.6a4.54,4.54,0,0,1-1.67-3.52V48.29a1.14,1.14,0,0,0-1.14-1.14l-.23,0a1.16,1.16,0,0,0-.59-.17,7,7,0,0,0-.33,14.08v4a6.83,6.83,0,0,0,2.51,5.29l10.19,8.33a6.81,6.81,0,0,0,8.65,0l10.19-8.33a6.83,6.83,0,0,0,2.51-5.29v-4A7.05,7.05,0,0,0,224.89,54.05Zm-45.2,0a4.76,4.76,0,0,1,4.43-4.75v9.49A4.76,4.76,0,0,1,179.69,54.05Zm38.47,4.74V49.3a4.76,4.76,0,0,1,0,9.49Z"/><path class="cls-1" d="M162.07,116.79a1.15,1.15,0,0,1-1.11-.87L156.9,99.67a1.14,1.14,0,1,1,2.21-.55l4.07,16.24a1.15,1.15,0,0,1-.83,1.39A1.35,1.35,0,0,1,162.07,116.79Z"/><path class="cls-1" d="M240.22,116.79a1.35,1.35,0,0,1-.28,0,1.14,1.14,0,0,1-.83-1.39l4.06-16.24a1.15,1.15,0,0,1,1.39-.84,1.14,1.14,0,0,1,.83,1.39l-4.06,16.25A1.15,1.15,0,0,1,240.22,116.79Z"/><path class="cls-1" d="M209.23,26.67H193.05a11.19,11.19,0,0,0-11.19,11.2V48.45h38.57V37.87A11.19,11.19,0,0,0,209.23,26.67Z"/><path class="cls-1" d="M220.43,49.59H181.86a1.14,1.14,0,0,1-1.14-1.14V37.87a12.34,12.34,0,0,1,12.33-12.34h16.19a12.34,12.34,0,0,1,12.33,12.34V48.45A1.14,1.14,0,0,1,220.43,49.59ZM183,47.3h36.29V37.87a10.06,10.06,0,0,0-10.06-10H193.05a10.06,10.06,0,0,0-10.05,10Z"/><path class="cls-1" d="M205.72,39h-9.15a1.15,1.15,0,0,0-1.14,1.15v3.56a1.14,1.14,0,0,0,1.14,1.14h9.15a1.14,1.14,0,0,0,1.14-1.14V40.13A1.15,1.15,0,0,0,205.72,39Z"/><path class="cls-1" d="M179.46,90.27a1.15,1.15,0,0,1-.22-2.27L189,86.09a1.15,1.15,0,0,1,1.34.91,1.14,1.14,0,0,1-.9,1.34l-9.79,1.91Z"/><path class="cls-1" d="M222.83,90.27l-.22,0-9.79-1.91a1.14,1.14,0,0,1-.9-1.34,1.15,1.15,0,0,1,1.34-.91L223.05,88a1.15,1.15,0,0,1-.22,2.27Z"/><path class="cls-1" d="M187.32,110.2a13.82,13.82,0,0,1,27.64,0"/><path class="cls-1" d="M187.32,110.2a13.82,13.82,0,1,1,27.64,0"/><path class="cls-1" d="M201.14,95.23a15,15,0,0,0-15,15,1.14,1.14,0,0,0,1.14,1.14H215a1.14,1.14,0,0,0,1.15-1.14A15,15,0,0,0,201.14,95.23Zm0,2.29a12.69,12.69,0,0,1,12.62,11.53H188.53A12.68,12.68,0,0,1,201.14,97.52Z"/><path class="cls-1" d="M204.37,107a4.57,4.57,0,1,1-6.46,0A4.56,4.56,0,0,1,204.37,107Z"/><path class="cls-1" d="M197.91,113.46a4.57,4.57,0,1,1,6.46-6.46"/><path class="cls-1" d="M201.14,115.94a5.72,5.72,0,1,1,4-9.75h0a5.71,5.71,0,0,1-4,9.75Zm0-9.14a3.43,3.43,0,1,0,0,6.85h0a3.43,3.43,0,0,0,2.42-5.85h0A3.44,3.44,0,0,0,201.14,106.8Z"/><path class="cls-1" d="M78.64,75a17.14,17.14,0,0,0,5-12.91A17.16,17.16,0,0,0,65.73,80,17.18,17.18,0,0,0,78.64,75Z"/><path class="cls-1" d="M66.47,81.23h-.79a1.17,1.17,0,0,1-1.12-1.13A18.33,18.33,0,0,1,83.7,60.94a1.19,1.19,0,0,1,1.13,1.13A18.33,18.33,0,0,1,66.47,81.23Zm16-17.94A15.88,15.88,0,0,0,71.58,68,16,16,0,0,0,66.9,78.87,16,16,0,0,0,82.48,63.29Z"/><path class="cls-1" d="M114.28,75a17.14,17.14,0,0,1-5-12.91A17.16,17.16,0,0,1,127.19,80,17.18,17.18,0,0,1,114.28,75Z"/><path class="cls-1" d="M126.45,81.23a18.33,18.33,0,0,1-18.36-19.16,1.19,1.19,0,0,1,1.13-1.13,18.33,18.33,0,0,1,19.14,19.15,1.17,1.17,0,0,1-1.12,1.13Zm-16-17.94A16,16,0,0,0,126,78.87,16.13,16.13,0,0,0,121.34,68,15.92,15.92,0,0,0,110.44,63.29Z"/><polygon class="cls-1" points="96.46 83.6 49.74 92.33 53.83 115.79 139.09 115.79 143.18 92.33 96.46 83.6"/><polygon class="cls-1" points="96.46 83.6 49.74 92.33 53.83 115.79 139.09 115.79 143.18 92.33 96.46 83.6"/><polygon class="cls-1" points="95.28 85.04 49.74 92.33 53.83 115.79 139.09 115.79 143.18 92.33 95.28 85.04"/><path class="cls-1" d="M139.09,117H53.83a1.18,1.18,0,0,1-1.16-1L48.58,92.53a1.18,1.18,0,0,1,.94-1.36l46.72-8.72a1.09,1.09,0,0,1,.44,0l46.72,8.72a1.18,1.18,0,0,1,.94,1.36L140.25,116A1.18,1.18,0,0,1,139.09,117Zm-84.26-2.36H138.1l3.72-21.34L96.46,84.8,51.1,93.27Z"/><polygon class="cls-1" points="85.72 64.6 85.62 88.89 96.46 115.25 107.3 88.89 107.2 64.6 85.72 64.6"/><polygon class="cls-1" points="103.59 97.91 89.33 97.91 96.26 114.76 96.66 114.76 103.59 97.91"/><path class="cls-1" d="M96.66,115.94h-.4a1.18,1.18,0,0,1-1.09-.73L88.24,98.36a1.18,1.18,0,0,1,.11-1.11,1.2,1.2,0,0,1,1-.52h14.26a1.18,1.18,0,0,1,1.09,1.63l-6.93,16.85A1.18,1.18,0,0,1,96.66,115.94ZM91.09,99.09l5.37,13.06,5.37-13.06Z"/><polygon class="cls-1" points="85.72 64.6 85.62 88.89 96.46 91.21 107.3 88.89 107.2 64.6 85.72 64.6"/><path class="cls-1" d="M107.2,64.6H85.72L84.54,78.45l8.21,6.71a5.84,5.84,0,0,0,7.42,0l8.21-6.71Z"/><path class="cls-1" d="M96.46,116.43h0a1.18,1.18,0,0,1-1.09-.73L84.53,89.34a1.22,1.22,0,0,1-.09-.46l.1-24.29a1.18,1.18,0,0,1,1.18-1.17H107.2a1.18,1.18,0,0,1,1.18,1.17l.1,24.29a1.22,1.22,0,0,1-.09.46L97.55,115.7A1.18,1.18,0,0,1,96.46,116.43ZM86.8,88.66l9.66,23.49,9.66-23.49L106,65.78H86.89Z"/><path class="cls-1" d="M116.35,47.18c0,10-8.9,18.07-19.89,18.07S76.57,57.16,76.57,47.18s8.9-20.43,19.89-20.43S116.35,37.19,116.35,47.18Z"/><path class="cls-1" d="M96.46,66.43c-11.62,0-21.07-8.64-21.07-19.25,0-10.2,9-21.61,21.07-21.61,10,0,21.07,9.24,21.07,21.61C117.53,57.79,108.08,66.43,96.46,66.43Zm0-38.5c-8.83,0-18.71,8.23-18.71,19.25,0,9.31,8.39,16.89,18.71,16.89s18.71-7.58,18.71-16.89C115.17,36.16,105.29,27.93,96.46,27.93Z"/><path class="cls-1" d="M80.74,62.26a5.56,5.56,0,0,1,0-11.12"/><path class="cls-1" d="M80.74,63.44a6.74,6.74,0,1,1,0-13.47,1.18,1.18,0,1,1,0,2.35,4.38,4.38,0,1,0,0,8.76,1.18,1.18,0,1,1,0,2.36Z"/><path class="cls-1" d="M112.18,51.14a5.56,5.56,0,0,1,0,11.12"/><path class="cls-1" d="M112.18,63.44a1.18,1.18,0,0,1,0-2.36,4.38,4.38,0,0,0,0-8.76,1.18,1.18,0,1,1,0-2.35,6.74,6.74,0,1,1,0,13.47Z"/><path class="cls-1" d="M107.86,45c-1.91-.48-4-.66-5.76-1A31.38,31.38,0,0,0,97,43.12a32.71,32.71,0,0,0-7,.63c-4.14.68-9.87.89-9.87,6.5V65.58a5.88,5.88,0,0,0,2.15,4.54l10.5,10.55a5.84,5.84,0,0,0,7.42,0l10.5-10.55a5.88,5.88,0,0,0,2.15-4.54V50.25C112.82,47,110.56,45.65,107.86,45Z"/><path class="cls-1" d="M96.46,83.17A7.05,7.05,0,0,1,92,81.58l-.09-.08L81.46,71a7,7,0,0,1-2.54-5.41V50.25a7,7,0,0,1,5.81-6.93l10.5-1.87a7.26,7.26,0,0,1,2.46,0l10.5,1.87A7,7,0,0,1,114,50.25V65.58A7,7,0,0,1,111.46,71L101,81.5l-.09.08A7,7,0,0,1,96.46,83.17Zm-2.92-3.38a4.79,4.79,0,0,0,5.84,0l10.45-10.5.09-.08a4.7,4.7,0,0,0,1.72-3.63V50.25a4.68,4.68,0,0,0-3.86-4.61l-10.5-1.87a5,5,0,0,0-1.64,0l-10.5,1.87a4.69,4.69,0,0,0-3.86,4.61V65.58A4.7,4.7,0,0,0,83,69.21l.09.08Z"/><path class="cls-1" d="M62.71,117a1.18,1.18,0,0,1-1.07-.68l-4.19-8.88a1.18,1.18,0,0,1,2.14-1l4.19,8.89a1.19,1.19,0,0,1-.57,1.57A1.25,1.25,0,0,1,62.71,117Z"/><path class="cls-1" d="M130.21,117a1.25,1.25,0,0,1-.5-.11,1.18,1.18,0,0,1-.56-1.57l4.19-8.89a1.16,1.16,0,0,1,1.56-.56,1.18,1.18,0,0,1,.57,1.57l-4.19,8.88A1.18,1.18,0,0,1,130.21,117Z"/><path class="cls-1" d="M108.38,107.76a9.85,9.85,0,1,1,19.69,0"/><path class="cls-1" d="M108.38,107.76a9.85,9.85,0,1,1,19.69,0"/><path class="cls-1" d="M128.07,108.94a1.18,1.18,0,0,1-1.18-1.18,8.67,8.67,0,1,0-17.33,0,1.18,1.18,0,0,1-2.36,0,11,11,0,1,1,22,0A1.18,1.18,0,0,1,128.07,108.94Z"/><path class="cls-1" d="M128.07,108.94H108.38a1.18,1.18,0,0,1,0-2.36h19.69a1.18,1.18,0,1,1,0,2.36Z"/><circle class="cls-1" cx="118.23" cy="107.78" r="3.26"/><path class="cls-1" d="M115.92,110.08a3.26,3.26,0,1,1,4.61-4.6"/><path class="cls-1" d="M118.23,112.21a4.44,4.44,0,1,1,3.13-1.3A4.4,4.4,0,0,1,118.23,112.21Zm0-6.51a2.06,2.06,0,0,0-1.47.61,2.06,2.06,0,0,0,0,2.93,2.12,2.12,0,0,0,2.93,0,2.06,2.06,0,0,0,.61-1.47,2,2,0,0,0-.61-1.47A2.06,2.06,0,0,0,118.23,105.7Z"/><path class="cls-2" d="M259.41,45.6A2.36,2.36,0,0,1,257.05,48H221a2.36,2.36,0,0,1-2.36-2.36h0A2.36,2.36,0,0,1,221,43.24h36.08a2.36,2.36,0,0,1,2.36,2.36Z"/><path class="cls-3" d="M257.05,49.11H221a3.51,3.51,0,0,1,0-7h36.08a3.51,3.51,0,0,1,0,7ZM221,44.39a1.22,1.22,0,0,0,0,2.43h36.08a1.22,1.22,0,0,0,0-2.43Z"/><path class="cls-4" d="M241.63,47.53A14.27,14.27,0,0,1,227.36,61.8H221a14.27,14.27,0,0,1-14.27-14.27V43.77A14.27,14.27,0,0,1,221,29.5h6.36a14.27,14.27,0,0,1,14.27,14.27Z"/><path class="cls-5" d="M241.63,51.15a14.27,14.27,0,0,1-14.27,14.27H221a14.27,14.27,0,0,1-14.27-14.27V47.39A14.27,14.27,0,0,1,221,33.12h6.36a14.27,14.27,0,0,1,14.27,14.27Z"/><path class="cls-3" d="M227.36,63H221a15.43,15.43,0,0,1-15.41-15.42V43.77A15.43,15.43,0,0,1,221,28.35h6.36a15.43,15.43,0,0,1,15.41,15.42v3.76A15.43,15.43,0,0,1,227.36,63ZM221,30.64a13.14,13.14,0,0,0-13.13,13.13v3.76A13.14,13.14,0,0,0,221,60.66h6.36a13.14,13.14,0,0,0,13.13-13.13V43.77a13.14,13.14,0,0,0-13.13-13.13Z"/><polygon class="cls-6" points="224.18 76.85 176.93 91.04 176.93 115.9 271.43 115.9 271.43 91.04 224.18 76.85"/><polygon class="cls-7" points="224.18 76.85 176.93 91.04 176.93 115.9 271.43 115.9 271.43 91.04 224.18 76.85"/><polygon class="cls-8" points="224.18 89.95 176.93 91.04 176.93 115.9 271.43 115.9 271.43 91.04 224.18 89.95"/><polygon class="cls-7" points="224.18 89.26 176.93 90.37 176.93 115.9 271.43 115.9 271.43 90.37 224.18 89.26"/><path class="cls-3" d="M271.43,117.05h-94.5a1.14,1.14,0,0,1-1.14-1.15V91a1.15,1.15,0,0,1,.81-1.1l47.25-14.19a1.23,1.23,0,0,1,.66,0l47.25,14.19a1.15,1.15,0,0,1,.81,1.1V115.9A1.14,1.14,0,0,1,271.43,117.05Zm-93.36-2.29h92.22V91.89L224.18,78,178.07,91.89Z"/><polygon class="cls-3" points="213.76 64.13 211.75 87.7 224.18 93.89 236.61 87.7 234.6 64.13 213.76 64.13"/><path class="cls-3" d="M224.18,96.18a1.21,1.21,0,0,1-.58-.16l-12.43-7.34a1.13,1.13,0,0,1-.56-1.08l2-23.57A1.14,1.14,0,0,1,213.76,63h20.85A1.15,1.15,0,0,1,235.75,64l2,23.57a1.13,1.13,0,0,1-.56,1.08L224.76,96A1.21,1.21,0,0,1,224.18,96.18ZM213,87.08l11.23,6.62,11.23-6.62-1.86-21.81H214.81Z"/><polygon class="cls-9" points="213.76 64.13 211.75 87.7 224.18 89.95 236.61 87.7 234.6 64.13 213.76 64.13"/><path class="cls-3" d="M224.18,91.64a1.07,1.07,0,0,1-.25,0l-12.43-2.8a1.13,1.13,0,0,1-.89-1.21l2-23.57A1.14,1.14,0,0,1,213.76,63h20.85A1.16,1.16,0,0,1,235.75,64l2,23.57a1.13,1.13,0,0,1-.89,1.21l-12.43,2.8A1.07,1.07,0,0,1,224.18,91.64ZM213,86.8l11.2,2.52,11.21-2.52-1.84-21.53H214.81Z"/><path class="cls-9" d="M207.48,60a5.91,5.91,0,0,1,0-11.81"/><path class="cls-9" d="M240.88,48.14a5.91,5.91,0,0,1,0,11.81"/><path class="cls-5" d="M235.37,42.69l-10.19-1.81a6.1,6.1,0,0,0-2,0L213,42.69a5.7,5.7,0,0,0-4.7,5.6V65.08a5.68,5.68,0,0,0,2.09,4.4l10.19,8.34a5.7,5.7,0,0,0,7.2,0L238,69.48a5.68,5.68,0,0,0,2.09-4.4V48.29A5.7,5.7,0,0,0,235.37,42.69Z"/><path class="cls-9" d="M235.37,42.69l-10.19,4.94a5.6,5.6,0,0,0-2,0L213,42.69a5.7,5.7,0,0,0-4.7,5.6V65.08a5.68,5.68,0,0,0,2.09,4.4l10.19,8.34a5.7,5.7,0,0,0,7.2,0L238,69.48a5.68,5.68,0,0,0,2.09-4.4V48.29A5.7,5.7,0,0,0,235.37,42.69Z"/><path class="cls-3" d="M247.92,54.05a7.05,7.05,0,0,0-7-7,1.23,1.23,0,0,0-.6.17l-.22,0a1.14,1.14,0,0,0-1.15,1.14V65.08a4.53,4.53,0,0,1-1.66,3.52l-10.19,8.33a4.66,4.66,0,0,1-5.76,0L211.11,68.6a4.56,4.56,0,0,1-1.66-3.52V48.29a1.14,1.14,0,0,0-1.15-1.14l-.22,0a1.2,1.2,0,0,0-.6-.17,7,7,0,0,0-.32,14.08v4a6.8,6.8,0,0,0,2.51,5.29l10.18,8.33a6.82,6.82,0,0,0,8.66,0l10.19-8.33a6.82,6.82,0,0,0,2.5-5.29v-4A7,7,0,0,0,247.92,54.05Zm-45.19,0a4.76,4.76,0,0,1,4.43-4.75v9.49A4.76,4.76,0,0,1,202.73,54.05Zm38.47,4.74V49.3a4.76,4.76,0,0,1,0,9.49Z"/><path class="cls-3" d="M185.11,116.79a1.14,1.14,0,0,1-1.11-.87l-4.07-16.25a1.14,1.14,0,1,1,2.22-.55l4.07,16.24a1.14,1.14,0,0,1-.84,1.39A1.26,1.26,0,0,1,185.11,116.79Z"/><path class="cls-3" d="M263.25,116.79a1.26,1.26,0,0,1-.27,0,1.14,1.14,0,0,1-.84-1.39l4.07-16.24a1.14,1.14,0,1,1,2.22.55l-4.07,16.25A1.14,1.14,0,0,1,263.25,116.79Z"/><path class="cls-2" d="M232.27,26.67H216.09a11.19,11.19,0,0,0-11.19,11.2V48.45h38.57V37.87A11.2,11.2,0,0,0,232.27,26.67Z"/><path class="cls-3" d="M243.47,49.59H204.9a1.14,1.14,0,0,1-1.15-1.14V37.87a12.35,12.35,0,0,1,12.34-12.34h16.18a12.35,12.35,0,0,1,12.34,12.34V48.45A1.14,1.14,0,0,1,243.47,49.59ZM206,47.3h36.28V37.87a10.06,10.06,0,0,0-10-10H216.09a10.06,10.06,0,0,0-10.05,10Z"/><path class="cls-3" d="M228.76,39H219.6a1.15,1.15,0,0,0-1.14,1.15v3.56a1.14,1.14,0,0,0,1.14,1.14h9.16a1.14,1.14,0,0,0,1.14-1.14V40.13A1.15,1.15,0,0,0,228.76,39Z"/><path class="cls-3" d="M202.49,90.27a1.15,1.15,0,0,1-.21-2.27l9.78-1.91a1.17,1.17,0,0,1,1.35.91,1.15,1.15,0,0,1-.91,1.34l-9.79,1.91Z"/><path class="cls-3" d="M245.87,90.27l-.22,0-9.79-1.91A1.13,1.13,0,0,1,235,87a1.15,1.15,0,0,1,1.34-.91L246.08,88a1.15,1.15,0,0,1-.21,2.27Z"/><path class="cls-10" d="M210.36,110.2a13.82,13.82,0,1,1,27.64,0"/><path class="cls-2" d="M210.36,110.2a13.82,13.82,0,1,1,27.64,0"/><path class="cls-3" d="M224.18,95.23a15,15,0,0,0-15,15,1.14,1.14,0,0,0,1.14,1.14H238a1.14,1.14,0,0,0,1.14-1.14A15,15,0,0,0,224.18,95.23Zm0,2.29a12.69,12.69,0,0,1,12.62,11.53H211.56A12.69,12.69,0,0,1,224.18,97.52Z"/><path class="cls-9" d="M227.41,107a4.57,4.57,0,1,1-6.46,0A4.56,4.56,0,0,1,227.41,107Z"/><path class="cls-11" d="M221,113.46a4.57,4.57,0,0,1,6.46-6.46"/><path class="cls-3" d="M224.18,115.94a5.72,5.72,0,1,1,4-9.75h0a5.71,5.71,0,0,1-4,9.75Zm0-9.14a3.43,3.43,0,1,0,0,6.85h0a3.42,3.42,0,0,0,2.42-5.85h0A3.42,3.42,0,0,0,224.18,106.8Z"/><path class="cls-12" d="M56.13,60.34a2.23,2.23,0,1,1-2.23-2.23A2.23,2.23,0,0,1,56.13,60.34Z"/><path class="cls-12" d="M40.88,76.78a2.23,2.23,0,1,1-2.23-2.23A2.23,2.23,0,0,1,40.88,76.78Z"/><path class="cls-12" d="M202.25,70.65A2.23,2.23,0,1,1,200,68.42,2.22,2.22,0,0,1,202.25,70.65Z"/><rect class="cls-13" x="123.43" y="27.4" width="62.53" height="73.36"/><path class="cls-14" d="M186,13c-.45-.3-4.65-2.6-4.65-2.6L152,11.13H128.55l-4.8,1.22-1.36,7v6.57h65V19.52S186.49,13.26,186,13Z"/><polygon class="cls-14" points="186.43 100.76 122.39 100.76 122.39 111.15 126.39 115.54 139.25 115.54 173.42 115.54 184.51 114.39 187.39 108.69 186.43 100.76"/><path class="cls-7" d="M169.33,80.43s-2.93-3.67-3.56-3.87-5.29-3.2-5.29-3.2l-6-.73-7.7,2.46L144,77.18s-3.79,5.35-3.95,5.51a24.83,24.83,0,0,0-.62,2.77c-.11.42,1.41,2.52,1.41,2.52s3.3,1.62,3.51,1.68,4.25.41,4.25.41l2.2-1.78,3-2.41s2.88.58,3.25.58a37.42,37.42,0,0,1,3.93,3.09l7.12-.79,1.84-.57v-2.1C170,85.78,169.33,80.43,169.33,80.43Z"/><polygon class="cls-15" points="160.22 91.12 158.65 92.31 158.02 87.66 153.82 86.93 150.57 90.6 143.24 90.08 139.46 90.08 141.77 96.15 145.23 99.82 151.73 99.82 165.77 99.82 167.97 97.1 170.7 90.08 160.22 91.12"/><path class="cls-16" d="M130.86,90.73a2.24,2.24,0,1,0,3.17,0A2.24,2.24,0,0,0,130.86,90.73Z"/><path class="cls-16" d="M178.74,90.73a2.23,2.23,0,1,0,0,3.16A2.24,2.24,0,0,0,178.74,90.73Z"/><path class="cls-16" d="M190.57,45.36V36.42a2.23,2.23,0,0,0-2.23-2.24V18.53a8.94,8.94,0,0,0-8.94-8.94H130.21a8.94,8.94,0,0,0-8.94,8.94V108a8.94,8.94,0,0,0,8.94,8.94H179.4a8.94,8.94,0,0,0,8.94-8.94V63.25A2.23,2.23,0,0,0,190.57,61V52.06a2.23,2.23,0,0,0-2.23-2.23V47.6A2.23,2.23,0,0,0,190.57,45.36ZM128.29,11.79h53c2.66,0,4.82,3,4.82,6.6V25H123.47V18.39C123.47,14.75,125.63,11.79,128.29,11.79ZM147.4,99a13.43,13.43,0,0,1-5.64-8A49.42,49.42,0,0,0,148.45,92a6.71,6.71,0,0,0,12.84,0,45.11,45.11,0,0,0,6.55-1,13.43,13.43,0,0,1-5.63,8Zm13.68-11.47a6.7,6.7,0,0,0-12.42,0,41.41,41.41,0,0,1-7.18-1.26,13.41,13.41,0,0,1,26.65,0A40,40,0,0,1,161.08,87.55Zm-4,2.52a2.24,2.24,0,1,1-2.24-2.23A2.24,2.24,0,0,1,157.11,90.07Zm17-2.23C174.09,78,165.44,70,154.81,70s-19.29,8-19.29,17.89A17,17,0,0,0,139.76,99H123.47V27.47h62.67V99H169.85A17,17,0,0,0,174.09,87.84Zm7.23,26.27h-53c-2.66,0-4.82-2.92-4.82-6.52v-6.51h62.67v6.51C186.14,111.19,184,114.11,181.32,114.11Z"/><path class="cls-16" d="M170.45,107.5h-31.3c-1.23,0-2.23.61-2.23,1.35s1,1.35,2.23,1.35h31.3c1.24,0,2.24-.61,2.24-1.35S171.69,107.5,170.45,107.5Z"/><path class="cls-16" d="M169.62,19.11a1.41,1.41,0,1,0-1.4-1.41A1.41,1.41,0,0,0,169.62,19.11Z"/><path class="cls-16" d="M139.15,19.11h24.59c1.24,0,2.24-.63,2.24-1.41s-1-1.41-2.24-1.41H139.15c-1.23,0-2.23.63-2.23,1.41S137.92,19.11,139.15,19.11Z"/><path class="cls-12" d="M62,29.53a5.32,5.32,0,1,1,7.28-1.9A5.33,5.33,0,0,1,62,29.53Zm3.64-6.21a1.87,1.87,0,1,0,.67,2.56A1.87,1.87,0,0,0,65.65,23.32Z"/><path class="cls-12" d="M259.59,35a5.32,5.32,0,1,1,7.28-1.89A5.33,5.33,0,0,1,259.59,35Zm3.64-6.2a1.87,1.87,0,1,0,.67,2.56A1.87,1.87,0,0,0,263.23,28.83Z"/><path class="cls-12" d="M284.75,62.58H280.3a1.73,1.73,0,1,1,0-3.45h4.45a1.73,1.73,0,0,1,0,3.45Z"/><path class="cls-12" d="M274.36,62.58h-4.45a1.73,1.73,0,0,1,0-3.45h4.45a1.73,1.73,0,1,1,0,3.45Z"/><path class="cls-12" d="M277.33,59.61a1.72,1.72,0,0,1-1.72-1.73V53.43a1.73,1.73,0,0,1,3.45,0v4.45A1.73,1.73,0,0,1,277.33,59.61Z"/><path class="cls-12" d="M277.33,70a1.72,1.72,0,0,1-1.72-1.72V63.82a1.73,1.73,0,1,1,3.45,0v4.45A1.73,1.73,0,0,1,277.33,70Z"/><path class="cls-12" d="M17.26,87.35l-2.49-2.47a1.36,1.36,0,0,1,1.91-1.94l2.5,2.48a1.36,1.36,0,1,1-1.92,1.93Z"/><path class="cls-12" d="M11.44,81.58,8.94,79.1a1.36,1.36,0,1,1,1.92-1.93l2.5,2.47a1.36,1.36,0,0,1-1.92,1.94Z"/><path class="cls-12" d="M14.75,81.56a1.36,1.36,0,0,1,0-1.92l2.48-2.5a1.36,1.36,0,1,1,1.93,1.92l-2.47,2.5A1.37,1.37,0,0,1,14.75,81.56Z"/><path class="cls-12" d="M9,87.39a1.37,1.37,0,0,1,0-1.93L11.44,83a1.36,1.36,0,0,1,1.94,1.92l-2.48,2.5A1.37,1.37,0,0,1,9,87.39Z"/><path class="cls-12" d="M28.27,42.61l-2.49-2.48A1.36,1.36,0,1,1,27.7,38.2l2.49,2.47a1.36,1.36,0,1,1-1.92,1.94Z"/><path class="cls-12" d="M22.45,36.83,20,34.35a1.36,1.36,0,1,1,1.92-1.93l2.49,2.47a1.36,1.36,0,1,1-1.92,1.94Z"/><path class="cls-12" d="M25.77,36.82a1.36,1.36,0,0,1,0-1.93l2.48-2.5a1.36,1.36,0,0,1,1.93,1.92l-2.48,2.5A1.36,1.36,0,0,1,25.77,36.82Z"/><path class="cls-12" d="M20,42.64a1.36,1.36,0,0,1,0-1.93l2.48-2.49a1.36,1.36,0,1,1,1.93,1.92l-2.47,2.49A1.36,1.36,0,0,1,20,42.64Z"/><path class="cls-17" d="M164.27,47.64A14.6,14.6,0,1,1,149.67,33,14.6,14.6,0,0,1,164.27,47.64Z"/><path class="cls-12" d="M170.38,32.12a.65.65,0,0,1-.46-1.1l1.38-1.38a.65.65,0,0,1,.92.92l-1.38,1.37A.63.63,0,0,1,170.38,32.12Z"/><path class="cls-12" d="M167.17,35.33a.63.63,0,0,1-.46-.19.65.65,0,0,1,0-.91l1.38-1.38a.65.65,0,1,1,.91.92l-1.37,1.37A.63.63,0,0,1,167.17,35.33Z"/><path class="cls-12" d="M168.55,32.12a.62.62,0,0,1-.46-.19l-1.38-1.37a.65.65,0,0,1,.92-.92L169,31a.63.63,0,0,1,0,.91A.61.61,0,0,1,168.55,32.12Z"/><path class="cls-12" d="M171.76,35.33a.63.63,0,0,1-.46-.19l-1.38-1.37a.65.65,0,0,1,.92-.92l1.38,1.38a.65.65,0,0,1-.46,1.1Z"/><path class="cls-12" d="M170.65,65.92a1.93,1.93,0,0,1-.94-.24,2,2,0,0,1-.82-2.71,2,2,0,0,1,1.18-1,2,2,0,0,1,2.5,1.34h0a2,2,0,0,1-1.34,2.49A2,2,0,0,1,170.65,65.92Zm0-2.71a.64.64,0,0,0-.2,0,.73.73,0,0,0-.42.35.65.65,0,0,0-.05.53.7.7,0,0,0,.88.47A.7.7,0,0,0,171,63.3.63.63,0,0,0,170.65,63.21Z"/><path class="cls-12" d="M136.25,35.75a2,2,0,1,1,2-2A2,2,0,0,1,136.25,35.75Zm0-2.71a.71.71,0,1,0,.7.7A.71.71,0,0,0,136.25,33Z"/><path class="cls-12" d="M137.19,64.66a.62.62,0,0,1-.46-.19.64.64,0,0,1,0-.92l1.91-1.91a.65.65,0,0,1,.92.92l-1.91,1.91A.65.65,0,0,1,137.19,64.66Z"/><path class="cls-12" d="M139.1,64.66a.63.63,0,0,1-.46-.19l-1.91-1.91a.64.64,0,0,1,0-.92.66.66,0,0,1,.92,0l1.91,1.91a.66.66,0,0,1,0,.92A.63.63,0,0,1,139.1,64.66Z"/><path class="cls-12" d="M145,32.87a.7.7,0,0,1-.46-.19.66.66,0,0,1,0-.92l1.92-1.91a.64.64,0,0,1,.91.91l-1.91,1.92A.66.66,0,0,1,145,32.87Z"/><path class="cls-12" d="M146.89,32.87a.66.66,0,0,1-.46-.19l-1.92-1.92a.65.65,0,1,1,.92-.91l1.91,1.91a.64.64,0,0,1,0,.92A.65.65,0,0,1,146.89,32.87Z"/><path class="cls-18" d="M141.73,53.25s-5.14-6.82-2.67-11.83c0,0,4.58-2.45,10.2,1.16A10.94,10.94,0,0,1,141.73,53.25Z"/><path class="cls-16" d="M141.73,53.89a.65.65,0,0,1-.52-.25c-.22-.3-5.34-7.2-2.73-12.51a.63.63,0,0,1,.28-.28c.2-.11,5-2.59,10.85,1.18a.64.64,0,0,1,.29.51,11.66,11.66,0,0,1-8,11.32A.76.76,0,0,1,141.73,53.89Zm-2.18-12C137.81,45.82,141,51,142,52.46a10.15,10.15,0,0,0,6.65-9.52A9.91,9.91,0,0,0,139.55,41.91Z"/><path class="cls-19" d="M140.91,43.42s4.55-.65,6.49,1.95l-3.89,5.19S140.26,48.61,140.91,43.42Z"/><path class="cls-16" d="M143.51,51.21a.69.69,0,0,1-.34-.09c-.14-.09-3.59-2.23-2.9-7.78a.65.65,0,0,1,.55-.56c.2,0,5-.67,7.1,2.2a.66.66,0,0,1,0,.78L144,51A.65.65,0,0,1,143.51,51.21Zm-2-7.19a6.58,6.58,0,0,0,1.88,5.62l3.18-4.24C145.13,44,142.58,44,141.51,44Z"/><path class="cls-18" d="M168.65,53.25s5.13-6.82,2.66-11.83c0,0-4.57-2.45-10.19,1.16A10.94,10.94,0,0,0,168.65,53.25Z"/><path class="cls-16" d="M168.65,53.89a.76.76,0,0,1-.21,0,11.67,11.67,0,0,1-8-11.32.68.68,0,0,1,.3-.51c5.87-3.77,10.65-1.29,10.85-1.18a.63.63,0,0,1,.28.28c2.61,5.31-2.51,12.21-2.73,12.51A.65.65,0,0,1,168.65,53.89Zm-6.89-11a10.15,10.15,0,0,0,6.65,9.52c1-1.45,4.15-6.64,2.42-10.56C170,41.52,166.29,40.19,161.76,42.94Z"/><path class="cls-19" d="M169.46,43.42s-4.54-.65-6.49,1.95l3.9,5.19S170.11,48.61,169.46,43.42Z"/><path class="cls-16" d="M166.87,51.21a.65.65,0,0,1-.52-.26l-3.89-5.19a.63.63,0,0,1,0-.78c2.15-2.87,6.9-2.23,7.1-2.2a.65.65,0,0,1,.55.56c.69,5.55-2.76,7.69-2.91,7.78A.66.66,0,0,1,166.87,51.21Zm-3.06-5.81L167,49.64A6.58,6.58,0,0,0,168.87,44C167.8,44,165.24,44,163.81,45.4Z"/><path class="cls-18" d="M163.52,64.59a13.65,13.65,0,1,1,3.6-4.21"/><path class="cls-16" d="M155.19,68.08a14.28,14.28,0,1,1,12.5-7.38.65.65,0,0,1-1.14-.63,13,13,0,1,0-3.43,4,.65.65,0,0,1,.79,1,14.37,14.37,0,0,1-8.72,3Z"/><path class="cls-16" d="M165,63.9a.66.66,0,0,1-.45-.18.65.65,0,0,1,0-.92,12,12,0,0,0,.87-1,.65.65,0,1,1,1,.8,14.42,14.42,0,0,1-1,1.1A.67.67,0,0,1,165,63.9Z"/><path class="cls-9" d="M166.25,53.48A4.27,4.27,0,1,0,162,58.21,4.51,4.51,0,0,0,166.25,53.48Z"/><path class="cls-16" d="M162,58.86a5.4,5.4,0,1,1,4.9-5.38A5.16,5.16,0,0,1,162,58.86Zm0-9.46a4.12,4.12,0,1,0,3.61,4.08A3.86,3.86,0,0,0,162,49.4Z"/><path class="cls-20" d="M164.2,53.48a2.21,2.21,0,1,0-2.2,2.44A2.33,2.33,0,0,0,164.2,53.48Z"/><path class="cls-16" d="M162,56.57a3.1,3.1,0,1,1,2.84-3.09A3,3,0,0,1,162,56.57Zm0-4.88a1.81,1.81,0,1,0,1.55,1.79A1.68,1.68,0,0,0,162,51.69Z"/><path class="cls-9" d="M164.92,51.53a1,1,0,1,1-1-1A1,1,0,0,1,164.92,51.53Z"/><path class="cls-9" d="M152.63,53.48a4.28,4.28,0,1,0-4.25,4.73A4.52,4.52,0,0,0,152.63,53.48Z"/><path class="cls-16" d="M148.38,58.86a5.4,5.4,0,1,1,4.9-5.38A5.16,5.16,0,0,1,148.38,58.86Zm0-9.46a4.12,4.12,0,1,0,3.6,4.08A3.87,3.87,0,0,0,148.38,49.4Z"/><path class="cls-20" d="M150.57,53.48a2.21,2.21,0,1,0-2.19,2.44A2.32,2.32,0,0,0,150.57,53.48Z"/><path class="cls-16" d="M148.38,56.57a3.1,3.1,0,1,1,2.84-3.09A3,3,0,0,1,148.38,56.57Zm0-4.88a1.81,1.81,0,1,0,1.54,1.79A1.68,1.68,0,0,0,148.38,51.69Z"/><path class="cls-9" d="M151.3,51.53a1,1,0,1,1-2,0,1,1,0,0,1,2,0Z"/><path class="cls-18" d="M157.13,36.93c-1.94,0-7.22,0-7.22,6.91,0,1.63,1.35,5.06,4.2,4.94,3.67-.17,3.18-4,3.21-4,2.45,0,4.44-1.66,4.44-3.71S159.08,36.93,157.13,36.93Z"/><path class="cls-16" d="M154,49.43a4,4,0,0,1-2.78-1.16,6.72,6.72,0,0,1-1.92-4.43c0-3.21,1.08-5.43,3.21-6.61a9.5,9.5,0,0,1,4.65-.94h0v0c2.25,0,5.27,2.39,5.27,4.83A4.66,4.66,0,0,1,158,45.44a3.78,3.78,0,0,1-3.83,4Zm3.16-11.85a8.45,8.45,0,0,0-4,.78c-1.69.94-2.54,2.78-2.54,5.48a5.5,5.5,0,0,0,1.52,3.5,2.66,2.66,0,0,0,2,.79c2.25-.1,2.65-1.8,2.59-3.2a.73.73,0,0,1,.18-.55.63.63,0,0,1,.47-.2c2.09,0,3.79-1.37,3.79-3.06s-2.37-3.54-4-3.54h0Zm.2,7.25h0Z"/><path class="cls-18" d="M154.54,46s1.4-1.92,3.24-1.3"/><path class="cls-16" d="M154.54,46.67a.67.67,0,0,1-.38-.13.63.63,0,0,1-.14-.9c.06-.1,1.7-2.29,4-1.53a.65.65,0,1,1-.41,1.23c-1.37-.46-2.51,1-2.52,1.06A.66.66,0,0,1,154.54,46.67Z"/><path class="cls-21" d="M156.48,59v1.57a1.62,1.62,0,1,1-3.23,0V59Z"/><path class="cls-16" d="M154.86,62.84a2.27,2.27,0,0,1-2.26-2.27V59a.65.65,0,0,1,.65-.65h3.23a.65.65,0,0,1,.65.65v1.57A2.27,2.27,0,0,1,154.86,62.84Zm-1-3.2v.93a1,1,0,1,0,1.94,0v-.93Z"/><circle class="cls-16" cx="155.51" cy="91.89" r="23.47"/><path class="cls-22" d="M164,93.21a7.94,7.94,0,0,0-7.68,5.93l-.2-.83h-2.62l1.76-1.75-.7-.79a8,8,0,1,0,1.74,7.27,7.93,7.93,0,1,0,7.7-9.83Z"/><path class="cls-23" d="M175.36,81.81,175,83.23l-.38-1.67-4.13-.77-.19,2.37.63.11,0,.49a3.12,3.12,0,0,0-1.33-.29,3.77,3.77,0,0,0-2.12.69L166.82,80H164.1l-.09.42H160.9l-.38,2.32-.3-.39a4.19,4.19,0,0,0-2.79-1.45l2.63-1.37L158,76.75l-3.1,3.61.73.73-.3.11A4.11,4.11,0,0,0,154,82l-2.51-2.43-1.15,1.57V79.73L146,81v2.31l.85-.18.09,1.07a3.32,3.32,0,0,0-1.3-.26,4,4,0,0,0-2.34.79,3.51,3.51,0,0,0-.12-2c-.53-1.52-2.21-2.42-4.49-2.42a8.9,8.9,0,0,0-5.6,1.92l-.5.42,1.88,3.43.82-.43,3.54,7.92,3.11-1-1.11-4.36a9.57,9.57,0,0,0,.77-.67,1,1,0,0,0,0,.17,3.15,3.15,0,0,0,.88,2.53,3.11,3.11,0,0,0,2.22.89h0a4,4,0,0,0,2.77-1.16l.12,1.3,3.18-.32-.08-2.77,6.38,3.21V88.15a5.77,5.77,0,0,0,2.67-.79L159.49,89l3.55.62.22-1.33,1,2,.36-.91.2,1.4,3.82.54-.17-1.08h.31a3.55,3.55,0,0,0,1.61-.4L170.22,91l2.62.46,0,1.08,2.75.73,3.53-10.64Zm-22.44,2.5v.1a3.67,3.67,0,0,0,.07,1l-.81-.34Zm6.6-.29.94-1-.27,1.63Z"/><path class="cls-24" d="M142.08,85.65A7.75,7.75,0,0,1,140,87.83L141,92l-1.7.57-3.59-8-.88.45-1.19-2.15h0c2.54-2.18,7.87-2.47,8.8.16A3.07,3.07,0,0,1,142.08,85.65Z"/><path class="cls-23" d="M141,84.23c.79,1.88-1.29,2.73-1.29,2.73l-1-3.09S140.39,82.9,141,84.23Z"/><path class="cls-25" d="M140.2,85.62a1.15,1.15,0,0,1-.13.2l-.37-1.17-.11-.35c.1,0,.54,0,.7.22A1.24,1.24,0,0,1,140.2,85.62Z"/><path class="cls-16" d="M140.2,85.62a1.15,1.15,0,0,1-.13.2l-.37-1.17a.53.53,0,0,1,.45.23A1,1,0,0,1,140.2,85.62Z"/><polygon class="cls-24" points="148.33 90.33 147.6 82.11 146.84 82.27 146.84 81.57 149.52 80.8 149.52 83.65 151.59 80.84 153.4 82.6 150.8 85.42 156.27 87.69 156.27 90.03 149.85 86.8 149.95 90.17 148.33 90.33"/><polygon class="cls-24" points="160.41 88.31 161.59 81.18 163.65 81.18 164.11 83.95 164.76 80.76 166.13 80.76 167.63 90.31 165.48 90.01 164.92 86.17 164.13 88.21 162.88 85.63 162.37 88.66 160.41 88.31"/><polygon class="cls-24" points="171.26 81.75 171.2 82.5 171.85 82.62 171.1 90.38 172.72 90.66 173.47 86.31 173.67 91.95 175.1 92.33 178.11 83.26 175.97 82.78 175.02 86.9 173.99 82.25 171.26 81.75"/><polygon class="cls-24" points="155.95 80.31 156.21 80.57 158.83 79.21 157.91 78.02 155.95 80.31"/><path class="cls-23" d="M168.73,90.2a2.92,2.92,0,0,1-2.09-.84,3.61,3.61,0,0,1,.65-5v0l.38-.24a3.7,3.7,0,0,1,1.93-.57,2.92,2.92,0,0,1,2.09.84,3.13,3.13,0,0,1,.44,3.7,4,4,0,0,1-3.4,2.19Z"/><path class="cls-24" d="M171.41,87.65a3.19,3.19,0,0,1-.6.83,2.36,2.36,0,1,1-3.29-3.29,3.23,3.23,0,0,1,.58-.47h0a2.43,2.43,0,0,1,3,.16A2.36,2.36,0,0,1,171.41,87.65Z"/><path class="cls-23" d="M170.7,85.92a1.31,1.31,0,1,1-1.31-1.31h.2a.81.81,0,0,0-.68.79.79.79,0,1,0,1.58,0,.76.76,0,0,0-.05-.27A1.33,1.33,0,0,1,170.7,85.92Z"/><path class="cls-26" d="M156.81,88.16a4.81,4.81,0,0,1-2.37-.58,3.08,3.08,0,0,1-1.39-1.9,3.76,3.76,0,0,1,.34-2.87l.06-.09a3.78,3.78,0,0,1,1.83-1.52,4.86,4.86,0,0,1,1.79-.37,4.15,4.15,0,0,1,3.15,1.47l.43.56L159.52,84l0,0,1.87,1.87-.57.57a4.58,4.58,0,0,1-.46.42A5.79,5.79,0,0,1,156.81,88.16Z"/><path class="cls-24" d="M160.29,85.93a4.25,4.25,0,0,1-.39.35,4.77,4.77,0,0,1-5.06.6,2.8,2.8,0,0,1-.75-3.67.43.43,0,0,0,0-.07A3,3,0,0,1,155.59,82a3.38,3.38,0,0,1,4,.85l-.36.36-2.29,2.35a2,2,0,0,0,1.68-.51,3.49,3.49,0,0,0,.37-.37Z"/><path class="cls-23" d="M155.85,85.61l2-2.29a1.61,1.61,0,0,0-2.31,0C154.43,84.41,155.85,85.61,155.85,85.61Z"/><path class="cls-25" d="M157,83.44l-.23.25-.9,1a.81.81,0,0,1,.14-1A1,1,0,0,1,157,83.44Z"/><path class="cls-16" d="M156.77,83.69l-.9,1a1,1,0,0,1,0-.76A1,1,0,0,1,156.77,83.69Z"/><path class="cls-23" d="M144.71,91.08a3.11,3.11,0,0,1-2.22-.89,3.15,3.15,0,0,1-.88-2.53,4.15,4.15,0,0,1,1.21-2.54l.05,0a4.1,4.1,0,0,1,2.8-1.19,3.08,3.08,0,0,1,2.22.9,3.15,3.15,0,0,1,.88,2.53,4.23,4.23,0,0,1-4.06,3.76Z"/><path class="cls-24" d="M147,89.28a2.57,2.57,0,1,1-3.58-3.59l0,0A2.57,2.57,0,1,1,147,89.28Z"/><path class="cls-23" d="M147,86.58a1.43,1.43,0,1,1-1.43-1.43l.22,0a.86.86,0,1,0,1,.85.93.93,0,0,0-.05-.29A1.4,1.4,0,0,1,147,86.58Z"/><circle class="cls-27" cx="163.97" cy="101.14" r="7.41"/><path class="cls-28" d="M170.86,101.14a6.71,6.71,0,0,1-.09,1.1l-.09.46a6.89,6.89,0,0,1-13.6-1.29v-.47a6.89,6.89,0,0,1,13.78.2Z"/><circle class="cls-27" cx="163.97" cy="101.14" r="2.5"/><path class="cls-27" d="M148.51,108.5a7.45,7.45,0,1,1,5.6-12.36l.34.39-2.33,2.34h3.53l.1.43a7.35,7.35,0,0,1,.21,1.75A7.46,7.46,0,0,1,148.51,108.5Z"/><path class="cls-28" d="M155.4,101.05c0,.12,0,.24,0,.36a6.89,6.89,0,0,1-13.58,1.28c0-.16-.07-.31-.09-.46a6.64,6.64,0,0,1-.1-1.18,6.88,6.88,0,0,1,12.06-4.54l-2.56,2.56a3.28,3.28,0,0,0-5.89,2,2.91,2.91,0,0,0,.06.6,3.45,3.45,0,0,0,.12.46,3.27,3.27,0,0,0,6,.42h-3v-3.1h6.79a6.31,6.31,0,0,1,.19,1.51A.41.41,0,0,1,155.4,101.05Z"/><path class="cls-16" d="M68.64,75a17.14,17.14,0,0,0,5-12.91A17.16,17.16,0,0,0,55.73,80,17.18,17.18,0,0,0,68.64,75Z"/><path class="cls-16" d="M56.47,81.23h-.79a1.17,1.17,0,0,1-1.12-1.13A18.33,18.33,0,0,1,73.7,60.94a1.19,1.19,0,0,1,1.13,1.13A18.33,18.33,0,0,1,56.47,81.23Zm16-17.94A15.88,15.88,0,0,0,61.58,68,16,16,0,0,0,56.9,78.87,16,16,0,0,0,72.48,63.29Z"/><path class="cls-16" d="M104.28,75a17.14,17.14,0,0,1-5-12.91A17.16,17.16,0,0,1,117.19,80,17.18,17.18,0,0,1,104.28,75Z"/><path class="cls-16" d="M116.45,81.23A18.33,18.33,0,0,1,98.09,62.07a1.19,1.19,0,0,1,1.13-1.13,18.33,18.33,0,0,1,19.14,19.15,1.17,1.17,0,0,1-1.12,1.13Zm-16-17.94A16,16,0,0,0,116,78.87,16.13,16.13,0,0,0,111.34,68,15.92,15.92,0,0,0,100.44,63.29Z"/><polygon class="cls-6" points="86.46 83.6 39.74 92.33 43.83 115.79 129.09 115.79 133.18 92.33 86.46 83.6"/><polygon class="cls-7" points="86.46 83.6 39.74 92.33 43.83 115.79 129.09 115.79 133.18 92.33 86.46 83.6"/><polygon class="cls-2" points="85.28 85.04 39.74 92.33 43.83 115.79 129.09 115.79 133.18 92.33 85.28 85.04"/><path class="cls-16" d="M129.09,117H43.83a1.18,1.18,0,0,1-1.16-1L38.58,92.53a1.18,1.18,0,0,1,.94-1.36l46.72-8.72a1.09,1.09,0,0,1,.44,0l46.72,8.72a1.18,1.18,0,0,1,.94,1.36L130.25,116A1.18,1.18,0,0,1,129.09,117Zm-84.26-2.36H128.1l3.72-21.34L86.46,84.8,41.1,93.27Z"/><polygon class="cls-9" points="75.72 64.6 75.62 88.89 86.46 115.25 97.3 88.89 97.2 64.6 75.72 64.6"/><polygon class="cls-2" points="93.59 97.91 79.33 97.91 86.26 114.76 86.66 114.76 93.59 97.91"/><path class="cls-3" d="M86.66,115.94h-.4a1.18,1.18,0,0,1-1.09-.73L78.24,98.36a1.18,1.18,0,0,1,.11-1.11,1.2,1.2,0,0,1,1-.52H93.59a1.18,1.18,0,0,1,1.09,1.63l-6.93,16.85A1.18,1.18,0,0,1,86.66,115.94ZM81.09,99.09l5.37,13.06,5.37-13.06Z"/><polygon class="cls-9" points="75.72 64.6 75.62 88.89 86.46 91.21 97.3 88.89 97.2 64.6 75.72 64.6"/><path class="cls-9" d="M97.2,64.6H75.72L74.54,78.45l8.21,6.71a5.84,5.84,0,0,0,7.42,0l8.21-6.71Z"/><path class="cls-3" d="M86.46,116.43h0a1.18,1.18,0,0,1-1.09-.73L74.53,89.34a1.22,1.22,0,0,1-.09-.46l.1-24.29a1.18,1.18,0,0,1,1.18-1.17H97.2a1.18,1.18,0,0,1,1.18,1.17l.1,24.29a1.22,1.22,0,0,1-.09.46L87.55,115.7A1.18,1.18,0,0,1,86.46,116.43ZM76.8,88.66l9.66,23.49,9.66-23.49L96,65.78H76.89Z"/><path class="cls-16" d="M106.35,47.18c0,10-8.9,18.07-19.89,18.07S66.57,57.16,66.57,47.18s8.9-20.43,19.89-20.43S106.35,37.19,106.35,47.18Z"/><path class="cls-3" d="M86.46,66.43c-11.62,0-21.07-8.64-21.07-19.25,0-10.2,9-21.61,21.07-21.61,10,0,21.07,9.24,21.07,21.61C107.53,57.79,98.08,66.43,86.46,66.43Zm0-38.5c-8.83,0-18.71,8.23-18.71,19.25,0,9.31,8.39,16.89,18.71,16.89s18.71-7.58,18.71-16.89C105.17,36.16,95.29,27.93,86.46,27.93Z"/><path class="cls-9" d="M70.74,62.26a5.56,5.56,0,1,1,0-11.12"/><path class="cls-3" d="M70.74,63.44a6.74,6.74,0,1,1,0-13.47,1.18,1.18,0,1,1,0,2.35,4.38,4.38,0,0,0,0,8.76,1.18,1.18,0,1,1,0,2.36Z"/><path class="cls-9" d="M102.18,51.14a5.56,5.56,0,0,1,0,11.12"/><path class="cls-3" d="M102.18,63.44a1.18,1.18,0,0,1,0-2.36,4.38,4.38,0,0,0,0-8.76,1.18,1.18,0,1,1,0-2.35,6.74,6.74,0,1,1,0,13.47Z"/><path class="cls-9" d="M97.86,45c-1.91-.48-4-.66-5.76-1A31.38,31.38,0,0,0,87,43.12a32.71,32.71,0,0,0-7,.63c-4.14.68-9.87.89-9.87,6.5V65.58a5.88,5.88,0,0,0,2.15,4.54l10.5,10.55a5.84,5.84,0,0,0,7.42,0l10.5-10.55a5.88,5.88,0,0,0,2.15-4.54V50.25C102.82,47,100.56,45.65,97.86,45Z"/><path class="cls-3" d="M86.46,83.17A7.05,7.05,0,0,1,82,81.58l-.09-.08L71.46,71a7,7,0,0,1-2.54-5.41V50.25a7,7,0,0,1,5.81-6.93l10.5-1.87a7.26,7.26,0,0,1,2.46,0l10.5,1.87A7,7,0,0,1,104,50.25V65.58A7,7,0,0,1,101.46,71L91,81.5l-.09.08A7,7,0,0,1,86.46,83.17Zm-2.92-3.38a4.79,4.79,0,0,0,5.84,0l10.45-10.5.09-.08a4.7,4.7,0,0,0,1.72-3.63V50.25a4.68,4.68,0,0,0-3.86-4.61l-10.5-1.87a5,5,0,0,0-1.64,0l-10.5,1.87a4.69,4.69,0,0,0-3.86,4.61V65.58A4.7,4.7,0,0,0,73,69.21l.09.08Z"/><path class="cls-3" d="M52.71,117a1.18,1.18,0,0,1-1.07-.68l-4.19-8.88a1.18,1.18,0,0,1,2.14-1l4.19,8.89a1.19,1.19,0,0,1-.57,1.57A1.25,1.25,0,0,1,52.71,117Z"/><path class="cls-3" d="M120.21,117a1.25,1.25,0,0,1-.5-.11,1.18,1.18,0,0,1-.56-1.57l4.19-8.89a1.16,1.16,0,0,1,1.56-.56,1.18,1.18,0,0,1,.57,1.57l-4.19,8.88A1.18,1.18,0,0,1,120.21,117Z"/><path class="cls-29" d="M98.38,107.76a9.85,9.85,0,1,1,19.69,0"/><path class="cls-7" d="M98.38,107.76a9.85,9.85,0,1,1,19.69,0"/><path class="cls-3" d="M118.07,108.94a1.18,1.18,0,0,1-1.18-1.18,8.67,8.67,0,1,0-17.33,0,1.18,1.18,0,0,1-2.36,0,11,11,0,1,1,22,0A1.18,1.18,0,0,1,118.07,108.94Z"/><path class="cls-3" d="M118.07,108.94H98.38a1.18,1.18,0,0,1,0-2.36h19.69a1.18,1.18,0,0,1,0,2.36Z"/><circle class="cls-9" cx="108.23" cy="107.78" r="3.26"/><path class="cls-11" d="M105.92,110.08a3.26,3.26,0,1,1,4.61-4.6"/><path class="cls-3" d="M108.23,112.21a4.44,4.44,0,1,1,3.13-1.3A4.4,4.4,0,0,1,108.23,112.21Zm0-6.51a2.06,2.06,0,0,0-1.47.61,2.06,2.06,0,0,0,0,2.93,2.12,2.12,0,0,0,2.93,0,2.06,2.06,0,0,0,.61-1.47,2,2,0,0,0-.61-1.47A2.06,2.06,0,0,0,108.23,105.7Z"/><path class="cls-21" d="M56.74,75.41A14.79,14.79,0,0,1,71.47,90.27H42A14.79,14.79,0,0,1,56.74,75.41Z"/><path class="cls-12" d="M71.47,91H42a.69.69,0,0,1-.69-.69,15.42,15.42,0,1,1,30.84,0A.69.69,0,0,1,71.47,91ZM42.71,89.58H70.77a14,14,0,0,0-28.06,0Z"/><path class="cls-9" d="M44.64,98.74A14.84,14.84,0,0,1,42,90.27H71.47a14.79,14.79,0,0,1-14.73,14.86,14.64,14.64,0,0,1-7.06-1.81"/><path class="cls-12" d="M56.74,105.82a15.37,15.37,0,0,1-7.39-1.9.7.7,0,0,1-.27-.94.69.69,0,0,1,.93-.27A14,14,0,0,0,70.77,91H42.71a14.18,14.18,0,0,0,2.49,7.39.69.69,0,1,1-1.13.78,15.52,15.52,0,0,1-2.75-8.86.69.69,0,0,1,.69-.69H71.47a.69.69,0,0,1,.69.69A15.51,15.51,0,0,1,56.74,105.82Z"/><path class="cls-12" d="M47.49,102.52a.7.7,0,0,1-.43-.15c-.35-.29-.7-.59-1-.91a.69.69,0,0,1,1-1c.3.29.62.57.94.83a.69.69,0,0,1-.44,1.22Z"/><path class="cls-30" d="M61.45,90.4a4.71,4.71,0,1,1-4.71-4.71A4.7,4.7,0,0,1,61.45,90.4Z"/><path class="cls-12" d="M56.74,95.79a5.4,5.4,0,1,1,5.39-5.39A5.4,5.4,0,0,1,56.74,95.79Zm0-9.41a4,4,0,1,0,4,4A4,4,0,0,0,56.74,86.38Z"/><path class="cls-30" d="M58.79,90.4a2.05,2.05,0,1,1-2-2.05A2.05,2.05,0,0,1,58.79,90.4Z"/><path class="cls-12" d="M56.74,93.13a2.74,2.74,0,1,1,2.74-2.73A2.74,2.74,0,0,1,56.74,93.13Zm0-4.09A1.36,1.36,0,1,0,58.1,90.4,1.36,1.36,0,0,0,56.74,89Z"/><path class="cls-12" d="M70.41,69.64a.68.68,0,0,1-.69-.68V66.89a.69.69,0,0,1,1.38,0V69A.68.68,0,0,1,70.41,69.64Z"/><path class="cls-12" d="M70.41,74.46a.69.69,0,0,1-.69-.69V71.71a.69.69,0,0,1,1.38,0v2.06A.69.69,0,0,1,70.41,74.46Z"/><path class="cls-12" d="M69,71H67a.69.69,0,0,1,0-1.38H69A.69.69,0,0,1,69,71Z"/><path class="cls-12" d="M73.85,71H71.79a.69.69,0,1,1,0-1.38h2.06a.69.69,0,0,1,0,1.38Z"/><path class="cls-12" d="M35.92,85.23a2.06,2.06,0,0,1-1-.25,2.09,2.09,0,0,1-1-1.26,2.12,2.12,0,0,1,1.41-2.64,2.08,2.08,0,0,1,1.62.16,2.13,2.13,0,0,1,1,1.25h0a2.12,2.12,0,0,1-1.42,2.64A2.15,2.15,0,0,1,35.92,85.23Zm0-2.87a.57.57,0,0,0-.22,0,.69.69,0,0,0-.44.36.8.8,0,0,0-.06.57.76.76,0,0,0,.37.44.73.73,0,0,0,.56,0,.75.75,0,0,0,.14-1.37A.73.73,0,0,0,35.92,82.36Z"/><path class="cls-12" d="M37.28,68.38a2.12,2.12,0,1,1,2.12-2.12A2.12,2.12,0,0,1,37.28,68.38Zm0-2.86a.75.75,0,1,0,.74.74A.74.74,0,0,0,37.28,65.52Z"/><path class="cls-12" d="M43.09,73.58a.66.66,0,0,1-.49-.2.68.68,0,0,1,0-1l2-2a.68.68,0,0,1,1,0,.69.69,0,0,1,0,1l-2,2A.65.65,0,0,1,43.09,73.58Z"/><path class="cls-12" d="M45.11,73.58a.65.65,0,0,1-.48-.2l-2-2a.69.69,0,0,1,0-1,.68.68,0,0,1,1,0l2,2a.68.68,0,0,1,0,1A.67.67,0,0,1,45.11,73.58Z"/><path class="cls-12" d="M56.36,67.47a1.15,1.15,0,1,1-1.15-1.14A1.14,1.14,0,0,1,56.36,67.47Z"/><path class="cls-12" d="M75.61,81.91a1.15,1.15,0,1,1-1.15-1.14A1.14,1.14,0,0,1,75.61,81.91Z"/><path class="cls-31" d="M57.78,80.64a1.12,1.12,0,1,1-1.12-1.11A1.12,1.12,0,0,1,57.78,80.64Z"/><path class="cls-31" d="M54.4,79.7a.72.72,0,0,1-.4-.12.69.69,0,0,1-.16-1,3.49,3.49,0,0,1,2.82-1.45,3.45,3.45,0,0,1,2.46,1,.69.69,0,0,1-1,1,2.09,2.09,0,0,0-3.19.26A.67.67,0,0,1,54.4,79.7Z"/><path class="cls-31" d="M56.66,84.12a3.46,3.46,0,0,1-2.75-1.35.7.7,0,0,1,.13-1,.69.69,0,0,1,1,.13,2.11,2.11,0,0,0,3.4-.1.68.68,0,0,1,1.13.77A3.46,3.46,0,0,1,56.66,84.12Z"/></svg>