<svg id="Camada_1" data-name="Camada 1" xmlns="http://www.w3.org/2000/svg" viewBox="0 0 300 120"><defs><style>.cls-1{fill:#c5daea;}.cls-2{fill:#4c241d;}.cls-3{fill:#bf7e68;}.cls-4{fill:#ffce56;}.cls-5{fill:#bd53b5;}.cls-6{fill:#fff;}.cls-7{fill:#a9ba5a;}.cls-8{fill:#efefd2;}.cls-9{fill:#f53e28;}.cls-10{fill:#ffded5;}.cls-11{fill:#e66353;}.cls-12{fill:#d9be6f;}.cls-13{fill:#333;}.cls-14{fill:#6b4f5b;}.cls-15{fill:#9dc1e4;}</style></defs><title>ICONS</title><path class="cls-1" d="M246.31,65.2a31.58,31.58,0,1,1-31.58-31.58A31.58,31.58,0,0,1,246.31,65.2Z"/><path class="cls-1" d="M204.1,86.32A25.34,25.34,0,1,1,178.76,61,25.34,25.34,0,0,1,204.1,86.32Z"/><path class="cls-1" d="M266,44.29a25.81,25.81,0,1,1-25.81-25.8A25.81,25.81,0,0,1,266,44.29Z"/><path class="cls-1" d="M139.22,62.94a33.68,33.68,0,1,1-33.68-33.68A33.68,33.68,0,0,1,139.22,62.94Z"/><path class="cls-1" d="M88.34,88.36A27.71,27.71,0,1,1,60.61,60.69,27.69,27.69,0,0,1,88.34,88.36Z"/><path class="cls-1" d="M96.26,43.17A28.91,28.91,0,1,1,67.35,14.26,28.91,28.91,0,0,1,96.26,43.17Z"/><path class="cls-1" d="M58,64.36A28.91,28.91,0,1,1,29.07,35.45,28.91,28.91,0,0,1,58,64.36Z"/><path class="cls-1" d="M298.93,64.36A28.91,28.91,0,1,1,270,35.45,28.91,28.91,0,0,1,298.93,64.36Z"/><path class="cls-1" d="M266.84,83.62a25,25,0,1,1-25-25A25,25,0,0,1,266.84,83.62Z"/><path class="cls-2" d="M205,90.88a.55.55,0,0,1-.55-.56V88.64a.54.54,0,0,1,.55-.55.55.55,0,0,1,.56.55v1.68A.56.56,0,0,1,205,90.88Z"/><path class="cls-2" d="M205,87a.55.55,0,0,1-.55-.56V84.72a.54.54,0,0,1,.55-.55.55.55,0,0,1,.56.55V86.4A.56.56,0,0,1,205,87Z"/><path class="cls-2" d="M207.76,88.08h-1.68a.55.55,0,0,1-.55-.56.54.54,0,0,1,.55-.55h1.68a.55.55,0,0,1,.56.55A.56.56,0,0,1,207.76,88.08Z"/><path class="cls-2" d="M203.84,88.08h-1.68a.56.56,0,0,1-.56-.56.55.55,0,0,1,.56-.55h1.68a.55.55,0,0,1,.56.55A.56.56,0,0,1,203.84,88.08Z"/><path class="cls-2" d="M175.42,111.78a1.68,1.68,0,0,1-.81-.2,1.71,1.71,0,0,1-.7-2.32,1.71,1.71,0,0,1,3.15.31,1.71,1.71,0,0,1-.13,1.31,1.67,1.67,0,0,1-1,.83A1.73,1.73,0,0,1,175.42,111.78Zm0-2.31-.17,0a.6.6,0,0,0-.4.75.56.56,0,0,0,.29.36.61.61,0,0,0,.46.05.58.58,0,0,0,.35-.3.59.59,0,0,0-.53-.88Z"/><path class="cls-2" d="M204.31,103.45a1.8,1.8,0,0,1-.81-.2,1.72,1.72,0,0,1-.83-1,1.71,1.71,0,0,1,1.14-2.13,1.7,1.7,0,0,1,2.14,1.14,1.73,1.73,0,0,1-1.14,2.14A1.73,1.73,0,0,1,204.31,103.45Zm0-2.32a.47.47,0,0,0-.17,0,.61.61,0,0,0-.41.75.66.66,0,0,0,.3.36.61.61,0,0,0,.46,0,.56.56,0,0,0,.35-.29.6.6,0,0,0-.53-.89Z"/><path class="cls-2" d="M203.44,112.93a.56.56,0,0,1-.4-1l1.64-1.64a.56.56,0,0,1,.79.79l-1.64,1.63A.56.56,0,0,1,203.44,112.93Z"/><path class="cls-2" d="M205.07,112.93a.56.56,0,0,1-.39-.17L203,111.13a.56.56,0,0,1,.79-.79l1.64,1.64a.56.56,0,0,1-.4,1Z"/><path class="cls-2" d="M175.94,88.75a.54.54,0,0,1-.39-.16.57.57,0,0,1,0-.79l2.18-2.17a.55.55,0,1,1,.78.78l-2.17,2.18A.55.55,0,0,1,175.94,88.75Z"/><path class="cls-2" d="M178.12,88.75a.54.54,0,0,1-.39-.16l-2.18-2.18a.56.56,0,0,1,0-.78.56.56,0,0,1,.79,0l2.17,2.17a.56.56,0,0,1,0,.79A.53.53,0,0,1,178.12,88.75Z"/><path class="cls-3" d="M195.59,93l11.21,1.78-8.23,7.81,1.77,11.21-10-5.41-10.11,5.15,2.06-11.16-8-8,11.25-1.49,5.15-10.11Z"/><path class="cls-2" d="M200.34,114.35a.58.58,0,0,1-.26-.06L190.36,109l-9.85,5a.53.53,0,0,1-.58,0,.54.54,0,0,1-.22-.54l2-10.87-7.81-7.82a.55.55,0,0,1,.32-.94l11-1.45,5-9.85a.57.57,0,0,1,.5-.31h0a.57.57,0,0,1,.49.32l4.77,10,10.91,1.73a.57.57,0,0,1,.45.38.58.58,0,0,1-.15.57l-8,7.61,1.73,10.92a.55.55,0,0,1-.23.54A.51.51,0,0,1,200.34,114.35Zm-10-6.52a.59.59,0,0,1,.26.07l9,4.87L198,102.68a.53.53,0,0,1,.17-.49l7.41-7-10.1-1.6a.57.57,0,0,1-.41-.31L190.68,84,186,93.12a.55.55,0,0,1-.42.3l-10.13,1.34,7.22,7.23a.56.56,0,0,1,.16.49l-1.86,10,9.11-4.64A.54.54,0,0,1,190.37,107.83Z"/><path class="cls-4" d="M198.85,98.63h-1.77a6.69,6.69,0,0,0-1.9-3.65l1.75-1.74a1.11,1.11,0,0,0-1.58-1.57l-2,2a6.64,6.64,0,0,0-5.77.08L186,91.63a1.11,1.11,0,0,0-1.8,1.31l1.56,2.14a6.64,6.64,0,0,0-1.8,3.55H182.4a1.11,1.11,0,0,0-1.11,1.11h0a1.11,1.11,0,0,0,1.11,1.11H184a6.61,6.61,0,0,0,1.8,3.54l-1.56,2.15a1.11,1.11,0,0,0,1.8,1.31l1.56-2.15a6.58,6.58,0,0,0,1.85.6v2.32a1.12,1.12,0,0,0,2.23,0v-2.32a6.91,6.91,0,0,0,1.69-.52l2,2a1.12,1.12,0,0,0,1.57,0,1.1,1.1,0,0,0,0-1.57l-1.74-1.75a6.63,6.63,0,0,0,1.9-3.64h1.77A1.11,1.11,0,0,0,200,99.75h0A1.11,1.11,0,0,0,198.85,98.63Z"/><path class="cls-2" d="M190.52,110.3a1.67,1.67,0,0,1-1.67-1.67v-1.87a7.68,7.68,0,0,1-1.12-.36l-1.29,1.78a1.67,1.67,0,1,1-2.7-2l1.3-1.78a7.07,7.07,0,0,1-1.54-3h-1.1a1.68,1.68,0,0,1,0-3.35h1.1A7.16,7.16,0,0,1,185,95l-1.3-1.77a1.69,1.69,0,0,1-.3-1.25,1.64,1.64,0,0,1,.67-1.08,1.62,1.62,0,0,1,1.24-.3,1.65,1.65,0,0,1,1.09.66l1.29,1.78a7.17,7.17,0,0,1,5.46,0L195,91.28a1.67,1.67,0,1,1,2.36,2.35L196,95a7.07,7.07,0,0,1,1.59,3.07h1.31a1.68,1.68,0,0,1,0,3.35h-1.31a7.07,7.07,0,0,1-1.59,3.07l1.37,1.36a1.67,1.67,0,0,1-2.36,2.36l-1.77-1.76a6.58,6.58,0,0,1-1,.31v1.87A1.67,1.67,0,0,1,190.52,110.3Zm-3-5.15a.54.54,0,0,1,.25.06,5.94,5.94,0,0,0,1.7.55.57.57,0,0,1,.46.55v2.32a.56.56,0,1,0,1.11,0v-2.32a.57.57,0,0,1,.46-.55,6.13,6.13,0,0,0,1.56-.48.55.55,0,0,1,.62.11l2,2a.56.56,0,0,0,.78,0,.56.56,0,0,0,0-.79l-1.74-1.74a.56.56,0,0,1-.17-.4.61.61,0,0,1,.17-.39,6,6,0,0,0,1.74-3.34.56.56,0,0,1,.55-.46h1.77a.57.57,0,0,0,0-1.13h-1.77a.56.56,0,0,1-.55-.46,6,6,0,0,0-1.74-3.34.63.63,0,0,1-.17-.39.56.56,0,0,1,.17-.4l1.74-1.74a.55.55,0,0,0,.16-.4.54.54,0,0,0-.16-.39.55.55,0,0,0-.78,0l-2,2a.55.55,0,0,1-.62.12,6.06,6.06,0,0,0-5.29.07.57.57,0,0,1-.7-.17L185.54,92a.55.55,0,0,0-.36-.22.53.53,0,0,0-.42.1.55.55,0,0,0-.12.77l1.56,2.15a.55.55,0,0,1,0,.71,6.1,6.1,0,0,0-1.65,3.25.56.56,0,0,1-.55.46H182.4a.57.57,0,0,0,0,1.13H184a.56.56,0,0,1,.55.46,6.14,6.14,0,0,0,1.65,3.25.55.55,0,0,1,0,.71l-1.56,2.15a.54.54,0,0,0-.1.41.53.53,0,0,0,.22.36.57.57,0,0,0,.42.1.55.55,0,0,0,.36-.22l1.56-2.15A.56.56,0,0,1,187.55,105.15Z"/><path class="cls-5" d="M193.71,99.74a3.2,3.2,0,1,1-3.19-3.19A3.19,3.19,0,0,1,193.71,99.74Z"/><path class="cls-2" d="M190.52,103.5a3.76,3.76,0,1,1,3.75-3.76A3.77,3.77,0,0,1,190.52,103.5Zm0-6.4a2.65,2.65,0,1,0,2.64,2.64A2.65,2.65,0,0,0,190.52,97.1Z"/><path class="cls-6" d="M193.29,97.52a1.11,1.11,0,1,1-2.22,0,1.11,1.11,0,1,1,2.22,0Z"/><path class="cls-2" d="M231,37.79a.69.69,0,0,1-.69-.69v-2a.69.69,0,0,1,1.38,0v2A.69.69,0,0,1,231,37.79Z"/><path class="cls-2" d="M231,33.13a.69.69,0,0,1-.69-.69v-2a.69.69,0,1,1,1.38,0v2A.69.69,0,0,1,231,33.13Z"/><path class="cls-2" d="M234.34,34.46h-2a.69.69,0,1,1,0-1.38h2a.69.69,0,0,1,0,1.38Z"/><path class="cls-2" d="M229.68,34.46h-2a.69.69,0,1,1,0-1.38h2a.69.69,0,0,1,0,1.38Z"/><path class="cls-2" d="M229.51,70.82a2.13,2.13,0,0,1-1-.26,2.06,2.06,0,0,1-1-1.26,2.08,2.08,0,0,1,.16-1.62,2.11,2.11,0,0,1,1.26-1,2.08,2.08,0,0,1,1.62.16,2.17,2.17,0,0,1,1,1.26h0a2.14,2.14,0,0,1-1.43,2.65A1.87,1.87,0,0,1,229.51,70.82Zm0-2.88a.83.83,0,0,0-.22,0,.75.75,0,0,0-.44.36.71.71,0,0,0-.06.57.77.77,0,0,0,.36.45.75.75,0,0,0,.57.05.74.74,0,0,0,.5-.93.69.69,0,0,0-.36-.44A.73.73,0,0,0,229.52,67.94Z"/><path class="cls-2" d="M195,37.34a2.13,2.13,0,1,1,2.13-2.13A2.14,2.14,0,0,1,195,37.34Zm0-2.88a.75.75,0,1,0,.75.75A.76.76,0,0,0,195,34.46Z"/><path class="cls-7" d="M207.55,42.74s2.07-11,13.8-6.9,5.52,22.78,11.74,27.61c0,0-11.39,6.56-16.92-19,0,0-1.38-11-7.59-1.38Z"/><path class="cls-2" d="M229.83,64.9a8.34,8.34,0,0,1-3.44-.75c-4.89-2.17-8.56-8.74-10.89-19.53-.22-1.74-1-4.5-2.27-4.78-.57-.13-1.85.17-4.07,3.62a.68.68,0,0,1-.8.28l-1-.34a.68.68,0,0,1-.46-.78c0-.2,1-4.92,4.93-7.2,2.62-1.52,5.92-1.59,9.78-.23,7.27,2.57,8,10.26,8.7,17,.45,4.55.88,8.85,3.23,10.68a.67.67,0,0,1,.26.59.66.66,0,0,1-.34.55A7.72,7.72,0,0,1,229.83,64.9ZM213,38.43a2.48,2.48,0,0,1,.54.06c2.58.59,3.25,5.35,3.32,5.89,2.77,12.79,7,17.13,10.06,18.5a6.88,6.88,0,0,0,4.92.34c-2.09-2.39-2.5-6.51-2.93-10.85-.66-6.69-1.35-13.6-7.79-15.88-3.47-1.22-6.37-1.18-8.63.12a9.62,9.62,0,0,0-4,5.44C210.11,39.62,211.61,38.43,213,38.43Z"/><path class="cls-2" d="M204.27,34.28a.66.66,0,0,1-.48-.21.68.68,0,0,1,0-1l2-2a.69.69,0,1,1,1,1l-2,2A.67.67,0,0,1,204.27,34.28Z"/><path class="cls-2" d="M206.31,34.28a.67.67,0,0,1-.49-.21l-2-2a.69.69,0,0,1,0-1,.68.68,0,0,1,1,0l2,2a.68.68,0,0,1,0,1A.7.7,0,0,1,206.31,34.28Z"/><path class="cls-8" d="M217.79,68a14.53,14.53,0,1,1,3.83-4.48"/><path class="cls-2" d="M208.93,71.74a15.18,15.18,0,1,1,13.3-7.86.7.7,0,0,1-.94.27.68.68,0,0,1-.27-.94A13.8,13.8,0,1,0,211.91,70a13.66,13.66,0,0,0,5.45-2.55.69.69,0,1,1,.85,1.09,15.19,15.19,0,0,1-6,2.81A15.4,15.4,0,0,1,208.93,71.74Z"/><path class="cls-2" d="M219.37,67.29a.66.66,0,0,1-.47-.19.69.69,0,0,1,0-1c.32-.34.63-.69.92-1.06a.69.69,0,0,1,1-.12.7.7,0,0,1,.12,1c-.32.4-.66.8-1,1.17A.67.67,0,0,1,219.37,67.29Z"/><path class="cls-6" d="M202.39,53.2a7.88,7.88,0,0,0-1-1,2,2,0,0,0-3,.48,9.65,9.65,0,0,0-1,4.9,1.83,1.83,0,0,0,1.44,1.76,9.18,9.18,0,0,0,1.45.2,5.11,5.11,0,0,1-.41-2A5.16,5.16,0,0,1,202.39,53.2Z"/><path class="cls-2" d="M200.36,60.27h-.05a10.78,10.78,0,0,1-1.55-.21,2.55,2.55,0,0,1-2-2.43,10.2,10.2,0,0,1,1.09-5.26,2.66,2.66,0,0,1,4-.66,8.5,8.5,0,0,1,1,1,.69.69,0,0,1-.15,1,4.46,4.46,0,0,0-2.12,3.8,4.37,4.37,0,0,0,.36,1.74.68.68,0,0,1-.08.66A.67.67,0,0,1,200.36,60.27Zm-.21-7.8a.82.82,0,0,0-.22,0,1.26,1.26,0,0,0-.88.59,9.27,9.27,0,0,0-.89,4.52,1.16,1.16,0,0,0,.91,1.11l.32.07a6,6,0,0,1-.13-1.2,5.83,5.83,0,0,1,2.09-4.48q-.18-.18-.36-.33A1.29,1.29,0,0,0,200.15,52.47Z"/><path class="cls-9" d="M204.44,57.19a10,10,0,0,0-2.05-4A5.16,5.16,0,0,0,200,57.58a5.11,5.11,0,0,0,.41,2,10.55,10.55,0,0,0,2.63-.15A1.81,1.81,0,0,0,204.44,57.19Z"/><path class="cls-2" d="M201.08,60.3c-.26,0-.51,0-.77,0a.69.69,0,0,1-.59-.42,5.94,5.94,0,0,1-.46-2.27,5.85,5.85,0,0,1,2.76-5,.69.69,0,0,1,.89.14A10.53,10.53,0,0,1,205.1,57a2.45,2.45,0,0,1-.29,2,2.55,2.55,0,0,1-1.69,1.14A11.64,11.64,0,0,1,201.08,60.3Zm-.23-1.39a9.13,9.13,0,0,0,2-.16,1.13,1.13,0,0,0,.77-.51,1.07,1.07,0,0,0,.13-.87,9.72,9.72,0,0,0-1.51-3.23,4.47,4.47,0,0,0-1.62,3.44A4.25,4.25,0,0,0,200.85,58.91Z"/><path class="cls-6" d="M201.33,55.51a1,1,0,1,1-1-1A1,1,0,0,1,201.33,55.51Z"/><path class="cls-6" d="M214.78,53.2a6.68,6.68,0,0,1,1-1,2,2,0,0,1,3,.48,9.77,9.77,0,0,1,1,4.9,1.85,1.85,0,0,1-1.45,1.76,8.87,8.87,0,0,1-1.45.2,5.14,5.14,0,0,0-2-6.38Z"/><path class="cls-2" d="M216.8,60.27a.68.68,0,0,1-.63-1,4.54,4.54,0,0,0,.35-1.74,4.47,4.47,0,0,0-2.11-3.8.7.7,0,0,1-.32-.48.72.72,0,0,1,.16-.56,9.15,9.15,0,0,1,1-1,2.75,2.75,0,0,1,2.17-.59,2.63,2.63,0,0,1,1.83,1.25,10.21,10.21,0,0,1,1.1,5.26,2.56,2.56,0,0,1-2,2.43,10.4,10.4,0,0,1-1.55.21Zm-1-7.17a5.83,5.83,0,0,1,2.09,4.48,6,6,0,0,1-.12,1.2l.32-.07A1.17,1.17,0,0,0,219,57.6a9.17,9.17,0,0,0-.9-4.52,1.22,1.22,0,0,0-.88-.59,1.29,1.29,0,0,0-1,.28Z"/><path class="cls-9" d="M212.73,57.19a9.83,9.83,0,0,1,2.05-4,5.14,5.14,0,0,1,2,6.38,10.6,10.6,0,0,1-2.63-.15A1.8,1.8,0,0,1,212.73,57.19Z"/><path class="cls-2" d="M216.08,60.3a11.73,11.73,0,0,1-2-.19A2.58,2.58,0,0,1,212.35,59a2.45,2.45,0,0,1-.29-2,10.78,10.78,0,0,1,2.19-4.26.69.69,0,0,1,.89-.14,5.83,5.83,0,0,1,2.76,5,5.76,5.76,0,0,1-.46,2.27.69.69,0,0,1-.59.42C216.6,60.29,216.34,60.3,216.08,60.3Zm-2.69-2.93a1.11,1.11,0,0,0,.13.87,1.15,1.15,0,0,0,.78.51,9.09,9.09,0,0,0,2,.16,4.56,4.56,0,0,0,.2-1.33,4.46,4.46,0,0,0-1.61-3.44A9.74,9.74,0,0,0,213.39,57.37Z"/><path class="cls-6" d="M217.9,55.51a1,1,0,1,1-1-1A1,1,0,0,1,217.9,55.51Z"/><path class="cls-2" d="M214.92,63.43H212.1a.7.7,0,0,1-.39-.13,5,5,0,0,0-6.2,0,.66.66,0,0,1-.45.17h-2.82a.69.69,0,1,1,0-1.38h2.59a6.41,6.41,0,0,1,7.48,0h2.61a.69.69,0,0,1,0,1.38Z"/><path class="cls-10" d="M212.1,62.74a5.7,5.7,0,0,0-7,0h-1.17c2.35,6,7.8,4.85,9.54,0Z"/><path class="cls-2" d="M208.58,67.53c-2.27,0-4.21-1.65-5.33-4.54a.67.67,0,0,1,.07-.64.68.68,0,0,1,.57-.3h.94a6.41,6.41,0,0,1,7.48,0h1.12a.7.7,0,0,1,.57.29.67.67,0,0,1,.08.63c-1,2.74-3.12,4.53-5.44,4.56ZM205,63.43c.91,1.74,2.19,2.72,3.62,2.72h0a4.54,4.54,0,0,0,3.75-2.72h-.28a.7.7,0,0,1-.39-.13,5,5,0,0,0-6.2,0,.66.66,0,0,1-.45.17Z"/><path class="cls-11" d="M205.39,65.28a4.18,4.18,0,0,0,6.45.06,5,5,0,0,0-6.45-.06Z"/><path class="cls-2" d="M208.59,67.53h-.1a4.92,4.92,0,0,1-3.61-1.78.68.68,0,0,1-.18-.51.72.72,0,0,1,.24-.48,5.72,5.72,0,0,1,7.36.08.67.67,0,0,1,.23.49.69.69,0,0,1-.19.51A5.34,5.34,0,0,1,208.59,67.53Zm-2.12-2.17a3.36,3.36,0,0,0,2.05.78,3.54,3.54,0,0,0,2.22-.75A4.55,4.55,0,0,0,206.47,65.36Z"/><path class="cls-1" d="M160.86,84.35a26,26,0,1,1-26.05-26A26,26,0,0,1,160.86,84.35Z"/><path class="cls-2" d="M144.23,80.14a.65.65,0,0,1-.46-.19.66.66,0,0,1,0-.92l1.39-1.38a.64.64,0,0,1,.92,0,.66.66,0,0,1,0,.92L144.7,80A.66.66,0,0,1,144.23,80.14Z"/><path class="cls-2" d="M141,83.37a.65.65,0,0,1-.46-1.11l1.38-1.39a.65.65,0,0,1,.92.93l-1.38,1.38A.63.63,0,0,1,141,83.37Z"/><path class="cls-2" d="M142.39,80.14a.65.65,0,0,1-.46-.19l-1.38-1.38a.65.65,0,1,1,.92-.92L142.85,79a.64.64,0,0,1,0,.92A.62.62,0,0,1,142.39,80.14Z"/><path class="cls-2" d="M145.62,83.37a.62.62,0,0,1-.46-.19l-1.39-1.38a.66.66,0,0,1,.93-.93l1.38,1.39a.66.66,0,0,1,0,.92A.65.65,0,0,1,145.62,83.37Z"/><path class="cls-2" d="M144.5,114.09a2,2,0,0,1-1.92-1.43,2,2,0,0,1,.15-1.53,2,2,0,0,1,1.19-1,2,2,0,0,1,2.51,1.34h0a2,2,0,0,1-1.34,2.5A2,2,0,0,1,144.5,114.09Zm0-2.72a.76.76,0,0,0-.21,0,.73.73,0,0,0-.42.35.72.72,0,0,0,0,.54.72.72,0,0,0,.88.47.71.71,0,0,0,.47-.88.72.72,0,0,0-.67-.51Z"/><path class="cls-2" d="M111.9,88.34a2,2,0,1,1,2-2A2,2,0,0,1,111.9,88.34Zm0-2.71a.7.7,0,0,0-.71.7.71.71,0,0,0,1.42,0A.7.7,0,0,0,111.9,85.63Z"/><path class="cls-2" d="M110.89,112.83a.68.68,0,0,1-.46-.19.67.67,0,0,1,0-.93l1.92-1.92a.66.66,0,0,1,.92,0,.64.64,0,0,1,0,.92l-1.92,1.93A.66.66,0,0,1,110.89,112.83Z"/><path class="cls-7" d="M141.84,91.37a6.75,6.75,0,0,0-2.66-4.29l-4.33-3.19a9.07,9.07,0,0,1-2.09-2.15,2.33,2.33,0,0,0-1.9-1h-3.77a2.33,2.33,0,0,0-1.9,1,9.07,9.07,0,0,1-2.09,2.15l-4.33,3.19a6.67,6.67,0,0,0-2,8.51,4.28,4.28,0,0,0,3.8,2.25h16.77a4.29,4.29,0,0,0,3.8-2.25A6.74,6.74,0,0,0,141.84,91.37Z"/><path class="cls-2" d="M137.36,98.49H120.59a4.92,4.92,0,0,1-4.38-2.6,7.32,7.32,0,0,1,2.17-9.33l4.33-3.19a8.41,8.41,0,0,0,2-2,3,3,0,0,1,2.43-1.32h3.77a3,3,0,0,1,2.43,1.32,8.76,8.76,0,0,0,1.94,2l4.34,3.19a7.34,7.34,0,0,1,2.91,4.7h0a7.43,7.43,0,0,1-.74,4.63A4.92,4.92,0,0,1,137.36,98.49ZM127.09,81.36a1.66,1.66,0,0,0-1.36.75,9.82,9.82,0,0,1-2.24,2.31l-4.34,3.19a6,6,0,0,0-1.78,7.67,3.61,3.61,0,0,0,3.22,1.91h16.77a3.61,3.61,0,0,0,3.22-1.91,6,6,0,0,0,.61-3.8h0a6,6,0,0,0-2.4-3.87l-4.33-3.19a10,10,0,0,1-2.24-2.31,1.68,1.68,0,0,0-1.36-.75Z"/><path class="cls-2" d="M137.45,98.66h-.14a.65.65,0,0,1-.5-.78c1.66-7.76-4.71-15.22-6-16.64a.65.65,0,1,1,1-.87c1.93,2.1,8.07,9.61,6.31,17.79A.64.64,0,0,1,137.45,98.66Z"/><path class="cls-2" d="M120.5,98.66a.66.66,0,0,1-.64-.51c-1.75-8.18,4.39-15.69,6.32-17.79a.65.65,0,0,1,.92,0,.66.66,0,0,1,0,.92c-1.29,1.42-7.67,8.88-6,16.64a.66.66,0,0,1-.5.78Z"/><path class="cls-2" d="M128.87,98.25a.65.65,0,0,1-.66-.65V80.75a.66.66,0,0,1,1.31,0V97.6A.65.65,0,0,1,128.87,98.25Z"/><path class="cls-12" d="M115.71,95.22l-.8-3.25a2,2,0,0,1,2.39-2.4l3.25.8a1.58,1.58,0,0,1,.74,2.65L118.36,96A1.58,1.58,0,0,1,115.71,95.22Z"/><path class="cls-2" d="M117.25,97.07a2.21,2.21,0,0,1-2.17-1.7l-.8-3.25a2.59,2.59,0,0,1,.69-2.49,2.64,2.64,0,0,1,2.49-.69l3.25.8a2.22,2.22,0,0,1,1,3.74l-2.93,2.94A2.24,2.24,0,0,1,117.25,97.07Zm-.91-2a.92.92,0,0,0,.65.67.9.9,0,0,0,.91-.23l2.93-2.94A.93.93,0,0,0,120.4,91l-3.25-.8a1.33,1.33,0,0,0-1.26.35,1.34,1.34,0,0,0-.35,1.26Z"/><path class="cls-12" d="M142.24,95.22,143,92a2,2,0,0,0-2.4-2.4l-3.25.8a1.58,1.58,0,0,0-.74,2.65L139.59,96A1.58,1.58,0,0,0,142.24,95.22Z"/><path class="cls-2" d="M140.69,97.07a2.18,2.18,0,0,1-1.56-.65l-2.94-2.94a2.23,2.23,0,0,1,1.05-3.74l3.25-.8a2.62,2.62,0,0,1,3.18,3.18l-.8,3.25a2.21,2.21,0,0,1-2.18,1.7Zm.43-6.91a1.75,1.75,0,0,0-.32,0l-3.25.8a.93.93,0,0,0-.43,1.56l2.93,2.94a.94.94,0,0,0,1.56-.44l.8-3.25a1.33,1.33,0,0,0-1.29-1.65Zm1.12,5.06h0Z"/><path class="cls-2" d="M112.81,112.83a.7.7,0,0,1-.46-.19l-1.92-1.93a.65.65,0,0,1,.92-.92l1.92,1.92a.65.65,0,0,1,0,.93A.66.66,0,0,1,112.81,112.83Z"/><path class="cls-2" d="M118.71,80.89a.65.65,0,0,1-.46-.19.66.66,0,0,1,0-.92l1.92-1.93a.66.66,0,0,1,.93.93l-1.93,1.92A.62.62,0,0,1,118.71,80.89Z"/><path class="cls-2" d="M120.63,80.89a.65.65,0,0,1-.46-.19l-1.92-1.92a.67.67,0,0,1,0-.93.66.66,0,0,1,.92,0l1.93,1.93a.65.65,0,0,1-.47,1.11Z"/><path class="cls-12" d="M137.34,112.76a13.69,13.69,0,1,1,5-13.79,13.63,13.63,0,0,1-1.38,9.56"/><path class="cls-2" d="M129,116.27a14.36,14.36,0,1,1,12.58-7.43.65.65,0,0,1-.88.26.66.66,0,0,1-.26-.89,13,13,0,1,0-3.45,4,.66.66,0,0,1,.92.12.65.65,0,0,1-.12.91,14.21,14.21,0,0,1-5.67,2.65A14.49,14.49,0,0,1,129,116.27Z"/><path class="cls-2" d="M127.91,109.66a.8.8,0,0,1-.3-.06l-1-.5a.65.65,0,0,1-.29-.87.66.66,0,0,1,.88-.3l1,.5a.65.65,0,0,1,.29.87A.66.66,0,0,1,127.91,109.66Z"/><path class="cls-2" d="M130,109.66a.64.64,0,0,1-.58-.36.65.65,0,0,1,.29-.87l1-.5a.64.64,0,0,1,.87.3.63.63,0,0,1-.29.87l-1,.5A.72.72,0,0,1,130,109.66Z"/><path class="cls-2" d="M138.84,112.06a.65.65,0,0,1-.47-1.1c.31-.32.6-.66.87-1a.64.64,0,0,1,.91-.12.66.66,0,0,1,.12.92,14.26,14.26,0,0,1-1,1.1A.63.63,0,0,1,138.84,112.06Z"/><path class="cls-6" d="M122.8,98.75a7.65,7.65,0,0,0-.91-.9,1.87,1.87,0,0,0-2.8.46,9.18,9.18,0,0,0-.94,4.62,1.75,1.75,0,0,0,1.37,1.67,9.08,9.08,0,0,0,1.36.19,4.89,4.89,0,0,1,1.92-6Z"/><path class="cls-2" d="M120.88,105.44h0a9.61,9.61,0,0,1-1.47-.21,2.39,2.39,0,0,1-1.87-2.29,9.71,9.71,0,0,1,1-5,2.53,2.53,0,0,1,3.78-.62,9.06,9.06,0,0,1,1,1,.61.61,0,0,1,.15.52.62.62,0,0,1-.29.46,4.21,4.21,0,0,0-2,3.59,4.17,4.17,0,0,0,.33,1.63.64.64,0,0,1-.07.64A.65.65,0,0,1,120.88,105.44Zm-.19-7.37h-.21a1.19,1.19,0,0,0-.83.56,8.74,8.74,0,0,0-.85,4.28,1.1,1.1,0,0,0,.86,1,2.84,2.84,0,0,0,.31.06,5.26,5.26,0,0,1-.12-1.12,5.5,5.5,0,0,1,2-4.24l-.34-.31A1.29,1.29,0,0,0,120.69,98.07Z"/><path class="cls-9" d="M124.73,102.53a9.58,9.58,0,0,0-1.93-3.78,4.89,4.89,0,0,0-1.92,6,9.93,9.93,0,0,0,2.49-.15A1.7,1.7,0,0,0,124.73,102.53Z"/><path class="cls-2" d="M121.56,105.46l-.72,0a.66.66,0,0,1-.56-.4,5.55,5.55,0,0,1,2.17-6.84.66.66,0,0,1,.84.13,10.09,10.09,0,0,1,2.07,4,2.32,2.32,0,0,1-.27,1.85,2.42,2.42,0,0,1-1.6,1.07A10.34,10.34,0,0,1,121.56,105.46Zm-.21-1.3a9.32,9.32,0,0,0,1.9-.16,1,1,0,0,0,.73-.49,1,1,0,0,0,.12-.81,9,9,0,0,0-1.42-3,4.19,4.19,0,0,0-1.53,3.25A4.15,4.15,0,0,0,121.35,104.16Z"/><path class="cls-6" d="M121.8,100.94a1,1,0,1,1-1-1A1,1,0,0,1,121.8,100.94Z"/><path class="cls-6" d="M134.5,98.75a8.46,8.46,0,0,1,.9-.9,1.87,1.87,0,0,1,2.8.46,9.08,9.08,0,0,1,.94,4.62,1.74,1.74,0,0,1-1.36,1.67,9.21,9.21,0,0,1-1.37.19,4.77,4.77,0,0,0,.39-1.89A4.9,4.9,0,0,0,134.5,98.75Z"/><path class="cls-2" d="M136.41,105.44a.65.65,0,0,1-.6-.91,4.22,4.22,0,0,0-1.66-5.22.67.67,0,0,1-.3-.46.65.65,0,0,1,.15-.52,8.3,8.3,0,0,1,1-1,2.54,2.54,0,0,1,2-.55A2.48,2.48,0,0,1,138.76,98a9.73,9.73,0,0,1,1,5,2.41,2.41,0,0,1-1.88,2.29,9.47,9.47,0,0,1-1.46.21Zm-.93-6.78a5.53,5.53,0,0,1,2,4.24,5.26,5.26,0,0,1-.12,1.12c.1,0,.2,0,.3-.06a1.09,1.09,0,0,0,.86-1,8.72,8.72,0,0,0-.84-4.28,1.19,1.19,0,0,0-.83-.56,1.28,1.28,0,0,0-1,.27Z"/><path class="cls-9" d="M132.56,102.53a9.45,9.45,0,0,1,1.94-3.78,4.9,4.9,0,0,1,2.3,4.15,4.77,4.77,0,0,1-.39,1.89,9.93,9.93,0,0,1-2.49-.15A1.7,1.7,0,0,1,132.56,102.53Z"/><path class="cls-2" d="M135.73,105.46a10.32,10.32,0,0,1-1.92-.18,2.37,2.37,0,0,1-1.6-1.07,2.32,2.32,0,0,1-.28-1.85,10.22,10.22,0,0,1,2.07-4,.66.66,0,0,1,.84-.13A5.51,5.51,0,0,1,137,105a.65.65,0,0,1-.55.4Zm-2.54-2.76a1,1,0,0,0,.12.81,1.09,1.09,0,0,0,.73.49,9.42,9.42,0,0,0,1.91.16,4.14,4.14,0,0,0,.19-1.26,4.22,4.22,0,0,0-1.52-3.25A8.86,8.86,0,0,0,133.19,102.7Z"/><path class="cls-6" d="M137.45,100.94a1,1,0,1,1-1-1A1,1,0,0,1,137.45,100.94Z"/><path class="cls-7" d="M125.72,92.14l1.3,2.61h2l2-2.61-.65-1.3Z"/><path class="cls-2" d="M129,95.4h-2a.64.64,0,0,1-.58-.36l-1.31-2.6a.68.68,0,0,1,0-.56.66.66,0,0,1,.42-.36l4.56-1.31a.66.66,0,0,1,.76.34l.65,1.3a.66.66,0,0,1-.06.69l-1.95,2.6A.65.65,0,0,1,129,95.4Zm-1.55-1.3h1.23l1.52-2-.23-.46-3.29.94Z"/><path class="cls-7" d="M130.45,98.72V96.47l2.26-1.13V97.6Z"/><path class="cls-2" d="M130.45,99.38a.7.7,0,0,1-.34-.1.66.66,0,0,1-.31-.56V96.47a.64.64,0,0,1,.36-.58l2.26-1.13a.64.64,0,0,1,.63,0,.66.66,0,0,1,.31.55V97.6a.66.66,0,0,1-.36.58l-2.26,1.13A.73.73,0,0,1,130.45,99.38Zm.66-2.51v.8l.95-.48V96.4Z"/><path class="cls-7" d="M124.82,95.43l-1.19.44,1.68,2.76,1.57-1.24Z"/><path class="cls-2" d="M125.31,99.28h-.12a.65.65,0,0,1-.44-.3l-1.68-2.77a.65.65,0,0,1,.34-1l1.19-.43a.66.66,0,0,1,.67.14l2.06,2a.66.66,0,0,1,.2.5.65.65,0,0,1-.25.48l-1.57,1.24A.61.61,0,0,1,125.31,99.28Zm-.71-3.07.88,1.45.41-.32-1.23-1.16Z"/><path class="cls-1" d="M180.86,44.31A26.82,26.82,0,1,1,154,17.49,26.82,26.82,0,0,1,180.86,44.31Z"/><path class="cls-2" d="M182.31,12.46a1.22,1.22,0,0,1-.85-.35,1.2,1.2,0,0,1,0-1.68l2.18-2.18a1.2,1.2,0,1,1,1.69,1.69l-2.18,2.17A1.2,1.2,0,0,1,182.31,12.46Z"/><path class="cls-2" d="M177.23,17.53a1.16,1.16,0,0,1-.84-.35,1.2,1.2,0,0,1,0-1.68l2.18-2.18A1.19,1.19,0,1,1,180.25,15l-2.17,2.17A1.18,1.18,0,0,1,177.23,17.53Z"/><path class="cls-2" d="M179.41,12.46a1.18,1.18,0,0,1-.84-.35l-2.18-2.17a1.2,1.2,0,0,1,1.69-1.69l2.17,2.18a1.18,1.18,0,0,1,0,1.68A1.2,1.2,0,0,1,179.41,12.46Z"/><path class="cls-2" d="M184.48,17.53a1.16,1.16,0,0,1-.84-.35L181.46,15a1.2,1.2,0,1,1,1.69-1.69l2.18,2.18a1.2,1.2,0,0,1,0,1.68A1.18,1.18,0,0,1,184.48,17.53Z"/><path class="cls-2" d="M118.27,30.41l-2.17-2.17a1.19,1.19,0,0,1,1.68-1.68L120,28.73a1.19,1.19,0,0,1-1.69,1.68Z"/><path class="cls-2" d="M113.2,25.34,111,23.17a1.2,1.2,0,0,1,1.69-1.69l2.17,2.18a1.19,1.19,0,0,1-1.68,1.68Z"/><path class="cls-2" d="M116.1,25.34a1.18,1.18,0,0,1,0-1.68l2.17-2.18A1.19,1.19,0,0,1,120,23.17l-2.17,2.17A1.18,1.18,0,0,1,116.1,25.34Z"/><path class="cls-2" d="M111,30.42a1.21,1.21,0,0,1,0-1.69l2.18-2.17a1.19,1.19,0,0,1,1.68,1.68l-2.17,2.18A1.21,1.21,0,0,1,111,30.42Z"/><path class="cls-2" d="M163.64,94.44a3.68,3.68,0,1,1,3.67-3.68A3.68,3.68,0,0,1,163.64,94.44Zm0-5a1.3,1.3,0,1,0,1.29,1.29A1.3,1.3,0,0,0,163.64,89.47Z"/><path class="cls-2" d="M146.6,20.74a1.22,1.22,0,0,1-.85-.35,1.2,1.2,0,0,1,0-1.68l3.52-3.52A1.19,1.19,0,1,1,151,16.88l-3.51,3.51A1.2,1.2,0,0,1,146.6,20.74Z"/><path class="cls-4" d="M183.32,27.1l-10.5,6.07,9.82,8.69,5.06-10.38Z"/><path class="cls-13" d="M182.64,43.06a1.21,1.21,0,0,1-.79-.3L172,34.07a1.19,1.19,0,0,1,.19-1.93l10.5-6.07a1.18,1.18,0,0,1,1.44.19l4.38,4.38a1.19,1.19,0,0,1,.23,1.36l-5.06,10.39a1.21,1.21,0,0,1-.84.64Zm-7.79-9.68,7.4,6.55,4-8.21-3.14-3.13Z"/><path class="cls-14" d="M192.4,21.85l-9.08,5.25,4.38,4.38Z"/><path class="cls-13" d="M187.7,32.67a1.16,1.16,0,0,1-.84-.35l-4.38-4.38a1.16,1.16,0,0,1-.34-1,1.18,1.18,0,0,1,.58-.87l9.08-5.25a1.19,1.19,0,0,1,1.67,1.55L188.77,32a1.2,1.2,0,0,1-.87.66Zm-2.44-5.32,2.1,2.11,2.25-4.62Z"/><path class="cls-4" d="M141.44,27.1,152,33.17l-9.82,8.69-5.07-10.38Z"/><path class="cls-13" d="M142.13,43.06a.85.85,0,0,1-.23,0,1.18,1.18,0,0,1-.84-.64L136,32a1.19,1.19,0,0,1,.23-1.36l4.38-4.38a1.18,1.18,0,0,1,1.44-.19l10.5,6.07a1.2,1.2,0,0,1,.59.91,1.23,1.23,0,0,1-.39,1l-9.82,8.69A1.21,1.21,0,0,1,142.13,43.06Zm-3.62-11.34,4,8.21,7.41-6.55-8.28-4.79Z"/><path class="cls-14" d="M132.37,21.85l9.07,5.25-4.38,4.38Z"/><path class="cls-13" d="M137.06,32.67h-.19A1.22,1.22,0,0,1,136,32l-4.69-9.63A1.19,1.19,0,0,1,133,20.82L142,26.07a1.18,1.18,0,0,1,.25,1.87l-4.38,4.38A1.19,1.19,0,0,1,137.06,32.67Zm-1.91-7.83,2.25,4.62,2.1-2.11Z"/><path class="cls-2" d="M150.61,18.83l-3.3-3.3a1.12,1.12,0,1,0-1.58,1.58l3.3,3.3a1.12,1.12,0,0,0,.79.33,1.09,1.09,0,0,0,.79-.33A1.11,1.11,0,0,0,150.61,18.83Z"/><path class="cls-4" d="M144.06,69.65a25.06,25.06,0,1,1,8.1,6.17"/><path class="cls-13" d="M163,79.47a26.21,26.21,0,0,1-11.33-2.57,1.21,1.21,0,0,1-.56-1.6,1.19,1.19,0,0,1,1.59-.55,23.84,23.84,0,1,0-12.64-15A23.47,23.47,0,0,0,145,68.86a1.19,1.19,0,1,1-1.8,1.57,26.24,26.24,0,1,1,19.81,9Z"/><path class="cls-13" d="M148.69,75a1.16,1.16,0,0,1-.68-.21c-.73-.51-1.44-1.06-2.11-1.63a1.19,1.19,0,0,1,1.55-1.81,23.29,23.29,0,0,0,1.92,1.48,1.19,1.19,0,0,1,.3,1.66A1.17,1.17,0,0,1,148.69,75Z"/><path class="cls-13" d="M178,55.39a1.19,1.19,0,0,1-1.19-1.19,1.91,1.91,0,0,0-3.82,0,1.19,1.19,0,0,1-2.38,0,4.29,4.29,0,0,1,8.58,0A1.19,1.19,0,0,1,178,55.39Z"/><path class="cls-13" d="M153,55.39a1.19,1.19,0,0,1-1.19-1.19,1.91,1.91,0,1,0-3.82,0,1.2,1.2,0,0,1-2.39,0,4.3,4.3,0,0,1,8.59,0A1.19,1.19,0,0,1,153,55.39Z"/><path class="cls-2" d="M130,13.91a1.54,1.54,0,1,1-1.54-1.54A1.54,1.54,0,0,1,130,13.91Z"/><path class="cls-2" d="M195.51,35.37A1.54,1.54,0,1,1,194,33.82,1.54,1.54,0,0,1,195.51,35.37Z"/><path class="cls-11" d="M185.29,63.38a3.84,3.84,0,1,1-3.84-3.83A3.84,3.84,0,0,1,185.29,63.38Z"/><path class="cls-13" d="M181.45,68.4a5,5,0,1,1,5-5A5,5,0,0,1,181.45,68.4Zm0-7.66a2.64,2.64,0,1,0,2.64,2.64A2.64,2.64,0,0,0,181.45,60.74Z"/><path class="cls-11" d="M148.33,63.38a3.83,3.83,0,1,1-3.83-3.83A3.83,3.83,0,0,1,148.33,63.38Z"/><path class="cls-13" d="M144.5,68.4a5,5,0,1,1,5-5A5,5,0,0,1,144.5,68.4Zm0-7.66a2.64,2.64,0,1,0,2.64,2.64A2.64,2.64,0,0,0,144.5,60.74Z"/><path class="cls-13" d="M167.25,63a7.51,7.51,0,0,1-4.93-1.89,7.47,7.47,0,0,1-7.86,1.25,1.19,1.19,0,0,1,1.06-2.13c.15.07,3,1.37,6-1.62a1.18,1.18,0,0,1,1.79.13,5.13,5.13,0,0,0,6,1.45,1.2,1.2,0,0,1,.89,2.22A8,8,0,0,1,167.25,63Z"/><path class="cls-11" d="M162.38,59.46a6.78,6.78,0,0,1-6.29,2.19,33.13,33.13,0,0,0,3.16,10.06,3.49,3.49,0,0,0,6,.12A19,19,0,0,0,168,61.77,6.4,6.4,0,0,1,162.38,59.46Z"/><path class="cls-13" d="M162.28,74.68h-.13a4.62,4.62,0,0,1-4-2.39,35,35,0,0,1-3.29-10.46,1.15,1.15,0,0,1,.36-1,1.18,1.18,0,0,1,1.06-.31,5.61,5.61,0,0,0,5.21-1.86,1.18,1.18,0,0,1,.93-.35,1.22,1.22,0,0,1,.86.47,5.16,5.16,0,0,0,4.52,1.85,1.14,1.14,0,0,1,.94.29,1.18,1.18,0,0,1,.4.9,20.43,20.43,0,0,1-2.91,10.68A4.69,4.69,0,0,1,162.28,74.68ZM157.53,63a29.9,29.9,0,0,0,2.76,8.18,2.22,2.22,0,0,0,1.92,1.17,2.43,2.43,0,0,0,2-1.1,17.42,17.42,0,0,0,2.51-8.2,7.49,7.49,0,0,1-4.44-1.89A8,8,0,0,1,157.53,63Z"/><path class="cls-2" d="M87.64,33a.67.67,0,0,1-.48-1.14l1.23-1.23a.67.67,0,1,1,1,.95l-1.23,1.23A.66.66,0,0,1,87.64,33Z"/><path class="cls-2" d="M84.78,35.84a.67.67,0,0,1-.48-.2.68.68,0,0,1,0-1l1.23-1.22a.67.67,0,0,1,1,1l-1.23,1.22A.63.63,0,0,1,84.78,35.84Z"/><path class="cls-2" d="M86,33a.66.66,0,0,1-.47-.19L84.3,31.56a.67.67,0,0,1,1-.95l1.23,1.23a.68.68,0,0,1,0,.95A.66.66,0,0,1,86,33Z"/><path class="cls-2" d="M88.86,35.84a.63.63,0,0,1-.47-.2l-1.23-1.22a.67.67,0,1,1,1-1l1.23,1.22a.68.68,0,0,1,0,1A.65.65,0,0,1,88.86,35.84Z"/><path class="cls-2" d="M87.38,70.52a2.13,2.13,0,0,1-1-.25,2.07,2.07,0,0,1,.38-3.81,2.07,2.07,0,0,1,2.58,1.38h0a2.07,2.07,0,0,1-2,2.68Zm0-2.8a.76.76,0,0,0-.21,0,.69.69,0,0,0-.43.35.77.77,0,0,0-.06.56.76.76,0,0,0,.36.43.7.7,0,0,0,.55,0,.74.74,0,0,0,.49-.91.76.76,0,0,0-.36-.43A.66.66,0,0,0,87.38,67.72Z"/><path class="cls-2" d="M104.82,37.94a2.07,2.07,0,1,1,2.08-2.07A2.07,2.07,0,0,1,104.82,37.94Zm0-2.8a.73.73,0,1,0,.73.73A.73.73,0,0,0,104.82,35.14Z"/><path class="cls-2" d="M123.86,37.89a.91.91,0,0,1-1.81,0,.91.91,0,1,1,1.81,0Z"/><path class="cls-15" d="M110.8,48.14S112.16,44,118.6,42a3.24,3.24,0,0,1,3.76,1.5c1.48,2.62,3,7.45-1.51,13Z"/><path class="cls-2" d="M120.85,57.19a.64.64,0,0,1-.43-.16l-10-8.38a.65.65,0,0,1-.21-.73c.06-.18,1.55-4.45,8.24-6.56a3.91,3.91,0,0,1,4.54,1.81c1.47,2.58,3.21,7.8-1.56,13.77a.68.68,0,0,1-.46.25Zm-9.24-9.25,9.14,7.61c3.57-4.85,2.55-9,1-11.71a2.55,2.55,0,0,0-3-1.2C113.92,44.19,112.13,46.91,111.61,47.94Z"/><path class="cls-2" d="M121.24,70.56a.67.67,0,0,1-.47-.2.68.68,0,0,1,0-1l2-2a.67.67,0,0,1,1,.95l-2,2A.67.67,0,0,1,121.24,70.56Z"/><path class="cls-15" d="M98.73,48.14S97.36,44,90.92,42a3.24,3.24,0,0,0-3.76,1.5c-1.48,2.62-3,7.45,1.51,13Z"/><path class="cls-2" d="M88.67,57.19H88.6a.71.71,0,0,1-.46-.25c-4.77-6-3-11.19-1.56-13.77a3.91,3.91,0,0,1,4.54-1.81c6.69,2.11,8.18,6.38,8.24,6.56a.66.66,0,0,1-.2.73L89.1,57A.64.64,0,0,1,88.67,57.19ZM90,42.53a2.57,2.57,0,0,0-2.23,1.31c-1.53,2.69-2.55,6.86,1,11.71l9.14-7.61c-.52-1-2.3-3.75-7.19-5.3A2.76,2.76,0,0,0,90,42.53Z"/><path class="cls-2" d="M123.22,70.56a.67.67,0,0,1-.47-.2l-2-2a.67.67,0,0,1,1-.95l2,2a.68.68,0,0,1-.48,1.15Z"/><path class="cls-15" d="M120.32,51.91A10.66,10.66,0,0,1,122,57.53c0,7.3-7.71,13.21-17.22,13.21S87.5,64.83,87.5,57.53s7.71-13.2,17.23-13.2a20.37,20.37,0,0,1,11.37,3.29"/><path class="cls-2" d="M104.73,71.41c-9.88,0-17.91-6.23-17.91-13.88s8-13.87,17.91-13.87a21.23,21.23,0,0,1,11.75,3.4.67.67,0,0,1,.18.93.68.68,0,0,1-.93.19,19.83,19.83,0,0,0-11-3.18c-9.13,0-16.56,5.62-16.56,12.53s7.43,12.54,16.56,12.54,16.55-5.63,16.55-12.54a9.94,9.94,0,0,0-1.53-5.27.67.67,0,1,1,1.14-.7,11.27,11.27,0,0,1,1.74,6C122.63,65.18,114.6,71.41,104.73,71.41Z"/><path class="cls-6" d="M107.94,50.59l-3.18,3.24-2.42-3.17a2.33,2.33,0,0,0-2.39-.88C94,51.21,89.67,55.23,89.67,60c0,5.94,6.76,10.76,15.09,10.76S119.85,65.92,119.85,60c0-4.56-4-8.45-9.6-10A2.34,2.34,0,0,0,107.94,50.59Z"/><path class="cls-2" d="M104.76,71.41C96.07,71.41,89,66.28,89,60c0-4.94,4.34-9.3,10.8-10.84a3,3,0,0,1,3.08,1.12l1.94,2.55,2.64-2.68a3,3,0,0,1,3-.81c6.13,1.71,10.09,5.9,10.09,10.67C120.52,66.28,113.45,71.41,104.76,71.41Zm-4.29-21a1.47,1.47,0,0,0-.36,0c-5.84,1.4-9.76,5.24-9.76,9.54,0,5.57,6.46,10.1,14.41,10.1s14.42-4.53,14.42-10.1c0-4.08-3.66-7.85-9.11-9.36a1.64,1.64,0,0,0-1.65.45l-3.18,3.24a.77.77,0,0,1-.52.2.66.66,0,0,1-.49-.27l-2.42-3.16A1.71,1.71,0,0,0,100.47,50.39Zm7.47.2h0Z"/><path class="cls-2" d="M119.07,50.89a.69.69,0,0,1-.51-.23c-.31-.35-.64-.7-1-1a.67.67,0,0,1,0-1,.68.68,0,0,1,1,0,14.62,14.62,0,0,1,1.1,1.13.67.67,0,0,1-.07.94A.63.63,0,0,1,119.07,50.89Z"/><path class="cls-11" d="M99.93,64.89a9,9,0,0,1,2.75-4.19,2.69,2.69,0,0,1,3.46-.13,7.64,7.64,0,0,1,2.9,4.48,1.93,1.93,0,0,1-1.91,2.28H101.8a1.93,1.93,0,0,1-1.87-2.44"/><path class="cls-2" d="M107.13,68H101.8a2.64,2.64,0,0,1-2.1-1.06,2.54,2.54,0,0,1-.42-2.24h0a9.78,9.78,0,0,1,3-4.5,3.39,3.39,0,0,1,4.33-.15,8.31,8.31,0,0,1,3.13,4.86,2.52,2.52,0,0,1-.51,2.11A2.64,2.64,0,0,1,107.13,68Zm-6.56-2.92a1.23,1.23,0,0,0,.2,1.06,1.29,1.29,0,0,0,1,.52h5.33a1.29,1.29,0,0,0,1-.48,1.16,1.16,0,0,0,.25-1,6.9,6.9,0,0,0-2.65-4.09,2,2,0,0,0-2.6.1A8.31,8.31,0,0,0,100.57,65.08Z"/><path class="cls-6" d="M109.29,57.52a9.57,9.57,0,0,1,5.28,0"/><path class="cls-2" d="M114.57,58.19a.69.69,0,0,1-.2,0,8.9,8.9,0,0,0-4.91,0,.67.67,0,0,1-.35-1.3,10.23,10.23,0,0,1,5.65,0,.66.66,0,0,1,.45.83A.67.67,0,0,1,114.57,58.19Z"/><path class="cls-6" d="M94.2,57.52a9.57,9.57,0,0,1,5.28,0"/><path class="cls-2" d="M99.48,58.19a.63.63,0,0,1-.19,0,8.85,8.85,0,0,0-4.92,0,.67.67,0,0,1-.82-.48.68.68,0,0,1,.48-.82,10.19,10.19,0,0,1,5.64,0,.67.67,0,0,1-.19,1.31Z"/><path class="cls-6" d="M109.06,65.3l-2.94-.84.37,2.87h.64A1.93,1.93,0,0,0,109.06,65.3Z"/><path class="cls-2" d="M107.13,68h-.64a.66.66,0,0,1-.66-.59l-.37-2.86a.67.67,0,0,1,.22-.6.71.71,0,0,1,.63-.13l2.94.84a.67.67,0,0,1,.48.6,2.56,2.56,0,0,1-.69,1.91A2.61,2.61,0,0,1,107.13,68Zm0-1.34h0a1.29,1.29,0,0,0,.93-.41,1.08,1.08,0,0,0,.27-.46l-1.41-.4Z"/><path class="cls-6" d="M102.65,64.46l-2.78.8a1.94,1.94,0,0,0,1.93,2.07h.48Z"/><path class="cls-2" d="M102.28,68h-.48a2.6,2.6,0,0,1-1.92-.85,2.57,2.57,0,0,1-.68-2,.66.66,0,0,1,.48-.59l2.78-.79a.66.66,0,0,1,.62.13.68.68,0,0,1,.23.6l-.37,2.86A.67.67,0,0,1,102.28,68Zm-1.7-2.25a1.33,1.33,0,0,0,.28.49,1.27,1.27,0,0,0,.83.41l.16-1.26Z"/><path class="cls-2" d="M84.32,72.58a.78.78,0,0,1-.79-.78V69.45a.79.79,0,0,1,1.57,0V71.8A.78.78,0,0,1,84.32,72.58Z"/><path class="cls-2" d="M84.32,78.07a.78.78,0,0,1-.78-.79V74.93a.79.79,0,0,1,1.57,0v2.35A.78.78,0,0,1,84.32,78.07Z"/><path class="cls-2" d="M82.75,74.15H80.4a.79.79,0,1,1,0-1.57h2.35a.79.79,0,0,1,0,1.57Z"/><path class="cls-2" d="M88.24,74.14H85.89a.79.79,0,1,1,0-1.57h2.35a.78.78,0,1,1,0,1.56Z"/><path class="cls-2" d="M88.12,89.56A2.4,2.4,0,0,1,87,89.28a2.42,2.42,0,0,1,.43-4.45,2.43,2.43,0,0,1,1.85.18,2.38,2.38,0,0,1,1.17,1.43h0a2.41,2.41,0,0,1-2.31,3.12Zm0-3.27a1,1,0,0,0-.25,0,.82.82,0,0,0-.5.41.86.86,0,0,0-.07.65.84.84,0,0,0,.42.5.84.84,0,0,0,1.21-1,.84.84,0,0,0-.41-.51A1,1,0,0,0,88.12,86.29Z"/><path class="cls-2" d="M45.76,72.75a2.42,2.42,0,1,1,2.42-2.42A2.41,2.41,0,0,1,45.76,72.75Zm0-3.26a.85.85,0,1,0,.85.85A.85.85,0,0,0,45.76,69.49Z"/><path class="cls-2" d="M43.78,86.52a.82.82,0,0,1-.56-.23.79.79,0,0,1,0-1.11l2.31-2.31a.78.78,0,0,1,1.11,0,.8.8,0,0,1,0,1.11l-2.31,2.31A.78.78,0,0,1,43.78,86.52Z"/><path class="cls-2" d="M46.09,86.52a.82.82,0,0,1-.56-.23L43.22,84a.78.78,0,0,1,0-1.11.8.8,0,0,1,1.11,0l2.31,2.31a.79.79,0,0,1-.55,1.34Z"/><path class="cls-3" d="M82.77,89.87a16.26,16.26,0,0,1,1.57,7l0,14.12a3.12,3.12,0,0,1-3.12,3.12l-26.68,0A3.12,3.12,0,0,1,51.44,111l0-13.71c0-9.1,7.43-16.93,16.53-16.89a16.37,16.37,0,0,1,10.79,4.08"/><path class="cls-2" d="M81.24,114.91l-26.68,0a3.91,3.91,0,0,1-3.9-3.9l0-13.71a18,18,0,0,1,5.28-12.64,17,17,0,0,1,12-5,17.3,17.3,0,0,1,11.31,4.28A.8.8,0,0,1,79.33,85a.79.79,0,0,1-1.11.07,15.66,15.66,0,0,0-10.28-3.89h-.07A15.32,15.32,0,0,0,57,85.8a16.36,16.36,0,0,0-4.82,11.53V111a2.34,2.34,0,0,0,2.34,2.34l26.68,0A2.33,2.33,0,0,0,83.57,111V96.88a15.53,15.53,0,0,0-1.5-6.68.79.79,0,0,1,.38-1,.77.77,0,0,1,1,.37,17.24,17.24,0,0,1,1.65,7.35V111A3.92,3.92,0,0,1,81.24,114.91Z"/><path class="cls-2" d="M81.58,88.54a.78.78,0,0,1-.65-.34,15.41,15.41,0,0,0-1-1.29.78.78,0,0,1,.11-1.1.77.77,0,0,1,1.1.11c.37.45.72.92,1,1.4A.79.79,0,0,1,82,88.41.75.75,0,0,1,81.58,88.54Z"/><path class="cls-14" d="M79.64,95.31c0-2.16-.53-3.91-1.18-3.91s-1.18,1.75-1.17,3.92.53,3.92,1.18,3.91S79.64,97.48,79.64,95.31Z"/><path class="cls-2" d="M78.47,100c-1.87,0-2-3.92-2-4.7s.09-4.7,2-4.71,2,3.92,2,4.7S80.33,100,78.47,100Zm0-7.49a8.59,8.59,0,0,0-.39,2.79,8.24,8.24,0,0,0,.4,2.78,8.38,8.38,0,0,0,.38-2.79A8.57,8.57,0,0,0,78.46,92.53Z"/><path class="cls-14" d="M58.48,96.12c0-2.16-.53-3.92-1.18-3.92S56.12,94,56.13,96.12s.53,3.92,1.18,3.92S58.48,98.29,58.48,96.12Z"/><path class="cls-2" d="M57.31,100.82c-1.87,0-2-3.91-2-4.7s.09-4.7,2-4.7,2,3.91,2,4.7S59.17,100.82,57.31,100.82Zm0-7.49a10.17,10.17,0,0,0,0,5.58,10.17,10.17,0,0,0,0-5.58Z"/><path class="cls-10" d="M75.73,101.35c0,2.51-3.33,4.55-7.45,4.56s-7.44-2-7.45-4.54,2.51-2.9,6.62-2.91S75.72,98.84,75.73,101.35Z"/><path class="cls-2" d="M68.29,106.69c-4.62,0-8.24-2.33-8.24-5.32,0-3.68,4.27-3.69,7.4-3.69,2.94,0,9.06,0,9.06,3.67C76.51,104.34,72.9,106.69,68.29,106.69Zm-.84-7.44c-4.93,0-5.83.71-5.83,2.11,0,2,3.05,3.77,6.66,3.76s6.66-1.73,6.66-3.77S69.3,99.24,67.45,99.25Z"/><path class="cls-6" d="M63.59,98.71a2.32,2.32,0,0,0-.41,1.32,2.36,2.36,0,1,0,4.1-1.57A22.57,22.57,0,0,0,63.59,98.71Z"/><path class="cls-2" d="M65.54,103.17a3.14,3.14,0,0,1-2.6-4.9.81.81,0,0,1,.5-.33,22.73,22.73,0,0,1,3.83-.26h0a.77.77,0,0,1,.59.26,3.13,3.13,0,0,1-2.32,5.23Zm-1.45-3.75A1.62,1.62,0,0,0,64,100a1.57,1.57,0,1,0,3.13,0,1.5,1.5,0,0,0-.21-.78A21.6,21.6,0,0,0,64.09,99.42Z"/><path class="cls-6" d="M78.07,93.36a1.18,1.18,0,1,1-1.18-1.18A1.17,1.17,0,0,1,78.07,93.36Z"/><path class="cls-6" d="M60,93.38a1.18,1.18,0,0,1-2.35,0,1.18,1.18,0,1,1,2.35,0Z"/><path class="cls-2" d="M67.87,81.22a.78.78,0,0,1-.79-.78V74.17a.79.79,0,1,1,1.57,0v6.27A.78.78,0,0,1,67.87,81.22Z"/><path class="cls-2" d="M66.41,81.07a.77.77,0,0,1-.72-.48,15.2,15.2,0,0,0-3.09-4.3.78.78,0,0,1,1.11-1.11A16.41,16.41,0,0,1,67.14,80a.78.78,0,0,1-.43,1A.8.8,0,0,1,66.41,81.07Z"/><path class="cls-2" d="M69.32,81.07A.8.8,0,0,1,69,81a.78.78,0,0,1-.43-1A16.08,16.08,0,0,1,72,75.17a.78.78,0,0,1,1.11,1.11A15,15,0,0,0,70,80.58.76.76,0,0,1,69.32,81.07Z"/><path class="cls-2" d="M257.29,13.68a.51.51,0,0,1-.36-.15.51.51,0,0,1,0-.71L258,11.75a.51.51,0,0,1,.72,0,.51.51,0,0,1,0,.71l-1.07,1.07A.51.51,0,0,1,257.29,13.68Z"/><path class="cls-2" d="M254.8,16.17a.51.51,0,0,1-.36-.15.5.5,0,0,1,0-.71l1.07-1.07a.5.5,0,1,1,.71.71L255.15,16A.49.49,0,0,1,254.8,16.17Z"/><path class="cls-2" d="M255.87,13.68a.51.51,0,0,1-.36-.15l-1.07-1.07a.5.5,0,0,1,.71-.71l1.07,1.07a.5.5,0,0,1,0,.71A.5.5,0,0,1,255.87,13.68Z"/><path class="cls-2" d="M258.36,16.17A.51.51,0,0,1,258,16L256.93,15a.51.51,0,0,1,0-.71.51.51,0,0,1,.72,0l1.07,1.07a.51.51,0,0,1,0,.71A.51.51,0,0,1,258.36,16.17Z"/><path class="cls-2" d="M257.5,39.92a1.47,1.47,0,0,1-.73-.19,1.55,1.55,0,0,1,.28-2.85,1.55,1.55,0,0,1,1.94,1h0a1.56,1.56,0,0,1-1,1.94A1.41,1.41,0,0,1,257.5,39.92Zm0-2.1a.44.44,0,0,0-.16,0,.53.53,0,0,0-.32.27.53.53,0,0,0,0,.41.54.54,0,0,0,.26.33.61.61,0,0,0,.42,0,.54.54,0,0,0,.36-.68.54.54,0,0,0-.26-.33A.58.58,0,0,0,257.5,37.82Z"/><path class="cls-2" d="M232.3,20a1.56,1.56,0,1,1,1.55-1.56A1.56,1.56,0,0,1,232.3,20Zm0-2.11a.55.55,0,1,0,.54.55A.55.55,0,0,0,232.3,17.91Z"/><path class="cls-2" d="M231.52,38.94a.51.51,0,0,1-.36-.15.5.5,0,0,1,0-.71l1.48-1.48a.51.51,0,0,1,.72,0,.51.51,0,0,1,0,.71l-1.49,1.48A.5.5,0,0,1,231.52,38.94Z"/><path class="cls-2" d="M233,38.94a.51.51,0,0,1-.36-.15l-1.48-1.48a.5.5,0,1,1,.71-.71l1.49,1.48a.51.51,0,0,1,0,.71A.51.51,0,0,1,233,38.94Z"/><path class="cls-2" d="M237.56,14.25a.47.47,0,0,1-.35-.15.5.5,0,0,1,0-.71l1.48-1.48a.5.5,0,1,1,.71.71l-1.48,1.48A.51.51,0,0,1,237.56,14.25Z"/><path class="cls-2" d="M239.05,14.25a.51.51,0,0,1-.36-.15l-1.48-1.48a.5.5,0,0,1,.71-.71l1.48,1.48a.5.5,0,0,1,0,.71A.49.49,0,0,1,239.05,14.25Z"/><path class="cls-6" d="M251.52,38.91a11.33,11.33,0,1,1,3-3.5"/><path class="cls-2" d="M244.57,41.78A11.86,11.86,0,0,1,233,32.49a11.85,11.85,0,0,1,9-14.11A11.84,11.84,0,0,1,255,35.65a.5.5,0,1,1-.88-.49,10.84,10.84,0,1,0-7.15,5.35,10.67,10.67,0,0,0,4.28-2,.51.51,0,0,1,.62.8,11.72,11.72,0,0,1-4.68,2.19A11.92,11.92,0,0,1,244.57,41.78Z"/><path class="cls-2" d="M252.76,38.3a.54.54,0,0,1-.35-.14.5.5,0,0,1,0-.71,9.41,9.41,0,0,0,.72-.84.51.51,0,0,1,.8.62,11.45,11.45,0,0,1-.79.91A.49.49,0,0,1,252.76,38.3Z"/><path class="cls-9" d="M255.92,30a11,11,0,0,0-.26-2.54,11.34,11.34,0,0,0-22.4,2.8A36.61,36.61,0,0,1,245,28.5,37.41,37.41,0,0,1,255.92,30Z"/><path class="cls-2" d="M233.26,30.79a.47.47,0,0,1-.28-.09.53.53,0,0,1-.22-.4,11.84,11.84,0,0,1,23.39-2.92,11.46,11.46,0,0,1,.27,2.65.48.48,0,0,1-.2.4.49.49,0,0,1-.45.08A37,37,0,0,0,245,29a36.16,36.16,0,0,0-11.56,1.76A.51.51,0,0,1,233.26,30.79ZM244.59,19.1a11.11,11.11,0,0,0-2.34.26,10.82,10.82,0,0,0-8.48,10.23A37.64,37.64,0,0,1,245,28a38.56,38.56,0,0,1,10.41,1.36A10.77,10.77,0,0,0,244.59,19.1Z"/><path class="cls-6" d="M246.4,25.6a10.28,10.28,0,0,1,4.75-2.77,8.77,8.77,0,0,1,.54,3.42.87.87,0,0,1-.92.82,11.29,11.29,0,0,1-4.37-1A.27.27,0,0,1,246.4,25.6Z"/><path class="cls-2" d="M250.82,27.58h-.08a11.69,11.69,0,0,1-4.59-1.08.76.76,0,0,1-.09-1.27A10.71,10.71,0,0,1,251,22.35a.5.5,0,0,1,.62.29,9.37,9.37,0,0,1,.57,3.64,1.38,1.38,0,0,1-1.37,1.3Zm-3.9-1.81a11.89,11.89,0,0,0,3.88.8.35.35,0,0,0,.26-.09.38.38,0,0,0,.13-.26,8.46,8.46,0,0,0-.35-2.75A9.69,9.69,0,0,0,246.92,25.77Zm-.52-.17Z"/><path class="cls-6" d="M242.57,25.6a10.22,10.22,0,0,0-4.75-2.77,9,9,0,0,0-.54,3.42.87.87,0,0,0,.92.82,11.37,11.37,0,0,0,4.38-1A.28.28,0,0,0,242.57,25.6Z"/><path class="cls-2" d="M238.15,27.58a1.35,1.35,0,0,1-.91-.35,1.37,1.37,0,0,1-.46-.95,9.37,9.37,0,0,1,.57-3.64.5.5,0,0,1,.62-.29,10.8,10.8,0,0,1,4.95,2.88.78.78,0,0,1,.29.61.75.75,0,0,1-.39.66,11.69,11.69,0,0,1-4.59,1.08Zm0-4.11a8.23,8.23,0,0,0-.35,2.75.37.37,0,0,0,.12.26.36.36,0,0,0,.26.09,11.79,11.79,0,0,0,3.88-.8A9.71,9.71,0,0,0,238.14,23.47ZM242.32,26h0Z"/><path class="cls-2" d="M249.52,26c0-.56-.22-1-.5-1s-.5.45-.5,1,.22,1,.5,1S249.52,26.53,249.52,26Z"/><path class="cls-2" d="M240.46,26c0-.56-.23-1-.51-1s-.5.45-.5,1,.22,1,.5,1S240.46,26.53,240.46,26Z"/><path class="cls-2" d="M84.77,32.05a1,1,0,1,1-1-1A1,1,0,0,1,84.77,32.05Z"/><path class="cls-2" d="M23,53H20.94a.81.81,0,1,1,0-1.61H23A.81.81,0,1,1,23,53Z"/><path class="cls-2" d="M18.16,53H16.07a.81.81,0,0,1,0-1.61h2.09a.81.81,0,1,1,0,1.61Z"/><path class="cls-2" d="M19.55,51.56a.81.81,0,0,1-.81-.81V48.67a.81.81,0,1,1,1.62,0v2.08A.81.81,0,0,1,19.55,51.56Z"/><path class="cls-2" d="M19.55,56.43a.81.81,0,0,1-.81-.81V53.53a.81.81,0,0,1,1.62,0v2.09A.81.81,0,0,1,19.55,56.43Z"/><path class="cls-2" d="M82,55.64a2.5,2.5,0,1,1,2.5-2.49A2.5,2.5,0,0,1,82,55.64Zm0-3.37a.88.88,0,1,0,.88.88A.87.87,0,0,0,82,52.27Z"/><path class="cls-4" d="M66.81,35.83l.79-7.95a19.83,19.83,0,0,1,5-11.27l9-10.09-.86,13.76A19.74,19.74,0,0,1,77,30.7L71.69,38Z"/><path class="cls-2" d="M71.69,38.83a.73.73,0,0,1-.33-.08l-4.88-2.18a.79.79,0,0,1-.47-.81l.79-8A20.52,20.52,0,0,1,72,16.07L81,6a.8.8,0,0,1,.91-.21.82.82,0,0,1,.5.8l-.86,13.76a20.57,20.57,0,0,1-3.9,10.85l-5.32,7.31A.8.8,0,0,1,71.69,38.83Zm-4-3.5L71.42,37l4.93-6.78a19,19,0,0,0,3.6-10l.71-11.44-7.49,8.36A18.86,18.86,0,0,0,68.41,28Z"/><path class="cls-3" d="M67.61,36.19s5-15.43,6.4-17.08l2.91-3.35a.83.83,0,0,1,1.46.61l-.33,4.55c-.16,1.94-7.66,16.52-7.66,16.52Z"/><path class="cls-2" d="M70.39,38.25a1,1,0,0,1-.33-.07l-2.78-1.25a.82.82,0,0,1-.44-1c.84-2.61,5.1-15.68,6.56-17.37l2.9-3.35a1.65,1.65,0,0,1,1.88-.44,1.62,1.62,0,0,1,1,1.64L78.85,21c-.16,2-6.47,14.37-7.74,16.83A.82.82,0,0,1,70.39,38.25Zm-1.78-2.5,1.41.64c3.5-6.83,7.13-14.41,7.22-15.53l.33-4.55-2.95,3.33C73.7,20.71,70.54,29.8,68.61,35.75Z"/><path class="cls-4" d="M57,35.83l-.79-7.95a19.82,19.82,0,0,0-5-11.27l-9-10.09L43,20.28A19.91,19.91,0,0,0,46.78,30.7L52.1,38Z"/><path class="cls-2" d="M52.1,38.83a.79.79,0,0,1-.65-.34l-5.32-7.31a20.57,20.57,0,0,1-3.9-10.85L41.37,6.57a.82.82,0,0,1,.5-.8.81.81,0,0,1,.91.21l9,10.09A20.54,20.54,0,0,1,57,27.8l.79,8a.81.81,0,0,1-.48.81l-4.87,2.18A.8.8,0,0,1,52.1,38.83Zm-9-30,.71,11.44a19,19,0,0,0,3.6,10L52.37,37l3.74-1.68L55.38,28a18.93,18.93,0,0,0-4.76-10.81Z"/><path class="cls-3" d="M56.17,36.19s-5-15.43-6.4-17.08l-2.9-3.35a.83.83,0,0,0-1.46.61l.33,4.55c.15,1.94,7.65,16.52,7.65,16.52Z"/><path class="cls-2" d="M53.39,38.25a.81.81,0,0,1-.71-.44C51.41,35.35,45.09,23,44.93,21l-.33-4.56a1.64,1.64,0,0,1,2.88-1.2l2.9,3.35C51.85,20.27,56.1,33.34,56.94,36a.8.8,0,0,1-.44,1l-2.78,1.25A.88.88,0,0,1,53.39,38.25Zm-7.13-22,.28,4.57c.09,1.12,3.73,8.7,7.22,15.53l1.42-.64c-1.93-5.95-5.09-15-6-16.11Z"/><path class="cls-4" d="M49.78,50.12a16.07,16.07,0,1,1,5.19,4"/><path class="cls-2" d="M61.89,56.46a16.77,16.77,0,0,1-7.27-1.66.81.81,0,0,1,.7-1.46,15.21,15.21,0,1,0-8.07-9.59,15,15,0,0,0,3.15,5.84.81.81,0,0,1-.09,1.14.8.8,0,0,1-1.14-.08,16.83,16.83,0,1,1,12.72,5.81Z"/><path class="cls-2" d="M52.75,53.59a.86.86,0,0,1-.46-.14c-.47-.33-.92-.68-1.36-1.05a.81.81,0,0,1,1-1.23c.4.34.81.66,1.23.95a.81.81,0,0,1-.46,1.47Z"/><path class="cls-2" d="M38.68,20.73a1,1,0,1,1-1-1.05A1,1,0,0,1,38.68,20.73Z"/><path class="cls-2" d="M64.62,46.68a4.86,4.86,0,0,1-3.15-1.19,4.82,4.82,0,0,1-5,.78.8.8,0,0,1-.36-1.08.81.81,0,0,1,1.08-.37,3.39,3.39,0,0,0,3.8-1,.79.79,0,0,1,.63-.24.82.82,0,0,1,.59.32,3.23,3.23,0,0,0,3.78.92.8.8,0,0,1,1,.45.82.82,0,0,1-.45,1A5.16,5.16,0,0,1,64.62,46.68Z"/><path class="cls-3" d="M73.52,37.17c1.09,4.37-.18,7.8-4,5.51-2-1.22-2.55-3.1-2.55-5.51s1.23-4.36,2.73-4.36S72.93,34.81,73.52,37.17Z"/><path class="cls-2" d="M71.68,44.22a5,5,0,0,1-2.57-.85c-2.61-1.56-2.94-4.13-2.94-6.2,0-2.9,1.55-5.17,3.53-5.17,2.21,0,4,2.5,4.6,5,.79,3.15.41,5.67-1,6.72A2.66,2.66,0,0,1,71.68,44.22Zm-2-10.6c-.91,0-1.92,1.46-1.92,3.55,0,2.5.63,3.9,2.16,4.81.61.37,1.73.91,2.38.42s1.1-2.29.42-5C72.22,35.3,70.86,33.62,69.7,33.62Z"/><path class="cls-14" d="M71.05,38.1c0-1.69-.86-3.05-1.91-3.05s-1.91,1.36-1.91,3.05.86,3,1.91,3S71.05,39.79,71.05,38.1Z"/><path class="cls-2" d="M69.14,42c-1.52,0-2.72-1.7-2.72-3.86s1.2-3.86,2.72-3.86,2.72,1.7,2.72,3.86S70.66,42,69.14,42Zm0-6.1c-.45,0-1.1.87-1.1,2.24s.65,2.24,1.1,2.24,1.1-.87,1.1-2.24S69.59,35.86,69.14,35.86Z"/><path class="cls-6" d="M71.81,35.43a1.15,1.15,0,1,1-1.14-1.14A1.14,1.14,0,0,1,71.81,35.43Z"/><path class="cls-3" d="M49.5,37.17c-1.09,4.37.19,7.8,4,5.51,2-1.22,2.55-3.1,2.55-5.51s-1.22-4.36-2.73-4.36S50.09,34.81,49.5,37.17Z"/><path class="cls-2" d="M51.34,44.22a2.61,2.61,0,0,1-1.6-.52c-1.43-1.05-1.81-3.57-1-6.72.62-2.48,2.4-5,4.6-5,2,0,3.54,2.27,3.54,5.17,0,2.07-.34,4.64-2.94,6.2A5,5,0,0,1,51.34,44.22Zm2-10.6c-1.16,0-2.52,1.68-3,3.75-.69,2.74-.27,4.53.41,5s1.78,0,2.39-.42c1.53-.91,2.15-2.31,2.15-4.81C55.24,35.08,54.23,33.62,53.32,33.62ZM49.5,37.17h0Z"/><path class="cls-14" d="M55.79,38.1c0-1.69-.85-3.05-1.91-3.05S52,36.41,52,38.1s.85,3,1.9,3S55.79,39.79,55.79,38.1Z"/><path class="cls-2" d="M53.88,42c-1.52,0-2.71-1.7-2.71-3.86s1.19-3.86,2.71-3.86,2.72,1.7,2.72,3.86S55.41,42,53.88,42Zm0-6.1c-.44,0-1.1.87-1.1,2.24s.66,2.24,1.1,2.24S55,39.47,55,38.1,54.33,35.86,53.88,35.86Z"/><path class="cls-6" d="M53.5,35.43a1.15,1.15,0,1,1-1.14-1.14A1.14,1.14,0,0,1,53.5,35.43Z"/><path class="cls-2" d="M54,14a.85.85,0,0,1-.57-.23.83.83,0,0,1,0-1.15l2.39-2.38A.81.81,0,0,1,57,11.42l-2.38,2.39A.85.85,0,0,1,54,14Z"/><path class="cls-2" d="M56.4,14a.81.81,0,0,1-.57-.23l-2.39-2.39a.81.81,0,0,1,1.15-1.14L57,12.66a.81.81,0,0,1,0,1.15A.85.85,0,0,1,56.4,14Z"/><path class="cls-2" d="M253.14,64.57a.87.87,0,0,1-.62-.26.86.86,0,0,1,0-1.22l1.89-1.89a.87.87,0,0,1,1.23,1.23l-1.89,1.88A.87.87,0,0,1,253.14,64.57Z"/><path class="cls-2" d="M248.73,69a.85.85,0,0,1-.61-.25.87.87,0,0,1,0-1.23L250,65.6a.87.87,0,1,1,1.22,1.23l-1.88,1.89A.88.88,0,0,1,248.73,69Z"/><path class="cls-2" d="M250.62,64.57a.87.87,0,0,1-.61-.26l-1.89-1.88a.87.87,0,0,1,1.23-1.23l1.88,1.89a.87.87,0,0,1-.61,1.48Z"/><path class="cls-2" d="M255,69a.85.85,0,0,1-.61-.25l-1.89-1.89a.87.87,0,0,1,0-1.23.89.89,0,0,1,1.23,0l1.89,1.89A.87.87,0,0,1,255,69Z"/><path class="cls-2" d="M287.52,72.4a2.68,2.68,0,1,1,2.68-2.67A2.68,2.68,0,0,1,287.52,72.4Zm0-3.62a.95.95,0,1,0,.94,1A.95.95,0,0,0,287.52,68.78Z"/><path class="cls-2" d="M280.88,48.3a1.17,1.17,0,1,1-1.16-1.17A1.17,1.17,0,0,1,280.88,48.3Z"/><path class="cls-2" d="M268,54.06a.85.85,0,0,1-.61-.25.87.87,0,0,1,0-1.23L269.9,50a.87.87,0,0,1,1.23,0,.86.86,0,0,1,0,1.22l-2.56,2.56A.85.85,0,0,1,268,54.06Z"/><path class="cls-2" d="M270.52,54.06a.88.88,0,0,1-.62-.25l-2.55-2.56A.86.86,0,0,1,268.57,50l2.56,2.55a.87.87,0,0,1,0,1.23A.85.85,0,0,1,270.52,54.06Z"/><path class="cls-5" d="M262.62,113a55.45,55.45,0,0,1-18.86.68c-13-1.89-14.49-3.54-15.14-5.91a9.49,9.49,0,0,1,0-5.07,60.54,60.54,0,0,1,2.37-6.5,14.69,14.69,0,0,0,.85-8.88l-1.62-7.5a2.95,2.95,0,0,1,5-2.62l2.15,2.33a2,2,0,0,0,2.91,0l2.11-2.28A3.88,3.88,0,0,1,245.62,76l1.57.13a3.81,3.81,0,0,1,2.84,1.6,2.18,2.18,0,0,0,2.53.78l.93-.34a5.91,5.91,0,0,1,6.64,1.89l1.73,2.21A4.36,4.36,0,0,0,266,83.87l1.77-.29a4.86,4.86,0,0,1,5.11,7.06L271,94.25a6.73,6.73,0,0,0,.8,7.45l2,2.43a3.89,3.89,0,0,1-1.62,6.13c-.65.25-1.43.52-2.31.81"/><path class="cls-13" d="M251,115a51.22,51.22,0,0,1-7.39-.53c-12.61-1.84-15-3.44-15.85-6.55a10.29,10.29,0,0,1,.06-5.53,58.85,58.85,0,0,1,2.41-6.59,13.91,13.91,0,0,0,.79-8.37L229.42,80A3.82,3.82,0,0,1,236,76.58l2.15,2.33a1.11,1.11,0,0,0,1.64,0l2.1-2.28a4.73,4.73,0,0,1,3.83-1.5l1.58.12a4.7,4.7,0,0,1,3.47,2,1.32,1.32,0,0,0,1.53.47l.93-.34a6.79,6.79,0,0,1,4.45,0,6.71,6.71,0,0,1,3.17,2.23l1.73,2.21A3.52,3.52,0,0,0,265.87,83l1.77-.3a5.74,5.74,0,0,1,6,8.32l-1.89,3.61a5.93,5.93,0,0,0-.56,3.88,6,6,0,0,0,1.25,2.61l2,2.43a4.76,4.76,0,0,1-2,7.5c-.67.25-1.46.53-2.35.82a.87.87,0,1,1-.54-1.65c.87-.28,1.63-.55,2.28-.79a3,3,0,0,0,2-2.83,3,3,0,0,0-.7-1.94l-2-2.42a7.63,7.63,0,0,1-.9-8.42l1.89-3.6a4,4,0,0,0-4.2-5.81l-1.76.3a5.26,5.26,0,0,1-5-1.93l-1.73-2.21A5,5,0,0,0,253.79,79l-.94.35a3.08,3.08,0,0,1-3.53-1.1,3,3,0,0,0-2.2-1.24l-1.57-.12a3,3,0,0,0-2.42,1L241,80.09a2.87,2.87,0,0,1-2.09.92h0a2.85,2.85,0,0,1-2.09-.92l-2.16-2.33a2,2,0,0,0-2.07-.6,2.08,2.08,0,0,0-1.49,2.45l1.62,7.5a15.57,15.57,0,0,1-.9,9.4,59.18,59.18,0,0,0-2.33,6.4,8.56,8.56,0,0,0-.06,4.6c.53,1.93,1.88,3.45,14.43,5.28a54,54,0,0,0,18.57-.67.87.87,0,1,1,.34,1.7A59.5,59.5,0,0,1,251,115Z"/><path class="cls-5" d="M267.45,111.81l-1.34.36"/><path class="cls-13" d="M266.11,113a.86.86,0,0,1-.84-.65.87.87,0,0,1,.62-1.06l1.33-.36a.87.87,0,1,1,.47,1.67c-.44.13-.89.25-1.36.37Z"/><path class="cls-13" d="M257,85.5a.81.81,0,1,1-.81-.8A.81.81,0,0,1,257,85.5Z"/><path class="cls-13" d="M247,84.3a.81.81,0,1,1-.8-.81A.8.8,0,0,1,247,84.3Z"/><path class="cls-13" d="M256.64,89.64A62,62,0,0,1,241.51,88a.87.87,0,1,1,.47-1.67,64,64,0,0,0,17.43,1.57.87.87,0,0,1,.06,1.74C258.5,89.62,257.55,89.64,256.64,89.64Z"/></svg>