<svg id="Camada_1" data-name="Camada 1" xmlns="http://www.w3.org/2000/svg" viewBox="0 0 299.84 41.09"><defs><style>.cls-1{fill:#f53e28;}.cls-2{fill:#333;}.cls-3,.cls-6{fill:#fff;}.cls-4{fill:#4c241d;}.cls-5{fill:#edebdc;}.cls-6{font-size:16.78px;font-family:ArialRoundedMTBold, Arial Rounded MT Bold;}.cls-7{letter-spacing:-0.04em;}</style></defs><title>ICONS</title><rect class="cls-1" width="299.84" height="41.09"/><path class="cls-2" d="M120.3,15.2H103a3.12,3.12,0,0,0-3.12,3.11v6.5a11.78,11.78,0,1,0,23.56,0v-6.5A3.12,3.12,0,0,0,120.3,15.2Z"/><path class="cls-3" d="M111.53,26.53A10.72,10.72,0,0,0,122.2,15.77H100.86A10.72,10.72,0,0,0,111.53,26.53Z"/><path class="cls-2" d="M111.53,27a11.23,11.23,0,0,1-11.17-11.26.5.5,0,0,1,.5-.5H122.2a.5.5,0,0,1,.5.5A11.23,11.23,0,0,1,111.53,27ZM101.37,16.27a10.17,10.17,0,0,0,20.32,0Z"/><path class="cls-1" d="M115.21,5.84a10.68,10.68,0,0,0-14.35,9.93H122.2a10.52,10.52,0,0,0-3.37-7.72"/><path class="cls-2" d="M122.2,16.27H100.86a.51.51,0,0,1-.5-.5,11.18,11.18,0,0,1,15-10.4.5.5,0,1,1-.34.94,10.19,10.19,0,0,0-13.67,9h20.32a9.94,9.94,0,0,0-3.2-6.86.49.49,0,0,1,0-.7.5.5,0,0,1,.71,0,11.07,11.07,0,0,1,3.53,8.08A.5.5,0,0,1,122.2,16.27Z"/><path class="cls-1" d="M117.4,7l-.54-.34"/><path class="cls-4" d="M117.4,7.45a.49.49,0,0,1-.28-.09c-.16-.11-.34-.21-.51-.31a.51.51,0,0,1-.18-.69.5.5,0,0,1,.68-.18l.56.35a.49.49,0,0,1,.14.69A.48.48,0,0,1,117.4,7.45Z"/><path class="cls-5" d="M114.94,15.86a3.41,3.41,0,1,1-3.41-3.41A3.41,3.41,0,0,1,114.94,15.86Z"/><path class="cls-2" d="M111.53,19.77a3.91,3.91,0,1,1,3.91-3.91A3.91,3.91,0,0,1,111.53,19.77Zm0-6.82a2.91,2.91,0,1,0,2.91,2.91A2.92,2.92,0,0,0,111.53,13Z"/><path class="cls-5" d="M113,15.86a1.49,1.49,0,1,1-3,0,1.49,1.49,0,0,1,3,0Z"/><path class="cls-2" d="M111.53,17.84a2,2,0,1,1,2-2A2,2,0,0,1,111.53,17.84Zm0-3a1,1,0,0,0,0,2,1,1,0,1,0,0-2Z"/><path class="cls-3" d="M111.63,30.19a.51.51,0,0,1-.5-.5V28.2a.5.5,0,0,1,.5-.5.5.5,0,0,1,.5.5v1.49A.5.5,0,0,1,111.63,30.19Z"/><path class="cls-3" d="M111.63,33.67a.5.5,0,0,1-.5-.49v-1.5a.51.51,0,0,1,.5-.5.5.5,0,0,1,.5.5v1.5A.49.49,0,0,1,111.63,33.67Z"/><path class="cls-3" d="M110.64,31.18h-1.5a.5.5,0,1,1,0-1h1.5a.5.5,0,0,1,0,1Z"/><path class="cls-3" d="M114.12,31.18h-1.49a.5.5,0,1,1,0-1h1.49a.5.5,0,1,1,0,1Z"/><path class="cls-2" d="M98.34,12.38a1.51,1.51,0,0,1-.72-.18,1.54,1.54,0,0,1-.75-.91A1.49,1.49,0,0,1,97,10.12a1.51,1.51,0,0,1,.91-.75,1.54,1.54,0,0,1,.89,2.94A1.41,1.41,0,0,1,98.34,12.38Zm0-2.08a.4.4,0,0,0-.15,0,.53.53,0,0,0-.36.67.52.52,0,0,0,.26.32.54.54,0,0,0,.77-.63A.54.54,0,0,0,98.34,10.3Z"/><path class="cls-3" d="M111.62,32.24a1.54,1.54,0,1,1,1.53-1.54A1.54,1.54,0,0,1,111.62,32.24Zm0-2.08a.54.54,0,0,0-.54.54.54.54,0,0,0,.54.54.54.54,0,0,0,.54-.54A.55.55,0,0,0,111.62,30.16Z"/><path class="cls-2" d="M122.67,8.15a.5.5,0,0,1-.35-.85l1.47-1.47a.49.49,0,1,1,.7.7L123,8A.47.47,0,0,1,122.67,8.15Z"/><path class="cls-2" d="M124.14,8.15a.47.47,0,0,1-.35-.15l-1.47-1.47a.49.49,0,1,1,.7-.7l1.47,1.47a.5.5,0,0,1-.35.85Z"/><path class="cls-2" d="M104.39,5.2a.83.83,0,1,1-.83-.83A.83.83,0,0,1,104.39,5.2Z"/><path class="cls-2" d="M126.36,30.21a.83.83,0,1,1-.83-.83A.83.83,0,0,1,126.36,30.21Z"/><text class="cls-6" transform="translate(123.52 23.42)">po<tspan class="cls-7" x="20.62" y="0">k</tspan><tspan x="29.6" y="0">etMon</tspan></text></svg>